<?xml version="1.0" standalone="no"?>
<!DOCTYPE svg PUBLIC "-//W3C//DTD SVG 1.1//EN" "http://www.w3.org/Graphics/SVG/1.1/DTD/svg11.dtd" >
<svg xmlns="http://www.w3.org/2000/svg" xmlns:xlink="http://www.w3.org/1999/xlink" version="1.1">
<metadata>
Created by FontForge 20150715 at Tue Nov  3 09:14:12 2015
 By Jimmy Wärting
(c) 2000-2012 Typodermic Fonts Inc. See attached license agreement. If agreement is missing visit typodermicfonts.com for more info.
</metadata>
<defs>
<font id="DreamOrphans-Italic" horiz-adv-x="559" >
  <font-face 
    font-family="Dream Orphans"
    font-weight="400"
    font-style="italic"
    font-stretch="normal"
    units-per-em="1000"
    panose-1="2 0 4 0 0 0 0 0 0 0"
    ascent="818"
    descent="-182"
    x-height="663"
    cap-height="833"
    bbox="-146 -182 933 1011"
    underline-thickness="20"
    underline-position="-143"
    slope="-12"
    unicode-range="U+0020-2212"
  />
<missing-glyph horiz-adv-x="452" 
d="M129 0q-97 0 -97 84v488q0 85 97 85h193q98 0 98 -85v-488q0 -84 -98 -84h-193zM368 572q0 39 -46 39h-193q-46 0 -46 -39v-488q0 -39 46 -39h193q46 0 46 39v488z" />
    <glyph glyph-name=".notdef" horiz-adv-x="452" 
d="M129 0q-97 0 -97 84v488q0 85 97 85h193q98 0 98 -85v-488q0 -84 -98 -84h-193zM368 572q0 39 -46 39h-193q-46 0 -46 -39v-488q0 -39 46 -39h193q46 0 46 39v488z" />
    <glyph glyph-name="space" unicode=" " horiz-adv-x="234" 
 />
    <glyph glyph-name="exclam" unicode="!" horiz-adv-x="181" 
d="M104 200q7 77 12 130t8 89.5t4.5 61t3 45l3 41t4.5 49.5q3 40 4 70.5t1 53.5q0 34 -1 51.5t-1 25.5q0 14 7.5 25.5t20.5 20t29 13.5t33 5q27 0 44.5 -12.5t17.5 -34.5q0 -5 -3.5 -13.5t-11.5 -31.5t-20.5 -67t-31.5 -119q-9 -39 -15 -62t-10 -41.5t-8.5 -38t-12 -51.5
t-19 -81.5t-29.5 -128.5h-29zM104 118q20 0 33 -14.5t13 -35.5q0 -16 -5.5 -30t-14.5 -24.5t-21 -16.5t-25 -6q-21 0 -34 14.5t-13 36.5q0 31 20.5 53.5t46.5 22.5z" />
    <glyph glyph-name="quotedbl" unicode="&#x22;" horiz-adv-x="241" 
d="M272 651q2 23 4 47t2 47q0 20 -4 40.5t-4 41.5q0 29 16 47t39 18q33 0 33 -34q0 -24 -13 -50q-11 -23 -18 -43t-12 -39t-8.5 -37.5t-7.5 -37.5h-27zM143 651q2 23 4.5 47.5t2.5 47.5q0 20 -4.5 40.5t-4.5 39.5q0 29 16 47.5t39 18.5q33 0 33 -34q0 -24 -13 -50
q-11 -23 -18 -43t-11.5 -39.5t-8.5 -38t-8 -36.5h-27z" />
    <glyph glyph-name="numbersign" unicode="#" horiz-adv-x="434" 
d="M329 833l-72 -279h108l72 279h39l-71 -279h96l-17 -58h-94l-43 -172h96l-17 -58h-96l-66 -266h-40l68 266h-110l-66 -266h-39l68 266h-93l17 58h90l44 172h-93l16 58h92l71 279h40zM199 324h108l43 172h-108z" />
    <glyph glyph-name="dollar" unicode="$" horiz-adv-x="382" 
d="M288 833l-11 -76q11 2 22 3t22 1h13q8 0 10 -2l12 74h11l-12 -76q61 -12 91 -77l-31 -25q-22 52 -66 64l-42 -276q54 -38 77.5 -73.5t23.5 -84.5q0 -166 -158 -203l-12 -82h-11l12 80q-12 -2 -24 -3t-23 -1h-11t-11 1l-11 -77h-11l10 78q-81 15 -109 101l38 25
q17 -72 77 -87l47 294q-30 21 -51 38t-33.5 34t-18 35t-5.5 39q0 82 41 131.5t120 66.5l13 78h11zM236 497q8 -11 19.5 -23.5t40.5 -23.5l43 272q-3 1 -11 1q-29 0 -58 -13zM256 704q-23 -15 -38 -44.5t-15 -74.5q0 -43 23 -75zM259 135q23 15 36 48t13 77t-18 77zM177 116
q1 -1 9 -1q18 0 32 3t28 9l35 224q-19 26 -60 53z" />
    <glyph glyph-name="percent" unicode="%" horiz-adv-x="654" 
d="M311 838q53 0 79.5 -39.5t26.5 -105.5q0 -59 -18 -106.5t-48 -82t-68 -53t-77 -18.5q-55 0 -82.5 36.5t-27.5 101.5q0 57 16 105.5t45 84.5t68 56.5t86 20.5zM621 833l-424 -833h-52l419 833h57zM551 389q52 0 80 -39t28 -105q0 -59 -18.5 -107t-48.5 -82t-68 -53
t-78 -19q-55 0 -82 37t-27 102q0 56 16 104.5t44.5 84.5t67.5 56.5t86 20.5zM277 797q-24 0 -45.5 -21t-37 -53.5t-25 -72t-9.5 -77.5q0 -99 74 -99q21 0 42.5 16.5t38.5 44t27.5 64t10.5 76.5q0 54 -20.5 88t-55.5 34zM517 348q-24 0 -45 -21t-36.5 -53.5t-24.5 -72
t-9 -76.5q0 -100 73 -100q21 0 42 16.5t38 44t27.5 64.5t10.5 78q0 54 -20.5 87t-55.5 33z" />
    <glyph glyph-name="ampersand" unicode="&#x26;" 
d="M476 778q-33 25 -70 25q-35 0 -66.5 -18.5t-55.5 -50.5t-38 -74.5t-14 -90.5q0 -30 6.5 -56t19.5 -45t32.5 -30t44.5 -11q60 0 102 40.5t64 124.5l-25 -162h76l-4 -23h-75l-41 -256q-2 -8 -2 -17v-17q0 -43 16 -74.5t46 -31.5q21 0 56 16l5 -24q-60 -20 -87 -20
q-38 0 -65.5 22.5t-44.5 50.5q-17 -19 -31 -33t-30.5 -23t-39 -13t-56.5 -4q-33 0 -59.5 15t-45.5 42t-29 63.5t-10 79.5q0 47 11.5 89.5t32.5 76t52 57.5t70 34q-17 3 -30.5 14.5t-23.5 30.5t-15 43.5t-5 51.5q0 58 20 106t54 82.5t77 54t90 19.5q74 0 110 -44zM325 407
q-33 0 -62.5 -17.5t-51.5 -48t-35 -71.5t-13 -89q0 -30 5.5 -58t16.5 -50t27 -35t37 -13q15 0 27 2.5t23 8t23 14t26 20.5q-5 11 -7 28t-2 37q0 17 1.5 32t3.5 29l32 211h-51z" />
    <glyph glyph-name="quotesingle" unicode="'" horiz-adv-x="97" 
d="M125 852q30 54 66 54q21 0 32.5 -15t11.5 -38q0 -18 -10 -38.5t-25 -38.5t-33 -33t-34 -23q37 49 37 89q0 43 -45 43z" />
    <glyph glyph-name="parenleft" unicode="(" horiz-adv-x="203" 
d="M326 877q-27 -5 -53 -26t-47.5 -51.5t-36.5 -66.5t-20 -72l-93 -606q-2 -14 -4.5 -27t-2.5 -25q0 -86 23.5 -127t83.5 -41l-3 -7q-11 -2 -19 -4t-16 -2q-26 0 -47.5 14.5t-38 39t-25.5 57t-9 68.5q0 19 3 39l93 606q7 49 27 91.5t48 75t63 52t73 24.5z" />
    <glyph glyph-name="parenright" unicode=")" horiz-adv-x="203" 
d="M167 889q63 -8 100.5 -60t37.5 -131q0 -13 -1 -26t-3 -26l-93 -606q-6 -42 -25 -81.5t-45 -69.5t-56 -48.5t-58 -18.5q-8 0 -16.5 2t-17.5 4l-1 7q65 0 108.5 53.5t60.5 166.5l94 606q3 19 3 41q0 31 -6.5 60.5t-18.5 53.5t-29.5 40t-38.5 21z" />
    <glyph glyph-name="asterisk" unicode="*" horiz-adv-x="285" 
d="M260 844l7 -141l108 89l33 -57l-132 -48l118 -76l-43 -47l-88 108l-36 -135l-59 27l78 116l-141 -8l7 63l137 -36l-52 131z" />
    <glyph glyph-name="plus" unicode="+" horiz-adv-x="283" 
d="M227 566v-123h123v-44h-123v-132h-51v132h-119v44h119v123h51z" />
    <glyph glyph-name="comma" unicode="," horiz-adv-x="137" 
d="M30 -66q17 24 26 45.5t9 43.5q0 42 -44 42q27 53 67 53q20 0 31.5 -15t11.5 -37q0 -17 -9.5 -37t-24.5 -38.5t-33 -33.5t-34 -23z" />
    <glyph glyph-name="hyphen" unicode="-" horiz-adv-x="310" 
d="M339 396l-9 -57h-247l8 57h248z" />
    <glyph glyph-name="period" unicode="." horiz-adv-x="155" 
d="M95 118q20 0 33 -15t13 -37q0 -15 -5.5 -28.5t-14.5 -24t-21 -16.5t-25 -6q-21 0 -34 15t-13 37q0 31 21 53t46 22z" />
    <glyph glyph-name="slash" unicode="/" horiz-adv-x="339" 
d="M466 834l-423 -924h-55l427 924h51z" />
    <glyph glyph-name="zero" unicode="0" horiz-adv-x="589" 
d="M431 640q93 0 142 -62t49 -173q0 -103 -35 -179.5t-89 -127.5t-118.5 -76t-123.5 -25q-97 0 -145.5 58.5t-48.5 165.5q0 87 27 163.5t75.5 133t116.5 89.5t150 33zM374 601q-34 0 -63 -17t-53 -46t-42.5 -66.5t-31.5 -79.5t-19.5 -84.5t-6.5 -81.5q0 -92 36 -143.5
t108 -51.5q51 0 93 36t72 89t46.5 114.5t16.5 112.5q0 47 -10 87t-30 69t-49 45.5t-67 16.5z" />
    <glyph glyph-name="one" unicode="1" horiz-adv-x="189" 
d="M266 699l-108 -698h-96l89 571q1 4 1 12q0 23 -15 31t-39 10l4 19z" />
    <glyph glyph-name="two" unicode="2" horiz-adv-x="418" 
d="M153 590q13 20 33 36t44 27t50 17t53 6q40 0 66.5 -12t42.5 -32.5t22.5 -47t6.5 -54.5q0 -47 -16 -95.5t-56 -104t-109.5 -121t-175.5 -146.5h304l-9 -63h-394q79 74 131 124t76 76q43 48 72 89.5t46.5 78.5t24.5 71.5t7 70.5q0 24 -4.5 46t-15 39t-28 27t-44.5 10
q-54 0 -113 -56z" />
    <glyph glyph-name="three" unicode="3" horiz-adv-x="361" 
d="M97 590q28 40 77.5 63t103.5 23q60 0 97.5 -33.5t37.5 -93.5q0 -35 -11.5 -68t-31 -62t-46.5 -52t-57 -36q46 -8 75.5 -45.5t29.5 -90.5q0 -6 -0.5 -12.5t-1.5 -12.5q-13 -86 -51 -147t-88 -102.5t-107 -65t-108 -33.5l-6 18q55 18 105 48t88.5 70.5t61.5 91t23 110.5
q0 29 -7 54t-20 44t-31.5 29.5t-40.5 10.5q-9 0 -16 -1t-15 -4l4 27q35 10 64.5 28t51.5 42.5t34 55.5t12 66q0 24 -7 45.5t-20 37.5t-30.5 25.5t-38.5 9.5q-50 0 -116 -54z" />
    <glyph glyph-name="four" unicode="4" horiz-adv-x="451" 
d="M382 37h55l-5 -37h-55l-28 -178h-95l28 178h-281l484 703zM84 37h202l60 378z" />
    <glyph glyph-name="five" unicode="5" horiz-adv-x="350" 
d="M447 663l-9 -58h-261q81 -99 122 -189.5t41 -173.5q0 -46 -19.5 -105t-58.5 -118t-98 -111.5t-137 -85.5l5 36q45 21 83.5 58t67 83.5t44.5 99.5t16 108q0 48 -10.5 94.5t-30 87t-47 74.5t-61.5 57l80 143h273z" />
    <glyph glyph-name="six" unicode="6" horiz-adv-x="415" 
d="M413 777q-54 -21 -93.5 -54t-69.5 -81t-52 -113t-40 -149q62 82 144 82q69 0 103.5 -46t34.5 -123q0 -71 -18 -128t-49 -97.5t-73 -62.5t-89 -22q-158 0 -158 208q0 55 10 116t30 123t50 121t70 109t90 88t110 58v-29zM156 344q-6 -15 -10 -35.5t-7 -43.5t-4.5 -45.5
t-1.5 -40.5q0 -77 22.5 -122.5t68.5 -45.5q29 0 53.5 18.5t42 50.5t27.5 76t10 94q0 68 -26 106t-79 38q-55 0 -96 -50z" />
    <glyph glyph-name="seven" unicode="7" horiz-adv-x="411" 
d="M507 663l-398 -841h-48l352 751h-314l14 90h394z" />
    <glyph glyph-name="eight" unicode="8" horiz-adv-x="462" 
d="M357 485q56 -38 86.5 -100t30.5 -134q0 -61 -20 -110.5t-54 -84.5t-78.5 -54t-93.5 -19q-92 0 -135 48.5t-43 126.5q0 95 51.5 169t139.5 116q-106 74 -106 178q0 43 18 82t47.5 67.5t68.5 45.5t81 17q36 0 67 -9.5t54 -26.5t36 -42t13 -56q0 -64 -43 -118t-120 -96z
M336 499q24 15 46.5 36t39.5 46.5t27 54.5t10 59q0 51 -30.5 79t-81.5 28q-66 0 -103 -28t-37 -86q0 -27 9.5 -54t27 -52t41 -46.5t51.5 -36.5zM266 430q-33 -19 -60 -48.5t-46.5 -65.5t-30.5 -77t-11 -82q0 -65 29.5 -104t83.5 -39q36 0 68 19t56.5 49.5t38.5 69.5t14 78
q0 65 -38 116.5t-104 83.5z" />
    <glyph glyph-name="nine" unicode="9" horiz-adv-x="415" 
d="M69 -148q51 15 95.5 53t81 91.5t63.5 120t42 138.5q-53 -73 -130 -73q-36 0 -63.5 14.5t-45.5 39.5t-27.5 59t-9.5 74q0 72 19 129t51.5 96.5t74 60.5t86.5 21q156 0 156 -202q0 -61 -10.5 -127t-31.5 -131.5t-53 -127.5t-75.5 -114t-99 -91.5t-122.5 -60.5zM356 292
q11 42 17 89.5t6 87.5q0 81 -23 129.5t-69 48.5q-28 0 -51.5 -18.5t-41 -50.5t-27 -75t-9.5 -91q0 -34 7 -63.5t21 -51.5t35.5 -34.5t51.5 -12.5q47 0 83 42z" />
    <glyph glyph-name="colon" unicode=":" horiz-adv-x="160" 
d="M149 456q21 0 34 -15.5t13 -37.5q0 -31 -21 -53t-46 -22q-21 0 -33.5 14t-12.5 37q0 31 20 54t46 23zM97 118q20 0 33 -15t13 -37q0 -30 -20 -52.5t-46 -22.5q-21 0 -33.5 14.5t-12.5 36.5q0 31 20 53.5t46 22.5z" />
    <glyph glyph-name="semicolon" unicode=";" horiz-adv-x="141" 
d="M138 456q20 0 33.5 -15.5t13.5 -38.5q0 -15 -6 -28.5t-16 -23.5t-21.5 -16t-23.5 -6q-20 0 -33 14t-13 37q0 31 19.5 54t46.5 23zM31 -66q17 23 26 45.5t9 43.5q0 42 -44 42q27 53 67 53q20 0 31.5 -15t11.5 -37q0 -17 -9.5 -37t-24.5 -38.5t-33 -33.5t-34 -23z" />
    <glyph glyph-name="less" unicode="&#x3c;" horiz-adv-x="221" 
d="M214 544l74 22l-154 -149l105 -143l-68 -20l-105 147z" />
    <glyph glyph-name="equal" unicode="=" horiz-adv-x="268" 
d="M334 488l-5 -34h-229l5 34h229zM317 381l-5 -34h-228l6 34h227z" />
    <glyph glyph-name="greater" unicode="&#x3e;" horiz-adv-x="221" 
d="M176 564l105 -147l-147 -143l-75 -21l154 148l-106 143z" />
    <glyph glyph-name="question" unicode="?" horiz-adv-x="364" 
d="M125 756q33 46 86.5 66t110.5 20q69 0 104 -37.5t35 -94.5q0 -8 -0.5 -15.5t-1.5 -15.5q-5 -33 -26 -68.5t-49.5 -71.5t-60.5 -71.5t-59.5 -68.5t-47 -62t-23.5 -53q0 -8 5 -35t17 -73l-30 -10l-44 147q-3 9 -3 22q0 22 17 50.5t42.5 61t55.5 66.5t55.5 66.5t42.5 62
t17 52.5q0 21 -8.5 41t-22 35.5t-31 24.5t-35.5 9q-66 0 -130 -74zM186 118q21 0 33.5 -15t12.5 -37q0 -30 -19.5 -52.5t-46.5 -22.5q-20 0 -33.5 15t-13.5 37q0 15 6 29t15.5 24t21.5 16t24 6z" />
    <glyph glyph-name="at" unicode="@" horiz-adv-x="676" 
d="M542 604l-46 -294q-1 -5 -1 -8.5v-7.5q0 -20 7.5 -33.5t21.5 -13.5q20 0 43.5 15.5t44 50t34.5 89.5t14 133q0 71 -18.5 120.5t-48.5 80t-67.5 44.5t-75.5 14q-36 0 -72 -17.5t-69 -48.5t-62 -74t-50 -93t-33 -106t-12 -113q0 -70 17 -128.5t46.5 -101t69 -66t85.5 -23.5
q18 0 36 4t36 9l-5 -28q-23 -14 -51.5 -19.5t-56.5 -5.5q-57 0 -104.5 22t-81.5 62.5t-52.5 97.5t-18.5 127q0 73 16.5 142t45.5 130t68 112.5t84.5 88t95 57t98.5 20.5q48 0 94 -14.5t81.5 -46.5t57 -84.5t21.5 -127.5q0 -57 -14 -121t-42 -119t-69 -91t-95 -36
q-30 0 -47.5 15.5t-24.5 51.5q-13 -29 -36.5 -48t-57.5 -19q-37 0 -56 42.5t-19 110.5q0 46 9 94t26 86.5t42.5 63t57.5 24.5t56.5 -16.5t29.5 -50.5l18 52zM472 485q1 4 1 12q0 12 -3 26t-8.5 25.5t-13.5 19.5t-19 8q-17 0 -32.5 -12.5t-26.5 -35.5t-17.5 -54.5t-6.5 -68.5
q0 -27 3.5 -52.5t10 -44.5t16 -30.5t21.5 -11.5q6 0 14.5 8t16.5 20t14 25t8 23z" />
    <glyph glyph-name="A" unicode="A" horiz-adv-x="402" 
d="M387 833v-833h-95l-6 192h-173l-64 -192h-35l267 833h106zM123 216h163v523z" />
    <glyph glyph-name="B" unicode="B" horiz-adv-x="431" 
d="M362 833q56 0 86.5 -43t30.5 -115q0 -43 -9.5 -82t-27.5 -71t-43 -55.5t-55 -35.5q25 -3 44.5 -17.5t33 -36.5t20 -50t6.5 -58q0 -65 -21 -115t-58.5 -84t-89 -52t-112.5 -18h-136l128 833h203zM192 427h79q22 0 43.5 18t38 50.5t27 76.5t10.5 97q0 63 -23.5 101.5
t-69.5 38.5h-46zM130 23h45q38 0 70 20.5t55.5 56.5t36.5 85t13 105q0 115 -93 115h-68z" />
    <glyph glyph-name="C" unicode="C" horiz-adv-x="480" 
d="M533 700q-5 23 -17.5 43.5t-29 35.5t-37 24t-41.5 9q-44 0 -86 -43t-76 -119t-54.5 -179.5t-20.5 -224.5q0 -105 26.5 -168.5t77.5 -63.5q20 0 42 9.5t43 25t41 35.5t36 42h37q-46 -75 -105.5 -109t-130.5 -34q-86 0 -127.5 54.5t-41.5 180.5q0 43 5 94.5t15 113.5
q15 101 42 179t67.5 130.5t96.5 79.5t131 27q56 0 92 -34.5t55 -96.5z" />
    <glyph glyph-name="D" unicode="D" horiz-adv-x="506" 
d="M392 833q40 0 71 -20t52.5 -56.5t32.5 -87.5t11 -114q0 -31 -3 -64t-8 -68q-19 -121 -48 -202.5t-73 -130.5t-106.5 -69.5t-148.5 -20.5h-141l128 833h233zM129 23h92q82 0 141.5 101.5t89.5 298.5q5 33 7.5 63t2.5 58q0 59 -10.5 108t-31.5 84t-52 54t-71 19h-47z" />
    <glyph glyph-name="E" unicode="E" horiz-adv-x="398" 
d="M527 833l-4 -24h-272l-58 -379h157l-4 -23h-157l-59 -384h271l-3 -23h-367l128 833h368z" />
    <glyph glyph-name="F" unicode="F" horiz-adv-x="411" 
d="M526 833l-4 -24h-272l-60 -391h191l-3 -23h-192l-60 -395h-95l128 833h367z" />
    <glyph glyph-name="G" unicode="G" horiz-adv-x="494" 
d="M524 700q-11 47 -42.5 79.5t-73.5 32.5q-46 0 -89 -46t-76.5 -126t-53.5 -187.5t-20 -231.5q0 -98 22.5 -152t66.5 -54q23 0 48.5 17t46.5 47.5t35 73t14 94.5q0 26 -11.5 36.5t-40.5 14.5l2 19h144l-24 -165q-2 -14 -3.5 -28.5t-1.5 -28.5q0 -48 11 -81l-34 -20
q-7 17 -12.5 43.5t-5.5 52.5v9.5t1 9.5q-14 -24 -31 -46.5t-41 -40t-56.5 -28.5t-75.5 -11q-80 0 -117.5 49t-37.5 167q0 45 5.5 101.5t16.5 125.5q15 101 41.5 179t67 130.5t96.5 79.5t131 27q51 0 85 -34.5t52 -96.5z" />
    <glyph glyph-name="H" unicode="H" horiz-adv-x="475" 
d="M256 833l-62 -392h221l61 392h97l-129 -833h-97l64 417h-220l-65 -417h-95l128 833h97z" />
    <glyph glyph-name="I" unicode="I" horiz-adv-x="158" 
d="M255 833l-129 -833h-96l128 833h97z" />
    <glyph glyph-name="J" unicode="J" horiz-adv-x="402" 
d="M503 833l-96 -622q-9 -54 -32 -96.5t-56.5 -72t-74.5 -44.5t-85 -15q-30 0 -55 11.5t-43 31t-27.5 46.5t-9.5 58q0 17 3 32l5 42h33l-7 -46q-1 -5 -1.5 -10.5t-0.5 -10.5q0 -24 8 -46.5t23 -40.5t35.5 -28.5t45.5 -10.5q27 0 49.5 12t40 33t29.5 48.5t17 57.5l104 671h95
z" />
    <glyph glyph-name="K" unicode="K" horiz-adv-x="455" 
d="M255 833l-57 -365l334 365h39l-268 -292l139 -541h-97l-131 443l-24 -26l-64 -417h-96l128 833h97z" />
    <glyph glyph-name="L" unicode="L" horiz-adv-x="325" 
d="M254 833l-126 -810h199l-4 -23h-293l128 833h96z" />
    <glyph glyph-name="M" unicode="M" 
d="M235 833l95 -570l265 570h63l-129 -833h-95l98 632l-264 -566l-102 566l-97 -632h-39l128 833h77z" />
    <glyph glyph-name="N" unicode="N" horiz-adv-x="434" 
d="M242 833l162 -567l88 567h40l-131 -850h-13l-209 721l-109 -703h-40l128 832h84z" />
    <glyph glyph-name="O" unicode="O" 
d="M443 842q87 0 130 -62t43 -184q0 -35 -3.5 -74t-10.5 -84q-19 -121 -47.5 -207t-71.5 -141t-102.5 -81t-139.5 -26q-86 0 -128.5 55t-42.5 182q0 43 5 94t15 112q16 102 43 180t69 130.5t101 79t140 26.5zM408 810q-42 0 -84 -42t-75.5 -117t-54.5 -178t-21 -225
q0 -53 6.5 -96.5t20 -74t33 -47.5t45.5 -17q43 0 85 44.5t74.5 122.5t52.5 183.5t20 227.5q0 103 -25.5 161t-76.5 58z" />
    <glyph glyph-name="P" unicode="P" horiz-adv-x="409" 
d="M395 833q24 0 45 -12.5t36 -32.5t23.5 -46t8.5 -53q0 -5 -0.5 -11t-1.5 -12l-19 -123q-6 -41 -29 -75t-57.5 -58t-78 -37t-91.5 -13h-51l-55 -360h-95l128 833h237zM184 384h67q19 0 42 15t43 36.5t34.5 47t17.5 46.5l20 123q1 6 1.5 11.5t0.5 11.5q0 26 -8 50.5t-23 43
t-35 29.5t-44 11h-51z" />
    <glyph glyph-name="Q" unicode="Q" horiz-adv-x="560" 
d="M388 29q16 -15 32.5 -31.5t33.5 -31t35 -25.5t38 -14q-19 -8 -36.5 -11.5t-33.5 -3.5q-79 0 -121 98q-24 -14 -50 -20.5t-52 -6.5q-85 0 -126.5 54.5t-41.5 179.5q0 44 5 95.5t15 113.5q16 102 43 180t69 130.5t101.5 79t139.5 26.5q88 0 131 -62.5t43 -185.5
q0 -35 -3 -74t-10 -82q-15 -94 -33.5 -161.5t-44 -115.5t-58.5 -79.5t-76 -52.5zM403 810q-43 0 -85 -42.5t-75 -118.5t-53.5 -180t-20.5 -227q0 -52 6.5 -94t19 -72t31.5 -46.5t45 -16.5q44 0 86.5 44.5t75.5 122t53.5 182.5t20.5 227q0 103 -26 162t-78 59z" />
    <glyph glyph-name="R" unicode="R" horiz-adv-x="473" 
d="M388 833q26 0 47 -12.5t35.5 -34.5t22 -52t7.5 -66q0 -44 -9.5 -85.5t-27 -75.5t-43 -58.5t-56.5 -34.5q81 -15 81 -118q0 -11 -1 -23t-3 -26l-26 -161q-2 -8 -2 -14.5v-13.5q0 -55 42 -69q-15 -4 -31 -4q-54 0 -79.5 22t-25.5 58q0 5 0.5 10.5t1.5 10.5l30 203
q1 5 1 9.5v9.5q0 18 -5 35.5t-13.5 31t-20.5 22t-25 8.5h-100l-62 -405h-96l128 833h230zM191 427h99q23 0 43.5 19t35.5 50.5t23.5 72t8.5 83.5q0 70 -28.5 113.5t-80.5 43.5h-42z" />
    <glyph glyph-name="S" unicode="S" horiz-adv-x="388" 
d="M437 726q-14 35 -35.5 56t-60.5 21q-24 0 -46 -9.5t-38.5 -28.5t-26.5 -46.5t-10 -64.5q0 -47 11.5 -81.5t30 -64.5t42 -59t47.5 -65q12 -17 21 -35t15 -39.5t9 -48.5t3 -62q0 -100 -59.5 -158t-171.5 -58q-54 0 -89.5 31t-46.5 89l38 25q2 -21 10 -40t21 -34t30.5 -23.5
t38.5 -8.5q20 0 43.5 10.5t43 32t32.5 53.5t13 76q0 55 -9.5 93.5t-30.5 65.5q-24 30 -47.5 61t-42 63.5t-29.5 68t-11 74.5q0 49 15 90t41.5 70t63.5 45.5t82 16.5q30 0 51.5 -6.5t37 -18.5t27 -28.5t21.5 -37.5z" />
    <glyph glyph-name="T" unicode="T" horiz-adv-x="374" 
d="M496 833l-7 -44q-9 20 -44 20h-84l-125 -809h-95l124 809h-91q-5 0 -12 -2t-14 -5t-12.5 -6.5t-7.5 -6.5l7 44h361z" />
    <glyph glyph-name="U" unicode="U" horiz-adv-x="430" 
d="M254 833l-105 -675q-1 -5 -1.5 -10.5t-0.5 -10.5q0 -26 9 -48t24.5 -38t37 -25.5t45.5 -9.5q48 0 80 35.5t41 92.5l107 689h40l-102 -658q-11 -66 -37 -104.5t-60.5 -58t-73 -24.5t-72.5 -5q-140 0 -140 121q0 9 1 19t3 21l108 689h96z" />
    <glyph glyph-name="V" unicode="V" horiz-adv-x="376" 
d="M232 833v-732l237 732h36l-268 -833h-106v833h101z" />
    <glyph glyph-name="W" unicode="W" horiz-adv-x="545" 
d="M223 833l-24 -732l120 331l-17 401h97v-198l67 198h36l-94 -261l18 -471l214 732h36l-241 -833h-96l-14 353l-125 -353h-96l24 833h95z" />
    <glyph glyph-name="X" unicode="X" horiz-adv-x="423" 
d="M264 833l54 -310l178 310h43l-211 -366l82 -467h-100l-60 333l-192 -333h-42l225 389l-79 444h102z" />
    <glyph glyph-name="Y" unicode="Y" horiz-adv-x="386" 
d="M234 833l53 -315l180 315h43l-198 -347l-76 -486h-95l67 441l-74 392h100z" />
    <glyph glyph-name="Z" unicode="Z" horiz-adv-x="425" 
d="M534 833l-405 -799h296l-5 -34h-394l403 802h-290l5 31h390z" />
    <glyph glyph-name="bracketleft" unicode="[" horiz-adv-x="186" 
d="M292 889l-5 -29h-82l-158 -1009h84l-5 -29h-125l165 1067h126z" />
    <glyph glyph-name="backslash" unicode="\" horiz-adv-x="339" 
d="M180 834l142 -924h-57l-134 924h49z" />
    <glyph glyph-name="bracketright" unicode="]" horiz-adv-x="186" 
d="M292 889l-166 -1067h-125l4 29h84l156 1009h-83l4 29h126z" />
    <glyph glyph-name="asciicircum" unicode="^" horiz-adv-x="394" 
d="M286 818h75l119 -166h-109l-91 120l-125 -120h-42z" />
    <glyph glyph-name="underscore" unicode="_" horiz-adv-x="547" 
d="M548 -65l-10 -58h-569l10 58h569z" />
    <glyph glyph-name="grave" unicode="`" horiz-adv-x="196" 
d="M286 763l-17 -23l-128 42q-13 4 -19.5 8.5t-6.5 16.5q0 17 10.5 25.5t27.5 8.5q8 -2 18 -4t21 -10z" />
    <glyph glyph-name="a" unicode="a" horiz-adv-x="442" 
d="M513 643l-100 -643h-66l-4 102q-22 -54 -68 -86.5t-98 -32.5q-64 0 -95.5 53.5t-31.5 153.5t20.5 188.5t56.5 154.5t85.5 104.5t108.5 38.5q38 0 64 -24t37 -66l50 90zM394 499q1 5 1 9.5v9.5q0 19 -5 42t-15 42.5t-24.5 32.5t-33.5 13q-57 0 -97 -85.5t-63 -237.5
q-8 -45 -11 -82.5t-3 -68.5q0 -75 20 -108.5t58 -33.5q22 0 43.5 15t38.5 40t29 56t17 64z" />
    <glyph glyph-name="b" unicode="b" horiz-adv-x="442" 
d="M256 851l-44 -290q25 56 63.5 85.5t89.5 29.5q63 0 95.5 -53t32.5 -152q0 -94 -20 -182t-55.5 -156t-83 -109t-102.5 -41q-41 0 -66 23.5t-30 69.5l-32 -76h-75l127 817zM148 156q-1 -4 -1 -8v-8q0 -21 6.5 -44t18.5 -42t28 -31.5t35 -12.5q26 0 55 36t53 99t40 149.5
t16 187.5q0 66 -17.5 104.5t-61.5 38.5q-22 0 -42 -14t-37 -37t-29 -53.5t-17 -63.5z" />
    <glyph glyph-name="c" unicode="c" horiz-adv-x="408" 
d="M435 568q-8 34 -26 54.5t-52 20.5q-40 0 -70 -20.5t-53 -59.5t-39.5 -96.5t-28.5 -132.5q-5 -32 -7 -61.5t-2 -55.5q0 -91 28 -144.5t86 -53.5q24 0 53 27t60 66l19 -12q-18 -26 -35 -47t-37.5 -37t-47 -24.5t-62.5 -8.5q-40 0 -70.5 17t-51 48.5t-31 76t-10.5 98.5
q0 112 24 196t64.5 140.5t94 84.5t113.5 28q50 0 77.5 -20t35.5 -71z" />
    <glyph glyph-name="d" unicode="d" horiz-adv-x="431" 
d="M534 851l-132 -851h-76l-9 78q-12 -20 -25 -37.5t-29.5 -30t-37.5 -20t-48 -7.5q-30 0 -52.5 18t-38 50.5t-23.5 78t-8 100.5q0 50 6.5 103t19 102.5t31.5 93.5t43.5 76.5t55 51.5t67.5 19q49 0 77.5 -25t38.5 -82l38 248zM378 464q1 5 1 10.5v11.5q0 23 -5 50
t-14.5 49.5t-24.5 37.5t-35 15q-30 0 -56.5 -26t-46 -74.5t-30.5 -119t-11 -158.5q0 -49 5 -92t14.5 -75.5t24 -51t33.5 -18.5q12 0 27.5 14.5t30 36.5t26 47t14.5 45z" />
    <glyph glyph-name="e" unicode="e" horiz-adv-x="453" 
d="M182 373q0 -2 -3 -18t-6 -39.5t-5.5 -50t-2.5 -47.5q0 -41 5.5 -77t18.5 -63t33.5 -43t49.5 -16q25 0 53 27t60 66l20 -12q-20 -26 -39 -47t-39.5 -37t-45.5 -24.5t-57 -8.5q-39 0 -69.5 18t-51.5 50.5t-31.5 76t-10.5 94.5q0 90 26 172t68.5 145t97 100t112.5 37
q75 0 105.5 -25.5t30.5 -83.5q0 -35 -18 -67.5t-57 -59t-99.5 -44.5t-144.5 -23zM193 414q64 7 108.5 22t73 35.5t41.5 43.5t13 46q0 12 -2.5 26t-10 26t-21.5 20t-36 8q-32 0 -58 -22.5t-46.5 -56.5t-36 -74t-25.5 -74z" />
    <glyph glyph-name="f" unicode="f" horiz-adv-x="290" 
d="M162 662l3 17q5 29 19.5 59.5t37.5 55.5t54 41t69 16q24 0 43 -5t38 -18l-12 -24q-15 8 -28 12t-25 4q-17 0 -33.5 -12.5t-30 -33.5t-23 -47.5t-13.5 -54.5l-2 -10h77l-4 -24h-76l-129 -816h-95l127 816h-47l4 24h46z" />
    <glyph glyph-name="g" unicode="g" horiz-adv-x="507" 
d="M418 -120q-69 -29 -136.5 -44.5t-133.5 -15.5q-70 0 -113 25t-43 76q0 29 14 56t38.5 49t57.5 37.5t71 23.5q-81 19 -81 50q0 14 20 25.5t57 21.5q-37 27 -54 74t-17 101q0 60 20 117t57 101.5t87.5 71.5t112.5 27q83 0 126 -72q18 -6 33 -6q40 0 74 47
q-15 -56 -33.5 -76t-51.5 -20q6 -30 6 -66q0 -81 -20.5 -142t-56.5 -101.5t-85 -61t-106 -20.5q-17 0 -31.5 2.5t-28.5 7.5q-10 -8 -13.5 -13.5t-3.5 -11.5q0 -31 99 -50q-42 -9 -78 -24t-62.5 -34t-41.5 -41.5t-15 -45.5q0 -40 31 -66t80 -26q26 0 63.5 7.5t71.5 16.5
t57.5 16.5t22.5 7.5zM327 637q-60 0 -98.5 -68t-38.5 -194q0 -90 32 -137t80 -47q60 0 97 62.5t37 187.5q0 41 -7 77t-20.5 62.5t-34 41.5t-47.5 15z" />
    <glyph glyph-name="h" unicode="h" horiz-adv-x="417" 
d="M256 851l-43 -277q8 18 23 36.5t35.5 33t44.5 23.5t50 9q25 0 46 -12.5t36.5 -32.5t24.5 -47t9 -55q0 -7 -0.5 -13t-1.5 -13l-78 -502h-95l75 486q1 5 1.5 10.5t0.5 10.5q0 21 -6 42t-17.5 37t-26.5 26t-33 10q-22 0 -39 -14t-30 -35.5t-21.5 -49t-12.5 -54.5l-73 -469
h-96l127 816z" />
    <glyph glyph-name="i" unicode="i" horiz-adv-x="156" 
d="M208 838q21 0 33.5 -14.5t12.5 -36.5q0 -15 -5.5 -29t-14.5 -24.5t-21 -17t-25 -6.5q-21 0 -34 15.5t-13 38.5q0 31 21 52.5t46 21.5zM227 663l-102 -662h-96l97 628z" />
    <glyph glyph-name="j" unicode="j" horiz-adv-x="166" 
d="M219 838q20 0 33 -14.5t13 -37.5q0 -15 -6 -29t-15 -24.5t-21 -16.5t-24 -6q-22 0 -34.5 15t-12.5 38q0 31 20.5 53t46.5 22zM234 663l-94 -613q-8 -50 -24 -85.5t-48 -62t-82.5 -45t-125.5 -33.5l-6 20q81 0 124.5 36.5t55.5 111.5l100 637z" />
    <glyph glyph-name="k" unicode="k" horiz-adv-x="428" 
d="M256 851l-79 -504l299 316h37l-215 -231l124 -432h-102l-100 347l-51 -51l-45 -296h-95l127 817z" />
    <glyph glyph-name="l" unicode="l" horiz-adv-x="156" 
d="M256 851l-131 -850h-96l127 816z" />
    <glyph glyph-name="m" unicode="m" horiz-adv-x="628" 
d="M227 663l-12 -80q10 24 25.5 42t33 29t36 16.5t35.5 5.5q70 0 83 -75q62 78 144 78q54 0 81 -35.5t27 -92.5q0 -18 -3 -39l-78 -512h-95l77 496q1 12 2.5 24.5t1.5 23.5q0 41 -12 68.5t-36 27.5q-35 0 -60.5 -34.5t-34.5 -93.5l-79 -512h-95l76 496q2 11 3 24.5t1 26.5
q0 17 -1.5 33.5t-6.5 29t-14.5 20.5t-25.5 8t-32 -13t-29.5 -34t-24 -47.5t-14.5 -53.5l-75 -490h-96l97 629z" />
    <glyph glyph-name="n" unicode="n" horiz-adv-x="429" 
d="M226 663l-14 -94q19 51 57 79t86 28q58 0 93 -35t35 -95q0 -15 -3 -33l-78 -513h-96l77 497q2 9 2 18t1 17q0 47 -20 75.5t-55 28.5q-17 0 -35 -11t-33 -29.5t-26 -42.5t-15 -50l-78 -503h-95l97 629z" />
    <glyph glyph-name="o" unicode="o" horiz-adv-x="472" 
d="M370 676q72 0 107 -54t35 -156q0 -29 -2.5 -61.5t-8.5 -68.5q-15 -98 -42 -165t-64.5 -109t-84.5 -60.5t-104 -18.5q-75 0 -110 50t-35 153q0 98 16.5 187t53 156.5t95.5 107t144 39.5zM314 639q-24 0 -44.5 -14.5t-37.5 -48.5t-32 -88.5t-27 -134.5q-15 -95 -15 -162
q0 -86 23 -130t71 -44q27 0 50 14.5t42 49t34.5 93t29.5 147.5q5 29 6.5 57.5t1.5 54.5q0 93 -27 149.5t-75 56.5z" />
    <glyph glyph-name="p" unicode="p" horiz-adv-x="431" 
d="M198 663l7 -86q23 47 59.5 73t92.5 26q31 0 53.5 -18t37.5 -50.5t22 -77t7 -97.5q0 -47 -6.5 -99t-19.5 -102t-32.5 -95t-45.5 -79.5t-58.5 -54.5t-70.5 -20q-51 0 -74 29.5t-31 82.5l-42 -273h-96l125 807zM156 199q-1 -6 -1.5 -12t-0.5 -12q0 -25 6.5 -52t18 -49.5
t27.5 -37t35 -14.5q29 0 54 32t43 86t28.5 125t10.5 148q0 48 -5 89t-15 71t-24.5 47t-33.5 17q-14 0 -30.5 -16.5t-30.5 -40t-24.5 -49t-13.5 -43.5z" />
    <glyph glyph-name="q" unicode="q" horiz-adv-x="442" 
d="M513 643l-127 -821h-97l44 280q-22 -54 -63 -86.5t-93 -32.5q-64 0 -95.5 53.5t-31.5 153.5t20.5 188.5t56.5 154.5t85.5 104.5t108.5 38.5q38 0 64 -24t37 -66l50 90zM394 499q1 5 1 9.5v9.5q0 19 -5 42t-15 42.5t-24.5 32.5t-33.5 13q-57 0 -97 -85.5t-63 -237.5
q-8 -45 -11 -82.5t-3 -68.5q0 -75 20 -108.5t58 -33.5q22 0 43.5 15t38.5 40t29 56t17 64z" />
    <glyph glyph-name="r" unicode="r" horiz-adv-x="307" 
d="M226 663l-22 -148q23 48 43 79.5t38 49.5t33.5 25t30.5 7q30 0 47 -23l-56 -68q-5 5 -12.5 6.5t-21.5 1.5q-9 0 -26 -14t-35.5 -37.5t-34.5 -55t-21 -66.5l-65 -420h-95l97 629z" />
    <glyph glyph-name="s" unicode="s" horiz-adv-x="384" 
d="M399 566q-15 31 -35.5 50.5t-49.5 19.5q-25 0 -46.5 -8t-38 -22t-26 -35t-9.5 -46q0 -45 14 -74.5t34 -43.5q27 -20 54.5 -41.5t50 -47.5t36.5 -56.5t14 -67.5q0 -42 -14.5 -80t-43.5 -67t-71.5 -46.5t-98.5 -17.5q-29 0 -50.5 9.5t-37.5 25.5t-27.5 38t-19.5 47l38 25
q4 -19 13 -37.5t21.5 -33.5t28 -24t33.5 -9q30 0 53.5 12.5t39.5 32.5t24 44.5t8 49.5q0 32 -14.5 57t-35.5 46t-46.5 41.5t-46.5 44.5t-35.5 53.5t-14.5 70.5q0 42 16 78.5t42.5 63.5t61 42.5t72.5 15.5q57 0 88.5 -19t48.5 -65z" />
    <glyph glyph-name="t" unicode="t" horiz-adv-x="284" 
d="M255 663h76l-3 -24h-77l-78 -504q-1 -5 -1.5 -10t-0.5 -10q0 -19 5.5 -36.5t14.5 -31t21.5 -22t26.5 -8.5q21 0 52 23l4 -23q-21 -20 -44 -27t-45 -7q-60 0 -95 37t-35 99q0 15 3 32l77 488h-46l3 24q122 0 167 161z" />
    <glyph glyph-name="u" unicode="u" horiz-adv-x="429" 
d="M225 666l-76 -490q-3 -20 -3 -35q0 -48 19.5 -77.5t55.5 -29.5q18 0 36 10.5t32.5 28.5t25 41t14.5 48l73 470l101 34l-102 -666h-77l-7 86q-18 -41 -56.5 -66t-83.5 -25q-57 0 -92.5 35.5t-35.5 97.5q0 17 3 34l73 470z" />
    <glyph glyph-name="v" unicode="v" horiz-adv-x="372" 
d="M198 663l41 -485l205 485h32l-286 -680h-13l-82 680h103z" />
    <glyph glyph-name="w" unicode="w" horiz-adv-x="598" 
d="M207 663l32 -485l108 215l-34 270h102l51 -485l197 485h33l-278 -680h-11l-45 355l-171 -355h-13l-74 680h103z" />
    <glyph glyph-name="x" unicode="x" horiz-adv-x="425" 
d="M231 663l67 -263l177 263h28l-196 -298l101 -365h-104l-70 257l-173 -257h-38l201 292l-97 371h104z" />
    <glyph glyph-name="y" unicode="y" horiz-adv-x="394" 
d="M211 663l45 -457l202 457h31l-302 -697q-29 -69 -81 -106.5t-115 -37.5l5 36q20 0 41 7t40.5 20t36 31t27.5 40l47 100l-80 607h103z" />
    <glyph glyph-name="z" unicode="z" horiz-adv-x="394" 
d="M487 663l-375 -630h267l-5 -33h-366l375 628h-264l6 35h362z" />
    <glyph glyph-name="braceleft" unicode="{" horiz-adv-x="270" 
d="M364 868q-45 -17 -65.5 -49t-29 -74t-11 -91.5t-10.5 -100.5q-22 -136 -133 -197q37 -25 56 -62t19 -88q0 -11 -1 -23.5t-3 -24.5q-3 -20 -10 -48.5t-14 -58.5t-12.5 -58.5t-5.5 -49.5q0 -76 61 -101l-4 -21q-53 13 -77.5 46t-24.5 96q0 30 6.5 70.5t14.5 81t14.5 76
t6.5 55.5q0 84 -58 98l4 23q36 7 56 34.5t31 69.5t17 95.5t15 113.5q14 96 52.5 144.5t108.5 64.5z" />
    <glyph glyph-name="bar" unicode="|" horiz-adv-x="98" 
d="M202 889l-155 -1000h-36l155 1000h36z" />
    <glyph glyph-name="braceright" unicode="}" horiz-adv-x="270" 
d="M168 889q53 -13 77.5 -45.5t24.5 -92.5q0 -20 -6.5 -57t-14.5 -79t-14.5 -83t-6.5 -69q0 -82 57 -96l-2 -23q-36 -8 -55 -31.5t-30 -63t-17.5 -94t-17.5 -123.5q-15 -97 -53 -146t-108 -65l3 21q46 18 67.5 54t30.5 80.5t11 92.5t8 89q23 139 133 198q-75 48 -75 147
q0 20 7 55t16 73.5t16 75t7 60.5q0 75 -62 101z" />
    <glyph glyph-name="asciitilde" unicode="~" horiz-adv-x="555" 
d="M99 403q17 78 62 120.5t108 42.5q36 0 60.5 -19.5t44 -43.5t36 -43.5t36.5 -19.5q11 0 24.5 4.5t26.5 16t24.5 32t18.5 52.5h50q-6 -39 -22.5 -69.5t-40 -51.5t-52 -32t-58.5 -11q-36 0 -60.5 20t-44 44t-36.5 44t-38 20q-23 0 -44.5 -22.5t-42.5 -83.5h-52z" />
    <glyph glyph-name="exclamdown" unicode="&#xa1;" horiz-adv-x="181" 
d="M187 503q-7 -77 -12 -129.5t-8 -89.5t-5 -61t-4 -45t-3 -41.5t-3 -49.5q-6 -83 -6 -126q0 -29 1 -46.5t1 -25.5q0 -14 -7.5 -26.5t-20 -21.5t-28.5 -14t-34 -5q-26 0 -44 12.5t-18 34.5q0 5 3.5 13t11.5 30.5t20.5 66.5t31.5 121q9 39 15 62t10 41.5t9 38t12 51.5
t18.5 81.5t30.5 128.5h29zM206 712q21 0 34 -15t13 -37q0 -31 -20.5 -53t-46.5 -22q-21 0 -33.5 14.5t-12.5 37.5q0 15 5.5 28.5t14.5 24t21 16.5t25 6z" />
    <glyph glyph-name="sterling" unicode="&#xa3;" horiz-adv-x="480" 
d="M126 321q0 10 0.5 19.5t0.5 18.5q0 34 -1.5 67.5t-1.5 65.5q0 168 74 259t228 91q57 0 92.5 -34.5t54.5 -96.5l-40 -11q-5 23 -17.5 43.5t-29 35.5t-37 24t-41.5 9q-38 0 -72.5 -19.5t-60 -55.5t-40.5 -86.5t-15 -111.5q0 -51 6 -108t6 -110h204l-6 -36h-200
q-11 -72 -38 -140t-64 -122q16 7 31.5 9t31.5 2q38 0 75.5 -9t80.5 -9q29 0 61.5 8.5t70.5 32.5l-4 -23q-44 -23 -76.5 -31.5t-61.5 -8.5q-20 0 -39 3t-38.5 7t-40 7t-42.5 3q-26 0 -56.5 -5.5t-68.5 -19.5l-20 21q16 27 30 55.5t26 61.5t21.5 71.5t17.5 86.5h-38l5 36h32z
" />
    <glyph glyph-name="yen" unicode="&#xa5;" horiz-adv-x="386" 
d="M234 833l36 -432l197 432h43l-217 -464l-14 -91h107l-5 -35h-107l-11 -72h107l-6 -35h-107l-21 -136h-95l20 136h-108l5 35h108l11 72h-108l6 35h108l8 46l-57 509h100z" />
    <glyph glyph-name="dieresis" unicode="&#xa8;" horiz-adv-x="291" 
d="M349 841q16 0 26 -12.5t10 -30.5q0 -22 -16 -39.5t-35 -17.5q-17 0 -28 12t-11 30q0 23 17 40.5t37 17.5zM199 841q16 0 26 -12t10 -29q0 -23 -15.5 -41t-35.5 -18q-17 0 -27 11.5t-10 28.5q0 23 15.5 41.5t36.5 18.5z" />
    <glyph glyph-name="copyright" unicode="&#xa9;" horiz-adv-x="777" 
d="M37 411q0 85 32.5 160.5t89 132t131.5 89t161 32.5q85 0 160 -32.5t131 -89t88.5 -132t32.5 -160.5t-32.5 -160t-88.5 -131t-131 -88.5t-160 -32.5q-86 0 -161 32.5t-131.5 88.5t-89 131t-32.5 160zM452 779q-76 0 -143 -29.5t-116.5 -79.5t-78 -117t-28.5 -143
t28.5 -142.5t78 -116t116.5 -78t143 -28.5q75 0 142 28.5t116.5 78t78.5 116t29 142.5t-29 143t-78.5 117t-116.5 79.5t-142 29.5zM562 551q-11 20 -31 31.5t-52 13.5q-71 -5 -99.5 -51t-28.5 -134q0 -82 36 -130t103 -48q44 0 89 48l21 -8q-57 -61 -148 -61
q-92 0 -139.5 55t-49.5 151q13 195 211 195q45 0 73 -12t42 -43z" />
    <glyph glyph-name="ordfeminine" unicode="&#xaa;" horiz-adv-x="303" 
d="M303 670q-12 -37 -50 -49q-57 -19 -75 -50.5t-18 -78.5q0 -30 9.5 -52.5t35.5 -22.5q19 0 36.5 23t31.5 57l7 23zM164 787q48 57 121 57q45 0 68.5 -24t23.5 -58v-8.5t-1 -8.5l-43 -281q-3 -15 -3 -28q0 -17 6 -26h-60q-8 16 -8 33q0 5 0.5 10t1.5 10q-14 -26 -34 -46
t-57 -20q-45 0 -63.5 24t-18.5 62q0 57 32 99t108 61q26 6 43 19t27 40l6 32q0 2 0.5 5t0.5 6q0 13 -4.5 26.5t-12.5 24t-19 17t-24 6.5q-35 0 -71 -42z" />
    <glyph glyph-name="guillemotleft" unicode="&#xab;" horiz-adv-x="370" 
d="M268 474l-11 -70l-109 -53l93 -54l-11 -68l-140 87l9 67zM414 474l-10 -70l-110 -53l93 -54l-10 -68l-142 87l11 67z" />
    <glyph glyph-name="registered" unicode="&#xae;" horiz-adv-x="535" 
d="M158 604q0 -36 14 -70.5t40 -62t64 -44.5t85 -17q44 0 83.5 15t69 41t47 61.5t17.5 76.5q0 36 -16 70.5t-45 61.5t-69 43.5t-87 16.5t-85 -16.5t-64 -43.5t-40 -61.5t-14 -70.5zM110 604q0 48 18.5 91.5t52 76.5t80 52t101.5 19q56 0 103 -18.5t81 -51t53 -76t19 -93.5
q0 -47 -19.5 -90t-54 -75.5t-81.5 -52t-101 -19.5q-55 0 -101.5 19.5t-80 52t-52 75.5t-18.5 90zM387 734q30 0 50 -19.5t20 -47.5q0 -23 -12 -39t-38 -22q51 -5 51 -52v-49q0 -9 8.5 -13t16.5 -6v-11q-3 -1 -12.5 -1h-12.5q-30 0 -44.5 8.5t-14.5 22.5v63q0 24 -40 24h-36
v-113h-47v255h111zM323 622h35q40 0 40 39q0 29 -16.5 42.5t-37.5 13.5h-21v-95z" />
    <glyph glyph-name="degree" unicode="&#xb0;" horiz-adv-x="302" 
d="M107 694q0 33 12.5 60.5t33.5 47.5t48.5 31.5t57.5 11.5q29 0 56 -11.5t48 -31.5t34 -47.5t13 -60.5q0 -32 -13 -60t-34 -49t-48 -33t-56 -12t-56.5 11.5t-48.5 32t-34 48.5t-13 62zM161 694q0 -21 8.5 -39t22 -30.5t31 -19.5t36.5 -7q18 0 35 7t30 19.5t21 30.5t8 39
q0 45 -28.5 70t-65.5 25q-19 0 -36.5 -6.5t-31 -19t-22 -30t-8.5 -39.5z" />
    <glyph glyph-name="acute" unicode="&#xb4;" horiz-adv-x="196" 
d="M263 827q25 14 43 14q29 0 29 -23q0 -26 -35 -36l-142 -42l-10 23z" />
    <glyph glyph-name="periodcentered" unicode="&#xb7;" horiz-adv-x="155" 
d="M150 475q21 0 33.5 -14t12.5 -37q0 -15 -5 -28.5t-14 -24t-21 -17t-26 -6.5q-21 0 -34 15.5t-13 38.5q0 15 6 28.5t15.5 23.5t21.5 15.5t24 5.5z" />
    <glyph glyph-name="cedilla" unicode="&#xb8;" horiz-adv-x="163" 
d="M121 8l-16 -45q29 -1 45.5 -11.5t16.5 -32.5q0 -44 -37.5 -70.5t-116.5 -26.5l2 15q41 0 66 16.5t25 54.5q0 17 -10 28.5t-27 11.5l24 60h28z" />
    <glyph glyph-name="ordmasculine" unicode="&#xba;" horiz-adv-x="335" 
d="M305 844q47 0 69.5 -35.5t22.5 -102.5q0 -88 -16.5 -148.5t-44.5 -98t-64 -54t-75 -16.5q-95 0 -95 133q0 64 10.5 122t34.5 102.5t63 71t95 26.5zM268 820q-32 0 -54 -41.5t-38 -146.5q-5 -31 -7.5 -58t-2.5 -49q0 -56 15 -85t46 -29q18 0 33 9.5t27 32.5t22.5 61.5
t19.5 96.5q6 40 6 74q0 61 -18 98t-49 37z" />
    <glyph glyph-name="guillemotright" unicode="&#xbb;" horiz-adv-x="382" 
d="M412 387l-10 -66l-168 -92l10 70l109 54l-92 54l10 67zM266 387l-10 -66l-169 -92l10 70l110 54l-94 54l11 67z" />
    <glyph glyph-name="questiondown" unicode="&#xbf;" horiz-adv-x="364" 
d="M276 497l43 -146q3 -9 3 -19v-8t-1 -8q-3 -23 -21.5 -51t-44 -59.5t-54 -64t-52.5 -63.5t-40 -59t-16 -50q0 -21 8.5 -41t22 -35.5t31 -24.5t36.5 -9q66 0 129 75l16 -27q-33 -45 -86.5 -65t-110.5 -20q-70 0 -104.5 38t-34.5 94q0 13 3 30q5 34 26.5 70.5t51 73t62 73
t60.5 69.5t46 62.5t18 52.5q0 22 -21 102zM293 672q22 0 35 -14.5t13 -37.5q0 -15 -6 -28.5t-15.5 -24t-21.5 -16.5t-24 -6q-21 0 -34 15t-13 38q0 15 6 28.5t15 23.5t21 16t24 6z" />
    <glyph glyph-name="Agrave" unicode="&#xc0;" horiz-adv-x="402" 
d="M14 0zM387 833v-833h-95l-6 192h-173l-64 -192h-35l267 833h106zM123 216h163v523zM413 933l-17 -23l-128 42q-13 4 -19.5 8.5t-6.5 16.5q0 17 10.5 25.5t27.5 8.5q8 -2 18 -4t21 -10z" />
    <glyph glyph-name="Aacute" unicode="&#xc1;" horiz-adv-x="402" 
d="M14 0zM387 833v-833h-95l-6 192h-173l-64 -192h-35l267 833h106zM123 216h163v523zM390 997q25 14 43 14q29 0 29 -23q0 -26 -35 -36l-142 -42l-10 23z" />
    <glyph glyph-name="Acircumflex" unicode="&#xc2;" horiz-adv-x="402" 
d="M14 0zM387 833v-833h-95l-6 192h-173l-64 -192h-35l267 833h106zM123 216h163v523zM356 1011l71 -41q12 -7 18.5 -17t6.5 -18q0 -25 -24 -25q-14 0 -35.5 19t-42.5 42q-29 -23 -55 -42t-40 -19q-18 0 -18 14q0 27 37 46z" />
    <glyph glyph-name="Atilde" unicode="&#xc3;" horiz-adv-x="402" 
d="M14 0zM387 833v-833h-95l-6 192h-173l-64 -192h-35l267 833h106zM123 216h163v523zM216 921q9 43 33.5 66.5t57.5 23.5q20 0 33.5 -11t24 -23.5t20 -23.5t20.5 -11q13 0 27.5 11t23.5 46h27q-8 -42 -35 -65.5t-60 -23.5q-19 0 -32.5 11t-24 23.5t-19.5 23.5t-21 11
q-13 0 -24.5 -12t-23.5 -46h-27z" />
    <glyph glyph-name="Adieresis" unicode="&#xc4;" horiz-adv-x="402" 
d="M14 0zM387 833v-833h-95l-6 192h-173l-64 -192h-35l267 833h106zM123 216h163v523zM432 1011q16 0 26 -12.5t10 -30.5q0 -22 -16 -39.5t-35 -17.5q-17 0 -28 12t-11 30q0 23 17 40.5t37 17.5zM282 1011q16 0 26 -12t10 -29q0 -23 -15.5 -41t-35.5 -18q-17 0 -27 11.5
t-10 28.5q0 23 15.5 41.5t36.5 18.5z" />
    <glyph glyph-name="Aring" unicode="&#xc5;" horiz-adv-x="402" 
d="M14 0zM387 833v-833h-95l-6 192h-173l-64 -192h-35l267 833h106zM123 216h163v523zM266 928q0 18 7 33t18 26t26 17.5t31 6.5t31 -6.5t26.5 -17.5t18.5 -26t7 -33q0 -17 -7 -32.5t-18.5 -27t-26.5 -18t-31 -6.5q-32 0 -57 23.5t-25 60.5zM296 928q0 -24 16 -38t36 -14
t36 14t16 38q0 23 -16 37.5t-36 14.5t-36 -14.5t-16 -37.5z" />
    <glyph glyph-name="AE" unicode="&#xc6;" horiz-adv-x="455" 
d="M577 833l-4 -24h-172l-93 -593h98l-4 -24h-97l-26 -168h172l-3 -24h-283l30 192h-88l-65 -192h-35l263 833h307zM117 216h82l79 513z" />
    <glyph glyph-name="Ccedilla" unicode="&#xc7;" horiz-adv-x="480" 
d="M533 700q-5 23 -17.5 43.5t-29 35.5t-37 24t-41.5 9q-44 0 -86 -43t-76 -119t-54.5 -179.5t-20.5 -224.5q0 -105 26.5 -168.5t77.5 -63.5q20 0 42 9.5t43 25t41 35.5t36 42h37q-39 -66 -90 -99.5t-111 -41.5l-8 -22q29 -1 45.5 -11.5t16.5 -32.5q0 -44 -37.5 -70.5
t-117.5 -26.5l2 15q40 0 66 16.5t26 54.5q0 17 -10.5 28.5t-27.5 11.5l14 35q-88 0 -130.5 55t-42.5 180q0 44 5 95.5t15 112.5q15 101 41.5 179t67 130.5t96.5 79.5t132 27q56 0 92 -34.5t55 -96.5z" />
    <glyph glyph-name="Egrave" unicode="&#xc8;" horiz-adv-x="398" 
d="M31 0zM527 833l-4 -24h-272l-58 -379h157l-4 -23h-157l-59 -384h271l-3 -23h-367l128 833h368zM411 933l-17 -23l-128 42q-13 4 -19.5 8.5t-6.5 16.5q0 17 10.5 25.5t27.5 8.5q8 -2 18 -4t21 -10z" />
    <glyph glyph-name="Eacute" unicode="&#xc9;" horiz-adv-x="398" 
d="M31 0zM527 833l-4 -24h-272l-58 -379h157l-4 -23h-157l-59 -384h271l-3 -23h-367l128 833h368zM388 997q25 14 43 14q29 0 29 -23q0 -26 -35 -36l-142 -42l-10 23z" />
    <glyph glyph-name="Ecircumflex" unicode="&#xca;" horiz-adv-x="398" 
d="M31 0zM527 833l-4 -24h-272l-58 -379h157l-4 -23h-157l-59 -384h271l-3 -23h-367l128 833h368zM353 1011l71 -41q12 -7 18.5 -17t6.5 -18q0 -25 -24 -25q-14 0 -35.5 19t-42.5 42q-29 -23 -55 -42t-40 -19q-18 0 -18 14q0 27 37 46z" />
    <glyph glyph-name="Edieresis" unicode="&#xcb;" horiz-adv-x="398" 
d="M31 0zM527 833l-4 -24h-272l-58 -379h157l-4 -23h-157l-59 -384h271l-3 -23h-367l128 833h368zM431 1011q16 0 26 -12.5t10 -30.5q0 -22 -16 -39.5t-35 -17.5q-17 0 -28 12t-11 30q0 23 17 40.5t37 17.5zM281 1011q16 0 26 -12t10 -29q0 -23 -15.5 -41t-35.5 -18
q-17 0 -27 11.5t-10 28.5q0 23 15.5 41.5t36.5 18.5z" />
    <glyph glyph-name="Igrave" unicode="&#xcc;" horiz-adv-x="158" 
d="M30 0zM255 833l-129 -833h-96l128 833h97zM291 933l-17 -23l-128 42q-13 4 -19.5 8.5t-6.5 16.5q0 17 10.5 25.5t27.5 8.5q8 -2 18 -4t21 -10z" />
    <glyph glyph-name="Iacute" unicode="&#xcd;" horiz-adv-x="158" 
d="M30 0zM255 833l-129 -833h-96l128 833h97zM268 997q25 14 43 14q29 0 29 -23q0 -26 -35 -36l-142 -42l-10 23z" />
    <glyph glyph-name="Icircumflex" unicode="&#xce;" horiz-adv-x="158" 
d="M30 0zM255 833l-129 -833h-96l128 833h97zM236 1011l71 -41q12 -7 18.5 -17t6.5 -18q0 -25 -24 -25q-14 0 -35.5 19t-42.5 42q-29 -23 -55 -42t-40 -19q-18 0 -18 14q0 27 37 46z" />
    <glyph glyph-name="Idieresis" unicode="&#xcf;" horiz-adv-x="158" 
d="M30 0zM255 833l-129 -833h-96l128 833h97zM313 1011q16 0 26 -12.5t10 -30.5q0 -22 -16 -39.5t-35 -17.5q-17 0 -28 12t-11 30q0 23 17 40.5t37 17.5zM163 1011q16 0 26 -12t10 -29q0 -23 -15.5 -41t-35.5 -18q-17 0 -27 11.5t-10 28.5q0 23 15.5 41.5t36.5 18.5z" />
    <glyph glyph-name="Eth" unicode="&#xd0;" horiz-adv-x="506" 
d="M392 833q40 0 71 -20t52.5 -56.5t32.5 -87.5t11 -114q0 -31 -3 -64t-8 -68q-19 -121 -48 -202.5t-73 -130.5t-106.5 -69.5t-148.5 -20.5h-141l60 395h-30l8 57h30l60 381h233zM195 452h122l-9 -57h-122l-57 -372h92q82 0 141.5 101.5t89.5 298.5q5 33 7.5 63t2.5 58
q0 59 -10.5 108t-31.5 84t-52 54t-71 19h-47z" />
    <glyph glyph-name="Ntilde" unicode="&#xd1;" horiz-adv-x="434" 
d="M30 0zM242 833l162 -567l88 567h40l-131 -850h-13l-209 721l-109 -703h-40l128 832h84zM231 921q9 43 33.5 66.5t57.5 23.5q20 0 33.5 -11t24 -23.5t20 -23.5t20.5 -11q13 0 27.5 11t23.5 46h27q-8 -42 -35 -65.5t-60 -23.5q-19 0 -32.5 11t-24 23.5t-19.5 23.5t-21 11
q-13 0 -24.5 -12t-23.5 -46h-27z" />
    <glyph glyph-name="Ograve" unicode="&#xd2;" 
d="M70 0zM443 842q87 0 130 -62t43 -184q0 -35 -3.5 -74t-10.5 -84q-19 -121 -47.5 -207t-71.5 -141t-102.5 -81t-139.5 -26q-86 0 -128.5 55t-42.5 182q0 43 5 94t15 112q16 102 43 180t69 130.5t101 79t140 26.5zM408 810q-42 0 -84 -42t-75.5 -117t-54.5 -178t-21 -225
q0 -53 6.5 -96.5t20 -74t33 -47.5t45.5 -17q43 0 85 44.5t74.5 122.5t52.5 183.5t20 227.5q0 103 -25.5 161t-76.5 58zM492 933l-17 -23l-128 42q-13 4 -19.5 8.5t-6.5 16.5q0 17 10.5 25.5t27.5 8.5q8 -2 18 -4t21 -10z" />
    <glyph glyph-name="Oacute" unicode="&#xd3;" 
d="M70 0zM443 842q87 0 130 -62t43 -184q0 -35 -3.5 -74t-10.5 -84q-19 -121 -47.5 -207t-71.5 -141t-102.5 -81t-139.5 -26q-86 0 -128.5 55t-42.5 182q0 43 5 94t15 112q16 102 43 180t69 130.5t101 79t140 26.5zM408 810q-42 0 -84 -42t-75.5 -117t-54.5 -178t-21 -225
q0 -53 6.5 -96.5t20 -74t33 -47.5t45.5 -17q43 0 85 44.5t74.5 122.5t52.5 183.5t20 227.5q0 103 -25.5 161t-76.5 58zM469 997q25 14 43 14q29 0 29 -23q0 -26 -35 -36l-142 -42l-10 23z" />
    <glyph glyph-name="Ocircumflex" unicode="&#xd4;" 
d="M70 0zM443 842q87 0 130 -62t43 -184q0 -35 -3.5 -74t-10.5 -84q-19 -121 -47.5 -207t-71.5 -141t-102.5 -81t-139.5 -26q-86 0 -128.5 55t-42.5 182q0 43 5 94t15 112q16 102 43 180t69 130.5t101 79t140 26.5zM408 810q-42 0 -84 -42t-75.5 -117t-54.5 -178t-21 -225
q0 -53 6.5 -96.5t20 -74t33 -47.5t45.5 -17q43 0 85 44.5t74.5 122.5t52.5 183.5t20 227.5q0 103 -25.5 161t-76.5 58zM434 1011l71 -41q12 -7 18.5 -17t6.5 -18q0 -25 -24 -25q-14 0 -35.5 19t-42.5 42q-29 -23 -55 -42t-40 -19q-18 0 -18 14q0 27 37 46z" />
    <glyph glyph-name="Otilde" unicode="&#xd5;" 
d="M70 0zM443 842q87 0 130 -62t43 -184q0 -35 -3.5 -74t-10.5 -84q-19 -121 -47.5 -207t-71.5 -141t-102.5 -81t-139.5 -26q-86 0 -128.5 55t-42.5 182q0 43 5 94t15 112q16 102 43 180t69 130.5t101 79t140 26.5zM408 810q-42 0 -84 -42t-75.5 -117t-54.5 -178t-21 -225
q0 -53 6.5 -96.5t20 -74t33 -47.5t45.5 -17q43 0 85 44.5t74.5 122.5t52.5 183.5t20 227.5q0 103 -25.5 161t-76.5 58zM294 921q9 43 33.5 66.5t57.5 23.5q20 0 33.5 -11t24 -23.5t20 -23.5t20.5 -11q13 0 27.5 11t23.5 46h27q-8 -42 -35 -65.5t-60 -23.5q-19 0 -32.5 11
t-24 23.5t-19.5 23.5t-21 11q-13 0 -24.5 -12t-23.5 -46h-27z" />
    <glyph glyph-name="Odieresis" unicode="&#xd6;" 
d="M70 0zM443 842q87 0 130 -62t43 -184q0 -35 -3.5 -74t-10.5 -84q-19 -121 -47.5 -207t-71.5 -141t-102.5 -81t-139.5 -26q-86 0 -128.5 55t-42.5 182q0 43 5 94t15 112q16 102 43 180t69 130.5t101 79t140 26.5zM408 810q-42 0 -84 -42t-75.5 -117t-54.5 -178t-21 -225
q0 -53 6.5 -96.5t20 -74t33 -47.5t45.5 -17q43 0 85 44.5t74.5 122.5t52.5 183.5t20 227.5q0 103 -25.5 161t-76.5 58zM511 1011q16 0 26 -12.5t10 -30.5q0 -22 -16 -39.5t-35 -17.5q-17 0 -28 12t-11 30q0 23 17 40.5t37 17.5zM361 1011q16 0 26 -12t10 -29
q0 -23 -15.5 -41t-35.5 -18q-17 0 -27 11.5t-10 28.5q0 23 15.5 41.5t36.5 18.5z" />
    <glyph glyph-name="multiply" unicode="&#xd7;" horiz-adv-x="283" 
d="M345 504l-87 -87l87 -86l-33 -32l-87 87l-92 -94l-38 38l94 93l-84 84l32 31l84 -83l86 86z" />
    <glyph glyph-name="Oslash" unicode="&#xd8;" 
d="M592 855l-33 -60q29 -30 43 -80t14 -119q0 -35 -3.5 -74t-10.5 -84q-19 -121 -47.5 -207t-71.5 -141t-102.5 -81t-139.5 -26q-60 0 -100 26l-29 -54l-33 19l33 64q-42 57 -42 181q0 43 5 94.5t15 112.5q16 102 43 180t69 130.5t101 79t140 26.5q47 0 85 -21l27 53z
M191 102q13 -42 34 -65.5t53 -23.5q43 0 85 44.5t74.5 122.5t52.5 183.5t20 227.5q0 27 -1.5 51.5t-6.5 44.5zM487 745q-28 65 -79 65q-43 0 -85 -42.5t-75.5 -118t-54 -179.5t-20.5 -227q0 -21 1.5 -41.5t3.5 -38.5z" />
    <glyph glyph-name="Ugrave" unicode="&#xd9;" horiz-adv-x="430" 
d="M46 0zM254 833l-105 -675q-1 -5 -1.5 -10.5t-0.5 -10.5q0 -26 9 -48t24.5 -38t37 -25.5t45.5 -9.5q48 0 80 35.5t41 92.5l107 689h40l-102 -658q-11 -66 -37 -104.5t-60.5 -58t-73 -24.5t-72.5 -5q-140 0 -140 121q0 9 1 19t3 21l108 689h96zM428 933l-17 -23l-128 42
q-13 4 -19.5 8.5t-6.5 16.5q0 17 10.5 25.5t27.5 8.5q8 -2 18 -4t21 -10z" />
    <glyph glyph-name="Uacute" unicode="&#xda;" horiz-adv-x="430" 
d="M46 0zM254 833l-105 -675q-1 -5 -1.5 -10.5t-0.5 -10.5q0 -26 9 -48t24.5 -38t37 -25.5t45.5 -9.5q48 0 80 35.5t41 92.5l107 689h40l-102 -658q-11 -66 -37 -104.5t-60.5 -58t-73 -24.5t-72.5 -5q-140 0 -140 121q0 9 1 19t3 21l108 689h96zM405 997q25 14 43 14
q29 0 29 -23q0 -26 -35 -36l-142 -42l-10 23z" />
    <glyph glyph-name="Ucircumflex" unicode="&#xdb;" horiz-adv-x="430" 
d="M46 0zM254 833l-105 -675q-1 -5 -1.5 -10.5t-0.5 -10.5q0 -26 9 -48t24.5 -38t37 -25.5t45.5 -9.5q48 0 80 35.5t41 92.5l107 689h40l-102 -658q-11 -66 -37 -104.5t-60.5 -58t-73 -24.5t-72.5 -5q-140 0 -140 121q0 9 1 19t3 21l108 689h96zM370 1011l71 -41
q12 -7 18.5 -17t6.5 -18q0 -25 -24 -25q-14 0 -35.5 19t-42.5 42q-29 -23 -55 -42t-40 -19q-18 0 -18 14q0 27 37 46z" />
    <glyph glyph-name="Udieresis" unicode="&#xdc;" horiz-adv-x="430" 
d="M46 0zM254 833l-105 -675q-1 -5 -1.5 -10.5t-0.5 -10.5q0 -26 9 -48t24.5 -38t37 -25.5t45.5 -9.5q48 0 80 35.5t41 92.5l107 689h40l-102 -658q-11 -66 -37 -104.5t-60.5 -58t-73 -24.5t-72.5 -5q-140 0 -140 121q0 9 1 19t3 21l108 689h96zM446 1011q16 0 26 -12.5
t10 -30.5q0 -22 -16 -39.5t-35 -17.5q-17 0 -28 12t-11 30q0 23 17 40.5t37 17.5zM296 1011q16 0 26 -12t10 -29q0 -23 -15.5 -41t-35.5 -18q-17 0 -27 11.5t-10 28.5q0 23 15.5 41.5t36.5 18.5z" />
    <glyph glyph-name="Yacute" unicode="&#xdd;" horiz-adv-x="386" 
d="M134 0zM234 833l53 -315l180 315h43l-198 -347l-76 -486h-95l67 441l-74 392h100zM382 997q25 14 43 14q29 0 29 -23q0 -26 -35 -36l-142 -42l-10 23z" />
    <glyph glyph-name="Thorn" unicode="&#xde;" horiz-adv-x="409" 
d="M254 833l-25 -155h142q24 0 44.5 -12t35.5 -32t23.5 -45.5t8.5 -51.5q0 -7 -0.5 -13t-1.5 -12l-18 -123q-6 -41 -29 -75t-57.5 -58t-78.5 -37t-91 -13h-51l-31 -206h-95l128 833h96zM160 229h67q20 0 42.5 15t42.5 37t34.5 47.5t17.5 46.5l20 122q1 6 1 11.5v11.5
q0 26 -7.5 50.5t-22 43t-34 30t-43.5 11.5h-52z" />
    <glyph glyph-name="germandbls" unicode="&#xdf;" horiz-adv-x="427" 
d="M124 0h-96l104 674q14 89 70.5 133t147.5 44q63 0 96 -44.5t33 -116.5q0 -47 -9.5 -87t-25 -72t-34.5 -56.5t-38 -40.5q37 -10 56.5 -44.5t19.5 -82.5q0 -65 -22.5 -121.5t-60.5 -98.5t-88 -66t-104 -24l3 19q31 0 61.5 27t54.5 68.5t38.5 90t14.5 90.5q0 54 -24.5 87
t-72.5 33q36 11 64 39t47.5 66.5t29.5 85.5t10 96q0 60 -19 90.5t-48 30.5q-38 0 -65.5 -37.5t-36.5 -94.5z" />
    <glyph glyph-name="agrave" unicode="&#xe0;" horiz-adv-x="442" 
d="M50 0zM513 643l-100 -643h-66l-4 102q-22 -54 -68 -86.5t-98 -32.5q-64 0 -95.5 53.5t-31.5 153.5t20.5 188.5t56.5 154.5t85.5 104.5t108.5 38.5q38 0 64 -24t37 -66l50 90zM394 499q1 5 1 9.5v9.5q0 19 -5 42t-15 42.5t-24.5 32.5t-33.5 13q-57 0 -97 -85.5t-63 -237.5
q-8 -45 -11 -82.5t-3 -68.5q0 -75 20 -108.5t58 -33.5q22 0 43.5 15t38.5 40t29 56t17 64zM395 763l-17 -23l-128 42q-13 4 -19.5 8.5t-6.5 16.5q0 17 10.5 25.5t27.5 8.5q8 -2 18 -4t21 -10z" />
    <glyph glyph-name="aacute" unicode="&#xe1;" horiz-adv-x="442" 
d="M50 0zM513 643l-100 -643h-66l-4 102q-22 -54 -68 -86.5t-98 -32.5q-64 0 -95.5 53.5t-31.5 153.5t20.5 188.5t56.5 154.5t85.5 104.5t108.5 38.5q38 0 64 -24t37 -66l50 90zM394 499q1 5 1 9.5v9.5q0 19 -5 42t-15 42.5t-24.5 32.5t-33.5 13q-57 0 -97 -85.5t-63 -237.5
q-8 -45 -11 -82.5t-3 -68.5q0 -75 20 -108.5t58 -33.5q22 0 43.5 15t38.5 40t29 56t17 64zM372 827q25 14 43 14q29 0 29 -23q0 -26 -35 -36l-142 -42l-10 23z" />
    <glyph glyph-name="acircumflex" unicode="&#xe2;" horiz-adv-x="442" 
d="M50 0zM513 643l-100 -643h-66l-4 102q-22 -54 -68 -86.5t-98 -32.5q-64 0 -95.5 53.5t-31.5 153.5t20.5 188.5t56.5 154.5t85.5 104.5t108.5 38.5q38 0 64 -24t37 -66l50 90zM394 499q1 5 1 9.5v9.5q0 19 -5 42t-15 42.5t-24.5 32.5t-33.5 13q-57 0 -97 -85.5t-63 -237.5
q-8 -45 -11 -82.5t-3 -68.5q0 -75 20 -108.5t58 -33.5q22 0 43.5 15t38.5 40t29 56t17 64zM339 841l71 -41q12 -7 18.5 -17t6.5 -18q0 -25 -24 -25q-14 0 -35.5 19t-42.5 42q-29 -23 -55 -42t-40 -19q-18 0 -18 14q0 27 37 46z" />
    <glyph glyph-name="atilde" unicode="&#xe3;" horiz-adv-x="442" 
d="M50 0zM513 643l-100 -643h-66l-4 102q-22 -54 -68 -86.5t-98 -32.5q-64 0 -95.5 53.5t-31.5 153.5t20.5 188.5t56.5 154.5t85.5 104.5t108.5 38.5q38 0 64 -24t37 -66l50 90zM394 499q1 5 1 9.5v9.5q0 19 -5 42t-15 42.5t-24.5 32.5t-33.5 13q-57 0 -97 -85.5t-63 -237.5
q-8 -45 -11 -82.5t-3 -68.5q0 -75 20 -108.5t58 -33.5q22 0 43.5 15t38.5 40t29 56t17 64zM197 751q9 43 33.5 66.5t57.5 23.5q20 0 33.5 -11t24 -23.5t20 -23.5t20.5 -11q13 0 27.5 11t23.5 46h27q-8 -42 -35 -65.5t-60 -23.5q-19 0 -32.5 11t-24 23.5t-19.5 23.5t-21 11
q-13 0 -24.5 -12t-23.5 -46h-27z" />
    <glyph glyph-name="adieresis" unicode="&#xe4;" horiz-adv-x="442" 
d="M50 0zM513 643l-100 -643h-66l-4 102q-22 -54 -68 -86.5t-98 -32.5q-64 0 -95.5 53.5t-31.5 153.5t20.5 188.5t56.5 154.5t85.5 104.5t108.5 38.5q38 0 64 -24t37 -66l50 90zM394 499q1 5 1 9.5v9.5q0 19 -5 42t-15 42.5t-24.5 32.5t-33.5 13q-57 0 -97 -85.5t-63 -237.5
q-8 -45 -11 -82.5t-3 -68.5q0 -75 20 -108.5t58 -33.5q22 0 43.5 15t38.5 40t29 56t17 64zM414 841q16 0 26 -12.5t10 -30.5q0 -22 -16 -39.5t-35 -17.5q-17 0 -28 12t-11 30q0 23 17 40.5t37 17.5zM264 841q16 0 26 -12t10 -29q0 -23 -15.5 -41t-35.5 -18q-17 0 -27 11.5
t-10 28.5q0 23 15.5 41.5t36.5 18.5z" />
    <glyph glyph-name="aring" unicode="&#xe5;" horiz-adv-x="442" 
d="M50 0zM513 643l-100 -643h-66l-4 102q-22 -54 -68 -86.5t-98 -32.5q-64 0 -95.5 53.5t-31.5 153.5t20.5 188.5t56.5 154.5t85.5 104.5t108.5 38.5q38 0 64 -24t37 -66l50 90zM394 499q1 5 1 9.5v9.5q0 19 -5 42t-15 42.5t-24.5 32.5t-33.5 13q-57 0 -97 -85.5t-63 -237.5
q-8 -45 -11 -82.5t-3 -68.5q0 -75 20 -108.5t58 -33.5q22 0 43.5 15t38.5 40t29 56t17 64zM282 795q0 18 7 33t18 26t26 17.5t31 6.5t31 -6.5t26.5 -17.5t18.5 -26t7 -33q0 -17 -7 -32.5t-18.5 -27t-26.5 -18t-31 -6.5q-32 0 -57 23.5t-25 60.5zM312 795q0 -24 16 -38
t36 -14t36 14t16 38q0 23 -16 37.5t-36 14.5t-36 -14.5t-16 -37.5z" />
    <glyph glyph-name="ae" unicode="&#xe6;" horiz-adv-x="735" 
d="M146 569q38 45 86.5 76t105.5 31q53 0 84 -29.5t45 -71.5q32 49 77 75t89 26q82 0 115 -33.5t33 -96.5q0 -39 -16 -67.5t-53.5 -48.5t-99 -31.5t-152.5 -15.5q-8 -37 -12.5 -80.5t-4.5 -79.5q0 -44 6.5 -82t19.5 -66t32.5 -43.5t45.5 -15.5q21 0 42.5 8.5t41 22.5
t36.5 32.5t30 38.5l19 -13q-17 -26 -35.5 -48t-41 -38.5t-48.5 -26t-58 -9.5q-35 0 -62.5 14.5t-48 41t-34 63.5t-21.5 82q-16 -42 -34 -78.5t-41 -63.5t-53 -43t-69 -16q-35 0 -59.5 11t-39.5 29.5t-21.5 43t-6.5 51.5q0 62 16.5 101.5t45.5 65t68.5 40.5t86.5 27
q39 10 65 26.5t39 38.5q4 26 6 41.5t3 25t1.5 14t0.5 8.5q0 24 -6 47.5t-17.5 42t-27.5 30t-36 11.5q-28 0 -56.5 -25t-56.5 -59zM472 414q76 6 123.5 20.5t74 33t36 40.5t9.5 45q0 46 -20.5 67t-60.5 21q-23 0 -46.5 -18t-44.5 -49t-39.5 -72.5t-31.5 -87.5zM358 380
q-20 -38 -74 -60q-45 -18 -73 -33t-43.5 -33.5t-20.5 -45t-5 -66.5q0 -23 4 -44.5t12.5 -38t20.5 -26.5t28 -10q23 0 44 18.5t38 50t29.5 73t19.5 86.5z" />
    <glyph glyph-name="ccedilla" unicode="&#xe7;" horiz-adv-x="408" 
d="M435 568q-8 34 -26 54.5t-52 20.5q-40 0 -70 -20.5t-53 -59.5t-39.5 -96.5t-28.5 -132.5q-5 -32 -7 -61.5t-2 -55.5q0 -91 28 -144.5t86 -53.5q24 0 53 27t60 66l19 -12q-17 -25 -33 -45.5t-35 -35.5t-43 -24t-57 -11l-7 -21q29 -1 45.5 -11.5t16.5 -32.5
q0 -44 -37.5 -70.5t-116.5 -26.5l2 15q40 0 65.5 16.5t25.5 54.5q0 17 -10 28.5t-27 11.5l14 36q-73 6 -110.5 70.5t-37.5 167.5q0 112 24 196.5t64.5 141t94 84.5t113.5 28q50 0 77.5 -20t35.5 -71z" />
    <glyph glyph-name="egrave" unicode="&#xe8;" horiz-adv-x="453" 
d="M61 0zM182 373q0 -2 -3 -18t-6 -39.5t-5.5 -50t-2.5 -47.5q0 -41 5.5 -77t18.5 -63t33.5 -43t49.5 -16q25 0 53 27t60 66l20 -12q-20 -26 -39 -47t-39.5 -37t-45.5 -24.5t-57 -8.5q-39 0 -69.5 18t-51.5 50.5t-31.5 76t-10.5 94.5q0 90 26 172t68.5 145t97 100t112.5 37
q75 0 105.5 -25.5t30.5 -83.5q0 -35 -18 -67.5t-57 -59t-99.5 -44.5t-144.5 -23zM193 414q64 7 108.5 22t73 35.5t41.5 43.5t13 46q0 12 -2.5 26t-10 26t-21.5 20t-36 8q-32 0 -58 -22.5t-46.5 -56.5t-36 -74t-25.5 -74zM412 763l-17 -23l-128 42q-13 4 -19.5 8.5t-6.5 16.5
q0 17 10.5 25.5t27.5 8.5q8 -2 18 -4t21 -10z" />
    <glyph glyph-name="eacute" unicode="&#xe9;" horiz-adv-x="453" 
d="M61 0zM182 373q0 -2 -3 -18t-6 -39.5t-5.5 -50t-2.5 -47.5q0 -41 5.5 -77t18.5 -63t33.5 -43t49.5 -16q25 0 53 27t60 66l20 -12q-20 -26 -39 -47t-39.5 -37t-45.5 -24.5t-57 -8.5q-39 0 -69.5 18t-51.5 50.5t-31.5 76t-10.5 94.5q0 90 26 172t68.5 145t97 100t112.5 37
q75 0 105.5 -25.5t30.5 -83.5q0 -35 -18 -67.5t-57 -59t-99.5 -44.5t-144.5 -23zM193 414q64 7 108.5 22t73 35.5t41.5 43.5t13 46q0 12 -2.5 26t-10 26t-21.5 20t-36 8q-32 0 -58 -22.5t-46.5 -56.5t-36 -74t-25.5 -74zM389 827q25 14 43 14q29 0 29 -23q0 -26 -35 -36
l-142 -42l-10 23z" />
    <glyph glyph-name="ecircumflex" unicode="&#xea;" horiz-adv-x="453" 
d="M61 0zM182 373q0 -2 -3 -18t-6 -39.5t-5.5 -50t-2.5 -47.5q0 -41 5.5 -77t18.5 -63t33.5 -43t49.5 -16q25 0 53 27t60 66l20 -12q-20 -26 -39 -47t-39.5 -37t-45.5 -24.5t-57 -8.5q-39 0 -69.5 18t-51.5 50.5t-31.5 76t-10.5 94.5q0 90 26 172t68.5 145t97 100t112.5 37
q75 0 105.5 -25.5t30.5 -83.5q0 -35 -18 -67.5t-57 -59t-99.5 -44.5t-144.5 -23zM193 414q64 7 108.5 22t73 35.5t41.5 43.5t13 46q0 12 -2.5 26t-10 26t-21.5 20t-36 8q-32 0 -58 -22.5t-46.5 -56.5t-36 -74t-25.5 -74zM355 841l71 -41q12 -7 18.5 -17t6.5 -18
q0 -25 -24 -25q-14 0 -35.5 19t-42.5 42q-29 -23 -55 -42t-40 -19q-18 0 -18 14q0 27 37 46z" />
    <glyph glyph-name="edieresis" unicode="&#xeb;" horiz-adv-x="453" 
d="M61 0zM182 373q0 -2 -3 -18t-6 -39.5t-5.5 -50t-2.5 -47.5q0 -41 5.5 -77t18.5 -63t33.5 -43t49.5 -16q25 0 53 27t60 66l20 -12q-20 -26 -39 -47t-39.5 -37t-45.5 -24.5t-57 -8.5q-39 0 -69.5 18t-51.5 50.5t-31.5 76t-10.5 94.5q0 90 26 172t68.5 145t97 100t112.5 37
q75 0 105.5 -25.5t30.5 -83.5q0 -35 -18 -67.5t-57 -59t-99.5 -44.5t-144.5 -23zM193 414q64 7 108.5 22t73 35.5t41.5 43.5t13 46q0 12 -2.5 26t-10 26t-21.5 20t-36 8q-32 0 -58 -22.5t-46.5 -56.5t-36 -74t-25.5 -74zM432 841q16 0 26 -12.5t10 -30.5q0 -22 -16 -39.5
t-35 -17.5q-17 0 -28 12t-11 30q0 23 17 40.5t37 17.5zM282 841q16 0 26 -12t10 -29q0 -23 -15.5 -41t-35.5 -18q-17 0 -27 11.5t-10 28.5q0 23 15.5 41.5t36.5 18.5z" />
    <glyph glyph-name="igrave" unicode="&#xec;" horiz-adv-x="156" 
d="M29 1zM227 663l-102 -662h-96l97 628zM265 763l-17 -23l-128 42q-13 4 -19.5 8.5t-6.5 16.5q0 17 10.5 25.5t27.5 8.5q8 -2 18 -4t21 -10z" />
    <glyph glyph-name="iacute" unicode="&#xed;" horiz-adv-x="156" 
d="M29 1zM227 663l-102 -662h-96l97 628zM250 827q25 14 43 14q29 0 29 -23q0 -26 -35 -36l-142 -42l-10 23z" />
    <glyph glyph-name="icircumflex" unicode="&#xee;" horiz-adv-x="156" 
d="M29 1zM227 663l-102 -662h-96l97 628zM209 841l71 -41q12 -7 18.5 -17t6.5 -18q0 -25 -24 -25q-14 0 -35.5 19t-42.5 42q-29 -23 -55 -42t-40 -19q-18 0 -18 14q0 27 37 46z" />
    <glyph glyph-name="idieresis" unicode="&#xef;" horiz-adv-x="156" 
d="M29 1zM227 663l-102 -662h-96l97 628zM285 841q16 0 26 -12.5t10 -30.5q0 -22 -16 -39.5t-35 -17.5q-17 0 -28 12t-11 30q0 23 17 40.5t37 17.5zM135 841q16 0 26 -12t10 -29q0 -23 -15.5 -41t-35.5 -18q-17 0 -27 11.5t-10 28.5q0 23 15.5 41.5t36.5 18.5z" />
    <glyph glyph-name="eth" unicode="&#xf0;" horiz-adv-x="415" 
d="M227 842q54 -19 92 -50t65 -72l87 69l18 -32l-85 -70q27 -53 39 -115t12 -129q0 -113 -19.5 -198.5t-54 -142.5t-81 -86t-101.5 -29q-75 0 -115 47.5t-40 135.5q0 61 16.5 117t46 99t71 69t91.5 26q74 0 107 -72q3 33 3 67q0 97 -23 172l-86 -70l-19 33l92 74
q-21 47 -51.5 79.5t-72.5 46.5zM368 371q-22 43 -69 43q-42 0 -76 -25t-58 -64.5t-37.5 -89.5t-13.5 -101q0 -53 19 -85t57 -32q30 0 57 21.5t49 60t39 91.5t26 116q3 18 5 34.5t2 30.5z" />
    <glyph glyph-name="ntilde" unicode="&#xf1;" horiz-adv-x="429" 
d="M29 0zM226 663l-14 -94q19 51 57 79t86 28q58 0 93 -35t35 -95q0 -15 -3 -33l-78 -513h-96l77 497q2 9 2 18t1 17q0 47 -20 75.5t-55 28.5q-17 0 -35 -11t-33 -29.5t-26 -42.5t-15 -50l-78 -503h-95l97 629zM204 751q9 43 33.5 66.5t57.5 23.5q20 0 33.5 -11t24 -23.5
t20 -23.5t20.5 -11q13 0 27.5 11t23.5 46h27q-8 -42 -35 -65.5t-60 -23.5q-19 0 -32.5 11t-24 23.5t-19.5 23.5t-21 11q-13 0 -24.5 -12t-23.5 -46h-27z" />
    <glyph glyph-name="ograve" unicode="&#xf2;" horiz-adv-x="472" 
d="M61 0zM370 676q72 0 107 -54t35 -156q0 -29 -2.5 -61.5t-8.5 -68.5q-15 -98 -42 -165t-64.5 -109t-84.5 -60.5t-104 -18.5q-75 0 -110 50t-35 153q0 98 16.5 187t53 156.5t95.5 107t144 39.5zM314 639q-24 0 -44.5 -14.5t-37.5 -48.5t-32 -88.5t-27 -134.5
q-15 -95 -15 -162q0 -86 23 -130t71 -44q27 0 50 14.5t42 49t34.5 93t29.5 147.5q5 29 6.5 57.5t1.5 54.5q0 93 -27 149.5t-75 56.5zM422 763l-17 -23l-128 42q-13 4 -19.5 8.5t-6.5 16.5q0 17 10.5 25.5t27.5 8.5q8 -2 18 -4t21 -10z" />
    <glyph glyph-name="oacute" unicode="&#xf3;" horiz-adv-x="472" 
d="M61 0zM370 676q72 0 107 -54t35 -156q0 -29 -2.5 -61.5t-8.5 -68.5q-15 -98 -42 -165t-64.5 -109t-84.5 -60.5t-104 -18.5q-75 0 -110 50t-35 153q0 98 16.5 187t53 156.5t95.5 107t144 39.5zM314 639q-24 0 -44.5 -14.5t-37.5 -48.5t-32 -88.5t-27 -134.5
q-15 -95 -15 -162q0 -86 23 -130t71 -44q27 0 50 14.5t42 49t34.5 93t29.5 147.5q5 29 6.5 57.5t1.5 54.5q0 93 -27 149.5t-75 56.5zM399 827q25 14 43 14q29 0 29 -23q0 -26 -35 -36l-142 -42l-10 23z" />
    <glyph glyph-name="ocircumflex" unicode="&#xf4;" horiz-adv-x="472" 
d="M61 0zM370 676q72 0 107 -54t35 -156q0 -29 -2.5 -61.5t-8.5 -68.5q-15 -98 -42 -165t-64.5 -109t-84.5 -60.5t-104 -18.5q-75 0 -110 50t-35 153q0 98 16.5 187t53 156.5t95.5 107t144 39.5zM314 639q-24 0 -44.5 -14.5t-37.5 -48.5t-32 -88.5t-27 -134.5
q-15 -95 -15 -162q0 -86 23 -130t71 -44q27 0 50 14.5t42 49t34.5 93t29.5 147.5q5 29 6.5 57.5t1.5 54.5q0 93 -27 149.5t-75 56.5zM365 841l71 -41q12 -7 18.5 -17t6.5 -18q0 -25 -24 -25q-14 0 -35.5 19t-42.5 42q-29 -23 -55 -42t-40 -19q-18 0 -18 14q0 27 37 46z" />
    <glyph glyph-name="otilde" unicode="&#xf5;" horiz-adv-x="472" 
d="M61 0zM370 676q72 0 107 -54t35 -156q0 -29 -2.5 -61.5t-8.5 -68.5q-15 -98 -42 -165t-64.5 -109t-84.5 -60.5t-104 -18.5q-75 0 -110 50t-35 153q0 98 16.5 187t53 156.5t95.5 107t144 39.5zM314 639q-24 0 -44.5 -14.5t-37.5 -48.5t-32 -88.5t-27 -134.5
q-15 -95 -15 -162q0 -86 23 -130t71 -44q27 0 50 14.5t42 49t34.5 93t29.5 147.5q5 29 6.5 57.5t1.5 54.5q0 93 -27 149.5t-75 56.5zM225 751q9 43 33.5 66.5t57.5 23.5q20 0 33.5 -11t24 -23.5t20 -23.5t20.5 -11q13 0 27.5 11t23.5 46h27q-8 -42 -35 -65.5t-60 -23.5
q-19 0 -32.5 11t-24 23.5t-19.5 23.5t-21 11q-13 0 -24.5 -12t-23.5 -46h-27z" />
    <glyph glyph-name="odieresis" unicode="&#xf6;" horiz-adv-x="472" 
d="M61 0zM370 676q72 0 107 -54t35 -156q0 -29 -2.5 -61.5t-8.5 -68.5q-15 -98 -42 -165t-64.5 -109t-84.5 -60.5t-104 -18.5q-75 0 -110 50t-35 153q0 98 16.5 187t53 156.5t95.5 107t144 39.5zM314 639q-24 0 -44.5 -14.5t-37.5 -48.5t-32 -88.5t-27 -134.5
q-15 -95 -15 -162q0 -86 23 -130t71 -44q27 0 50 14.5t42 49t34.5 93t29.5 147.5q5 29 6.5 57.5t1.5 54.5q0 93 -27 149.5t-75 56.5zM441 841q16 0 26 -12.5t10 -30.5q0 -22 -16 -39.5t-35 -17.5q-17 0 -28 12t-11 30q0 23 17 40.5t37 17.5zM291 841q16 0 26 -12t10 -29
q0 -23 -15.5 -41t-35.5 -18q-17 0 -27 11.5t-10 28.5q0 23 15.5 41.5t36.5 18.5z" />
    <glyph glyph-name="divide" unicode="&#xf7;" horiz-adv-x="283" 
d="M356 443v-44h-293v44h293zM213 654q26 0 44.5 -19t18.5 -45q0 -27 -18.5 -45.5t-44.5 -18.5q-28 0 -45.5 18.5t-17.5 45.5q0 26 17.5 45t45.5 19zM213 316q26 0 44.5 -18.5t18.5 -45.5q0 -26 -18.5 -44.5t-44.5 -18.5q-28 0 -45.5 18.5t-17.5 44.5q0 27 17.5 45.5
t45.5 18.5z" />
    <glyph glyph-name="oslash" unicode="&#xf8;" horiz-adv-x="472" 
d="M509 682l-35 -58q38 -55 38 -162q0 -29 -3 -60t-8 -66q-15 -98 -42 -165t-64.5 -109t-84.5 -60.5t-104 -18.5q-61 0 -94 33l-30 -52l-26 18l35 59q-16 25 -23 60t-7 82q0 99 16 188t53 157t95.5 108t144.5 40q48 0 81 -27l30 51zM167 107q18 -90 85 -90q27 0 50 14.5
t42 49t34.5 93t29.5 147.5q5 29 6 56.5t1 53.5q0 23 -1.5 44t-3.5 40zM399 560q-14 37 -35 58t-50 21q-24 0 -44.5 -14.5t-37.5 -48.5t-32 -88.5t-27 -134.5q-7 -45 -11 -84t-4 -72q0 -11 0.5 -20.5t1.5 -18.5z" />
    <glyph glyph-name="ugrave" unicode="&#xf9;" horiz-adv-x="429" 
d="M49 0zM225 666l-76 -490q-3 -20 -3 -35q0 -48 19.5 -77.5t55.5 -29.5q18 0 36 10.5t32.5 28.5t25 41t14.5 48l73 470l101 34l-102 -666h-77l-7 86q-18 -41 -56.5 -66t-83.5 -25q-57 0 -92.5 35.5t-35.5 97.5q0 17 3 34l73 470zM401 763l-17 -23l-128 42q-13 4 -19.5 8.5
t-6.5 16.5q0 17 10.5 25.5t27.5 8.5q8 -2 18 -4t21 -10z" />
    <glyph glyph-name="uacute" unicode="&#xfa;" horiz-adv-x="429" 
d="M49 0zM225 666l-76 -490q-3 -20 -3 -35q0 -48 19.5 -77.5t55.5 -29.5q18 0 36 10.5t32.5 28.5t25 41t14.5 48l73 470l101 34l-102 -666h-77l-7 86q-18 -41 -56.5 -66t-83.5 -25q-57 0 -92.5 35.5t-35.5 97.5q0 17 3 34l73 470zM378 827q25 14 43 14q29 0 29 -23
q0 -26 -35 -36l-142 -42l-10 23z" />
    <glyph glyph-name="ucircumflex" unicode="&#xfb;" horiz-adv-x="429" 
d="M49 0zM225 666l-76 -490q-3 -20 -3 -35q0 -48 19.5 -77.5t55.5 -29.5q18 0 36 10.5t32.5 28.5t25 41t14.5 48l73 470l101 34l-102 -666h-77l-7 86q-18 -41 -56.5 -66t-83.5 -25q-57 0 -92.5 35.5t-35.5 97.5q0 17 3 34l73 470zM344 841l71 -41q12 -7 18.5 -17t6.5 -18
q0 -25 -24 -25q-14 0 -35.5 19t-42.5 42q-29 -23 -55 -42t-40 -19q-18 0 -18 14q0 27 37 46z" />
    <glyph glyph-name="udieresis" unicode="&#xfc;" horiz-adv-x="429" 
d="M49 0zM225 666l-76 -490q-3 -20 -3 -35q0 -48 19.5 -77.5t55.5 -29.5q18 0 36 10.5t32.5 28.5t25 41t14.5 48l73 470l101 34l-102 -666h-77l-7 86q-18 -41 -56.5 -66t-83.5 -25q-57 0 -92.5 35.5t-35.5 97.5q0 17 3 34l73 470zM420 841q16 0 26 -12.5t10 -30.5
q0 -22 -16 -39.5t-35 -17.5q-17 0 -28 12t-11 30q0 23 17 40.5t37 17.5zM270 841q16 0 26 -12t10 -29q0 -23 -15.5 -41t-35.5 -18q-17 0 -27 11.5t-10 28.5q0 23 15.5 41.5t36.5 18.5z" />
    <glyph glyph-name="yacute" unicode="&#xfd;" horiz-adv-x="394" 
d="M0 0zM211 663l45 -457l202 457h31l-302 -697q-29 -69 -81 -106.5t-115 -37.5l5 36q20 0 41 7t40.5 20t36 31t27.5 40l47 100l-80 607h103zM360 827q25 14 43 14q29 0 29 -23q0 -26 -35 -36l-142 -42l-10 23z" />
    <glyph glyph-name="thorn" unicode="&#xfe;" horiz-adv-x="443" 
d="M251 851l-45 -290q26 56 64.5 85.5t89.5 29.5q64 0 95.5 -53t31.5 -152q0 -94 -19.5 -182t-54.5 -156t-82.5 -109t-103.5 -41q-32 0 -58 22.5t-38 70.5l-39 -258h-96l154 999zM143 156q-1 -5 -1 -8.5v-8.5q0 -21 6.5 -44t18.5 -42t28 -31t35 -12q26 0 55 35.5t53.5 98.5
t40.5 149.5t16 188.5q0 66 -17.5 104.5t-62.5 38.5q-22 0 -42.5 -14t-37 -37t-28.5 -53.5t-17 -63.5z" />
    <glyph glyph-name="ydieresis" unicode="&#xff;" horiz-adv-x="394" 
d="M0 0zM211 663l45 -457l202 457h31l-302 -697q-29 -69 -81 -106.5t-115 -37.5l5 36q20 0 41 7t40.5 20t36 31t27.5 40l47 100l-80 607h103zM402 841q16 0 26 -12.5t10 -30.5q0 -22 -16 -39.5t-35 -17.5q-17 0 -28 12t-11 30q0 23 17 40.5t37 17.5zM252 841q16 0 26 -12
t10 -29q0 -23 -15.5 -41t-35.5 -18q-17 0 -27 11.5t-10 28.5q0 23 15.5 41.5t36.5 18.5z" />
    <glyph glyph-name="dotlessi" unicode="&#x131;" horiz-adv-x="156" 
d="M227 663l-102 -662h-96l97 628z" />
    <glyph glyph-name="Lslash" unicode="&#x141;" horiz-adv-x="323" 
d="M254 833l-72 -463l175 72l-9 -57l-175 -72l-45 -289h199l-4 -23h-293l128 832h96z" />
    <glyph glyph-name="lslash" unicode="&#x142;" horiz-adv-x="156" 
d="M256 844l-54 -342l32 17l-8 -57l-33 -18l-68 -443h-96l61 392l-32 -15l9 57l30 15l58 360z" />
    <glyph glyph-name="OE" unicode="&#x152;" horiz-adv-x="812" 
d="M933 833l-5 -24h-270l-58 -379h155l-4 -23h-155l-59 -384h270l-3 -23h-367l9 62q-21 -17 -41 -31t-43.5 -25t-53 -17t-68.5 -6q-86 0 -127.5 54.5t-41.5 180.5q0 43 5 94.5t15 113.5q16 101 43 179t69.5 130.5t101.5 79.5t139 27q36 0 65 -13.5t50 -35.5l7 40h367z
M409 810q-42 0 -84 -41.5t-75.5 -116.5t-54.5 -179t-21 -228q0 -105 26 -168.5t77 -63.5q43 0 85 44.5t75 122.5t53.5 184t20.5 228q0 102 -25.5 160t-76.5 58z" />
    <glyph glyph-name="oe" unicode="&#x153;" horiz-adv-x="795" 
d="M705 676q74 0 105 -26t31 -84q0 -44 -23.5 -79.5t-65.5 -60t-100.5 -38.5t-129.5 -15q-3 -12 -6 -29.5t-5.5 -38.5t-4 -43.5t-1.5 -43.5q0 -41 5.5 -77t18.5 -63t33 -43t49 -16q26 0 54 27t60 66l19 -12q-20 -26 -38.5 -47t-39 -37t-45.5 -24.5t-57 -8.5q-52 0 -88 30.5
t-55 81.5q-40 -60 -94 -86t-121 -26q-75 0 -110 50t-35 153q0 98 16.5 187t53 156.5t95.5 107t144 39.5q108 0 132 -124q45 69 96 96.5t107 27.5zM314 639q-24 0 -44.5 -21.5t-38 -57.5t-31 -82.5t-23 -96t-14.5 -99t-5 -91.5q0 -86 23 -130t71 -44q33 0 62.5 35t52 93.5
t36 133t13.5 154.5q0 93 -27 149.5t-75 56.5zM533 414q40 5 81 16.5t75 30.5t55.5 46t21.5 63q0 13 -2 26t-9 23t-20.5 16t-35.5 6q-32 0 -58.5 -22.5t-47 -56.5t-35.5 -74t-25 -74z" />
    <glyph glyph-name="Scaron" unicode="&#x160;" horiz-adv-x="388" 
d="M32 0zM437 726q-14 35 -35.5 56t-60.5 21q-24 0 -46 -9.5t-38.5 -28.5t-26.5 -46.5t-10 -64.5q0 -47 11.5 -81.5t30 -64.5t42 -59t47.5 -65q12 -17 21 -35t15 -39.5t9 -48.5t3 -62q0 -100 -59.5 -158t-171.5 -58q-54 0 -89.5 31t-46.5 89l38 25q2 -21 10 -40t21 -34
t30.5 -23.5t38.5 -8.5q20 0 43.5 10.5t43 32t32.5 53.5t13 76q0 55 -9.5 93.5t-30.5 65.5q-24 30 -47.5 61t-42 63.5t-29.5 68t-11 74.5q0 49 15 90t41.5 70t63.5 45.5t82 16.5q30 0 51.5 -6.5t37 -18.5t27 -28.5t21.5 -37.5zM263 951q-11 6 -17 13.5t-6 20.5q0 26 22 26
q14 0 36 -19.5t42 -41.5q29 23 55.5 42t41.5 19q17 0 17 -15q0 -28 -38 -45l-82 -41z" />
    <glyph glyph-name="scaron" unicode="&#x161;" horiz-adv-x="384" 
d="M34 0zM399 566q-15 31 -35.5 50.5t-49.5 19.5q-25 0 -46.5 -8t-38 -22t-26 -35t-9.5 -46q0 -45 14 -74.5t34 -43.5q27 -20 54.5 -41.5t50 -47.5t36.5 -56.5t14 -67.5q0 -42 -14.5 -80t-43.5 -67t-71.5 -46.5t-98.5 -17.5q-29 0 -50.5 9.5t-37.5 25.5t-27.5 38t-19.5 47
l38 25q4 -19 13 -37.5t21.5 -33.5t28 -24t33.5 -9q30 0 53.5 12.5t39.5 32.5t24 44.5t8 49.5q0 32 -14.5 57t-35.5 46t-46.5 41.5t-46.5 44.5t-35.5 53.5t-14.5 70.5q0 42 16 78.5t42.5 63.5t61 42.5t72.5 15.5q57 0 88.5 -19t48.5 -65zM235 781q-11 6 -17 13.5t-6 20.5
q0 26 22 26q14 0 36 -19.5t42 -41.5q29 23 55.5 42t41.5 19q17 0 17 -15q0 -28 -38 -45l-82 -41z" />
    <glyph glyph-name="Ydieresis" unicode="&#x178;" horiz-adv-x="386" 
d="M134 0zM234 833l53 -315l180 315h43l-198 -347l-76 -486h-95l67 441l-74 392h100zM424 1011q16 0 26 -12.5t10 -30.5q0 -22 -16 -39.5t-35 -17.5q-17 0 -28 12t-11 30q0 23 17 40.5t37 17.5zM274 1011q16 0 26 -12t10 -29q0 -23 -15.5 -41t-35.5 -18q-17 0 -27 11.5
t-10 28.5q0 23 15.5 41.5t36.5 18.5z" />
    <glyph glyph-name="Zcaron" unicode="&#x17d;" horiz-adv-x="425" 
d="M26 0zM534 833l-405 -799h296l-5 -34h-394l403 802h-290l5 31h390zM282 951q-11 6 -17 13.5t-6 20.5q0 26 22 26q14 0 36 -19.5t42 -41.5q29 23 55.5 42t41.5 19q17 0 17 -15q0 -28 -38 -45l-82 -41z" />
    <glyph glyph-name="zcaron" unicode="&#x17e;" horiz-adv-x="394" 
d="M8 0zM487 663l-375 -630h267l-5 -33h-366l375 628h-264l6 35h362zM239 781q-11 6 -17 13.5t-6 20.5q0 26 22 26q14 0 36 -19.5t42 -41.5q29 23 55.5 42t41.5 19q17 0 17 -15q0 -28 -38 -45l-82 -41z" />
    <glyph glyph-name="circumflex" unicode="&#x2c6;" horiz-adv-x="240" 
d="M249 841l71 -41q12 -7 18.5 -17t6.5 -18q0 -25 -24 -25q-14 0 -35.5 19t-42.5 42q-29 -23 -55 -42t-40 -19q-18 0 -18 14q0 27 37 46z" />
    <glyph glyph-name="caron" unicode="&#x2c7;" horiz-adv-x="240" 
d="M163 781q-11 6 -17 13.5t-6 20.5q0 26 22 26q14 0 36 -19.5t42 -41.5q29 23 55.5 42t41.5 19q17 0 17 -15q0 -28 -38 -45l-82 -41z" />
    <glyph glyph-name="ring" unicode="&#x2da;" horiz-adv-x="184" 
d="M124 758q0 18 7 33t18 26t26 17.5t31 6.5t31 -6.5t26.5 -17.5t18.5 -26t7 -33q0 -17 -7 -32.5t-18.5 -27t-26.5 -18t-31 -6.5q-32 0 -57 23.5t-25 60.5zM154 758q0 -24 16 -38t36 -14t36 14t16 38q0 23 -16 37.5t-36 14.5t-36 -14.5t-16 -37.5z" />
    <glyph glyph-name="tilde" unicode="&#x2dc;" horiz-adv-x="298" 
d="M136 751q9 43 33.5 66.5t57.5 23.5q20 0 33.5 -11t24 -23.5t20 -23.5t20.5 -11q13 0 27.5 11t23.5 46h27q-8 -42 -35 -65.5t-60 -23.5q-19 0 -32.5 11t-24 23.5t-19.5 23.5t-21 11q-13 0 -24.5 -12t-23.5 -46h-27z" />
    <glyph glyph-name="endash" unicode="&#x2013;" horiz-adv-x="491" 
d="M518 396l-9 -57h-428l9 57h428z" />
    <glyph glyph-name="emdash" unicode="&#x2014;" horiz-adv-x="810" 
d="M847 396l-9 -57h-757l9 57h757z" />
    <glyph glyph-name="quoteleft" unicode="&#x2018;" horiz-adv-x="134" 
d="M234 899q-17 -24 -26.5 -46t-9.5 -43q0 -43 45 -43q-28 -53 -66 -53q-20 0 -32 15t-12 38q0 18 9.5 38t24 38t32.5 33t35 23z" />
    <glyph glyph-name="quoteright" unicode="&#x2019;" horiz-adv-x="134" 
d="M148 709q18 23 27.5 45.5t9.5 42.5q0 45 -45 45q28 53 67 53q20 0 31.5 -15.5t11.5 -37.5q0 -18 -9.5 -38t-24.5 -39t-33 -34t-35 -22z" />
    <glyph glyph-name="quotesinglbase" unicode="&#x201a;" horiz-adv-x="134" 
d="M20 70q30 53 68 53q20 0 31 -15t11 -37q0 -18 -9.5 -38t-24 -39t-32.5 -34t-35 -23q35 45 35 90q0 43 -44 43z" />
    <glyph glyph-name="quotedblleft" unicode="&#x201c;" horiz-adv-x="249" 
d="M240 786q3 16 13 33.5t24 34.5t31 31t34 22q-20 -25 -28.5 -47.5t-8.5 -44.5q0 -41 44 -41q-28 -52 -65 -52q-38 0 -44 35q-25 -35 -56 -35q-20 0 -31.5 14.5t-11.5 37.5q0 16 9 35.5t23 38t32.5 34.5t36.5 25q-37 -47 -37 -91q0 -36 33 -42z" />
    <glyph glyph-name="quotedblright" unicode="&#x201d;" horiz-adv-x="249" 
d="M258 868q27 38 57 38q21 0 32 -15t11 -36q0 -17 -9 -37t-23.5 -38.5t-32.5 -34.5t-37 -25q37 46 37 88q0 40 -34 44q0 -2 0.5 -2.5t0.5 -2.5q0 -17 -10 -35.5t-25 -36.5t-33 -32.5t-34 -22.5q36 48 36 90t-44 42q28 54 67 54q16 0 27 -10.5t14 -27.5z" />
    <glyph glyph-name="quotedblbase" unicode="&#x201e;" horiz-adv-x="249" 
d="M137 88q14 18 27.5 27.5t29.5 9.5q20 0 31.5 -15t11.5 -35q0 -17 -9 -37t-23 -38.5t-32.5 -34.5t-36.5 -26q35 47 35 92q0 35 -33 40q1 -1 1 -4q0 -16 -10 -35t-25 -37t-33 -33t-34 -23q17 24 26.5 46t9.5 45q0 42 -44 42q29 53 66 53q17 0 28 -10.5t14 -26.5z" />
    <glyph glyph-name="bullet" unicode="&#x2022;" horiz-adv-x="307" 
d="M247 603q25 0 45.5 -9.5t35.5 -26.5t23 -40t8 -50q0 -35 -13.5 -67.5t-35.5 -57.5t-51 -39.5t-60 -14.5q-50 0 -80.5 34.5t-30.5 88.5q0 37 13.5 70t35.5 58t50.5 39.5t59.5 14.5z" />
    <glyph glyph-name="ellipsis" unicode="&#x2026;" horiz-adv-x="933" 
d="M95 118q20 0 33 -15t13 -37q0 -15 -5.5 -28.5t-14.5 -24t-21 -16.5t-25 -6q-21 0 -34 15t-13 37q0 31 21 53t46 22zM483 118q22 0 34.5 -14.5t12.5 -36.5q0 -15 -5.5 -29t-14.5 -24.5t-21 -16.5t-25 -6q-21 0 -34.5 15t-13.5 37q0 15 6 29t15.5 24t21.5 16t24 6zM872 118
q22 0 34 -14.5t12 -36.5q0 -31 -19.5 -53.5t-46.5 -22.5q-20 0 -33.5 15t-13.5 37q0 15 6 29t15.5 24t21.5 16t24 6z" />
    <glyph glyph-name="Euro" unicode="&#x20ac;" horiz-adv-x="512" 
d="M132 496q16 79 42.5 143t66.5 109t93.5 69.5t122.5 24.5q38 0 66.5 -17.5t48.5 -46.5l-21 -45q-7 17 -19.5 31.5t-28 25t-33 16.5t-33.5 6q-67 0 -120 -82.5t-87 -233.5h207l-20 -42h-195l-5 -36q-2 -14 -5 -27.5t-2 -27.5h165l-22 -43h-147q-3 -41 -3 -76
q0 -109 26.5 -169.5t77.5 -60.5q20 0 41.5 9.5t42.5 25t40.5 35.5t36.5 42h36q-45 -75 -104 -109t-130 -34q-89 0 -130 60t-41 183q0 22 1.5 45t3.5 49h-29l16 43h19l14 91h-29l16 42h21z" />
    <glyph glyph-name="trademark" unicode="&#x2122;" horiz-adv-x="555" 
d="M351 833v-61h-77v-251h-67v251h-80v61h224zM455 834l59 -162l59 162h73v-313h-63v172l-68 -173l-74 180v-178h-62v312h76z" />
    <glyph glyph-name="minus" unicode="&#x2212;" horiz-adv-x="283" 
d="M338 443v-44h-294v44h294z" />
    <glyph glyph-name=".null" horiz-adv-x="0" 
 />
    <glyph glyph-name="nonmarkingreturn" horiz-adv-x="494" 
 />
    <glyph glyph-name=".ttfautohint" horiz-adv-x="494" 
d="M0 0z" />
    </font>
</defs>
</svg>
