<?xml version="1.0" standalone="no"?>
<!DOCTYPE svg PUBLIC "-//W3C//DTD SVG 20010904//EN"
 "http://www.w3.org/TR/2001/REC-SVG-20010904/DTD/svg10.dtd">
<svg version="1.0" xmlns="http://www.w3.org/2000/svg"
 width="260.000000pt" height="260.000000pt" viewBox="0 0 260.000000 260.000000"
 preserveAspectRatio="xMidYMid meet">
<metadata>
Created by potrace 1.11, written by Peter Selinger 2001-2013
</metadata>
<g transform="translate(0.000000,260.000000) scale(0.100000,-0.100000)"
fill="#000000" stroke="none">
<path d="M1214 2531 c2 -3 -19 -7 -47 -8 -29 0 -65 -4 -82 -7 -16 -3 -40 -8
-52 -10 -13 -2 -28 -7 -35 -13 -7 -5 -23 -8 -35 -7 -13 0 -23 -2 -23 -7 0 -5
-7 -6 -15 -3 -8 4 -15 1 -15 -5 0 -6 -7 -8 -17 -4 -11 5 -14 3 -8 -6 6 -10 2
-11 -15 -6 -15 5 -20 4 -16 -4 5 -7 1 -9 -8 -5 -9 3 -16 2 -16 -3 0 -5 -9 -9
-21 -10 -12 -1 -28 -10 -36 -20 -8 -10 -12 -13 -9 -6 5 8 0 8 -18 0 -13 -7
-22 -16 -19 -21 4 -5 -1 -7 -10 -3 -10 3 -17 2 -17 -3 0 -6 -6 -9 -12 -8 -7 2
-12 -3 -10 -10 1 -8 -2 -11 -8 -7 -6 4 -18 -1 -26 -11 -9 -11 -13 -13 -9 -4 4
10 2 9 -8 -2 -8 -10 -17 -15 -21 -11 -4 4 -9 -3 -13 -15 -3 -12 -9 -19 -15
-16 -13 8 -39 -16 -31 -29 4 -6 0 -8 -9 -4 -18 6 -72 -45 -61 -58 5 -4 3 -5
-3 -2 -13 7 -77 -47 -67 -56 3 -4 1 -7 -6 -7 -7 0 -9 -5 -5 -12 4 -6 3 -8 -4
-4 -6 3 -23 -10 -39 -31 -15 -21 -34 -44 -41 -51 -7 -8 -10 -17 -7 -22 3 -5 0
-12 -6 -16 -8 -5 -9 -3 -4 7 8 12 6 12 -8 0 -9 -7 -14 -17 -11 -22 3 -5 0 -9
-6 -9 -6 0 -9 -4 -6 -9 3 -5 -1 -12 -10 -15 -9 -4 -14 -13 -10 -22 3 -8 2 -13
-2 -10 -10 6 -47 -64 -43 -83 1 -7 -2 -10 -8 -6 -10 5 -15 -7 -12 -27 0 -5 -3
-8 -8 -8 -6 0 -8 -9 -6 -20 2 -11 0 -18 -4 -15 -5 3 -12 -2 -15 -11 -4 -10 -2
-13 7 -8 6 4 4 -2 -7 -14 -10 -12 -16 -28 -12 -37 4 -11 2 -14 -6 -9 -7 5 -9
2 -5 -8 3 -9 1 -20 -3 -24 -5 -5 -11 -21 -14 -34 -2 -14 -5 -25 -7 -25 -2 0
-3 -5 -15 -75 -3 -19 -6 -56 -7 -82 -1 -27 -4 -48 -7 -48 -3 0 -6 -40 -6 -90
0 -49 3 -90 6 -90 3 0 5 -19 4 -42 -1 -24 1 -47 4 -53 6 -10 10 -31 13 -77 1
-15 5 -26 8 -24 5 4 8 -14 11 -66 1 -9 8 -19 16 -22 7 -3 11 -12 8 -20 -3 -8
-1 -17 5 -20 6 -4 7 -14 4 -23 -5 -12 -3 -14 7 -8 9 5 11 4 6 -4 -10 -16 3
-53 16 -45 7 5 9 1 5 -9 -3 -8 1 -21 8 -27 8 -7 12 -16 9 -21 -3 -5 0 -9 5 -9
6 0 10 -3 10 -7 -3 -21 2 -33 12 -28 6 4 9 0 7 -11 -2 -11 2 -18 9 -17 7 2 10
-3 7 -11 -3 -8 4 -24 15 -35 12 -12 19 -21 16 -21 -3 0 0 -6 7 -14 7 -8 17
-11 22 -8 5 3 6 0 2 -7 -10 -15 13 -43 27 -34 6 4 8 0 5 -8 -6 -16 47 -71 58
-60 4 3 4 0 0 -7 -9 -15 12 -44 25 -36 5 3 8 0 7 -8 -2 -7 3 -12 10 -10 6 1
11 -1 10 -5 -2 -5 2 -10 7 -12 6 -3 25 -20 43 -39 17 -19 32 -32 32 -28 0 3 9
-3 20 -14 12 -12 26 -18 33 -14 7 4 9 4 5 -1 -10 -10 19 -38 32 -30 5 3 10 -1
10 -9 0 -14 18 -21 43 -17 4 0 6 -5 5 -11 -2 -7 3 -12 10 -10 6 1 12 -3 12 -9
0 -5 4 -7 10 -4 5 3 10 1 10 -5 0 -6 5 -8 10 -5 6 3 10 1 10 -5 0 -7 7 -9 16
-6 8 3 12 2 9 -4 -5 -9 16 -15 38 -11 5 1 6 -3 2 -9 -3 -5 -1 -10 4 -10 20 0
26 -2 38 -12 7 -5 17 -7 22 -4 5 4 12 2 16 -4 4 -6 11 -8 16 -5 5 4 9 1 9 -5
0 -6 4 -8 10 -5 5 3 10 1 10 -5 0 -7 8 -9 20 -5 11 3 20 2 20 -4 0 -5 9 -8 20
-6 11 2 20 0 20 -6 0 -5 11 -7 25 -5 14 3 23 1 20 -4 -3 -5 12 -8 34 -6 22 2
39 0 36 -3 -5 -9 52 -13 175 -12 139 0 190 3 185 11 -2 4 11 6 30 5 19 -2 35
2 35 7 0 6 7 7 16 4 9 -3 21 -3 27 1 7 4 21 9 31 10 11 2 26 9 35 16 10 8 13
8 8 0 -5 -8 0 -9 22 0 17 6 27 15 24 20 -3 5 4 6 16 2 13 -4 21 -2 21 5 0 7 7
10 15 6 8 -3 15 -1 15 5 0 6 4 8 9 5 5 -3 14 1 21 9 7 8 16 12 21 9 5 -3 9 0
9 6 0 6 5 8 10 5 6 -3 10 -1 10 4 0 6 3 10 8 10 21 -4 32 2 26 13 -5 8 -2 9
10 5 10 -4 19 -1 22 8 4 8 10 12 15 9 5 -3 9 0 9 6 0 6 5 8 10 5 6 -3 10 -2
10 4 0 5 9 13 20 16 11 4 17 11 14 17 -4 7 -2 8 5 4 11 -7 44 17 35 27 -3 2 2
7 11 11 11 4 14 2 9 -7 -5 -8 -2 -8 9 2 9 7 14 17 11 22 -3 5 0 8 7 7 7 -2 13
3 14 11 0 8 8 15 18 17 16 2 107 84 93 84 -3 0 11 16 32 36 20 20 31 33 24 29
-11 -6 -11 -3 -1 13 7 12 15 20 18 19 4 -1 7 2 8 6 1 5 10 15 20 23 10 7 15
14 11 14 -5 0 1 9 13 21 11 11 18 27 15 35 -3 8 -2 13 3 10 4 -3 21 21 38 54
16 33 25 57 19 54 -6 -3 -3 1 6 9 10 8 15 17 11 20 -3 4 -2 7 4 7 11 0 27 54
24 77 -1 7 3 13 10 13 6 0 9 6 6 14 -3 8 -2 16 3 18 5 2 10 18 12 36 1 17 6
32 10 32 4 0 5 9 3 20 -2 11 0 20 5 20 4 0 7 14 6 31 -1 16 1 32 5 35 4 2 6
24 5 48 -1 25 1 43 5 41 3 -3 6 41 5 95 0 55 -3 100 -7 100 -3 0 -4 20 -3 45
1 25 -1 45 -6 45 -4 0 -6 14 -5 30 1 17 -1 30 -5 30 -5 0 -6 10 -2 22 3 14 1
19 -6 14 -8 -4 -10 -2 -6 7 3 8 1 18 -4 21 -5 3 -8 17 -7 31 2 14 -1 25 -6 25
-6 0 -7 5 -4 10 3 6 1 10 -5 10 -6 0 -8 5 -5 11 4 5 -1 20 -12 31 -10 12 -12
18 -6 14 9 -5 11 -2 7 8 -3 9 -9 14 -13 12 -3 -2 -7 8 -8 22 0 14 -7 31 -15
36 -7 6 -13 17 -14 24 -2 29 -5 33 -15 27 -6 -4 -9 -1 -8 6 3 20 -12 50 -22
43 -5 -3 -6 2 -3 10 4 10 -7 28 -28 48 -18 17 -26 27 -18 22 9 -5 8 -1 -2 8
-11 9 -19 19 -18 23 1 6 -8 17 -51 65 -17 19 -28 29 -24 21 6 -9 4 -12 -4 -7
-6 4 -8 12 -5 18 8 12 -63 81 -76 73 -5 -3 -12 0 -16 6 -5 8 -2 10 7 4 8 -4
-2 7 -21 24 -43 38 -53 46 -62 49 -4 2 -20 14 -35 28 -36 34 -68 51 -58 32 3
-7 1 -6 -7 3 -15 18 -60 44 -70 41 -5 -1 -8 3 -8 9 0 5 -4 7 -10 4 -5 -3 -10
-2 -10 4 0 6 -7 7 -17 4 -9 -4 -14 -2 -11 3 4 5 -11 17 -33 26 -24 10 -37 12
-32 5 3 -7 -3 -4 -15 6 -11 11 -26 16 -31 12 -6 -3 -11 -1 -11 5 0 7 -7 9 -16
6 -10 -4 -13 -2 -8 6 5 7 -1 9 -20 6 -14 -3 -29 -1 -32 4 -3 4 -10 6 -15 3 -5
-4 -9 -2 -9 4 0 5 -11 8 -25 6 -14 -1 -28 2 -31 6 -3 5 -16 7 -30 5 -13 -3
-24 -1 -24 4 0 5 -20 7 -45 6 -25 -1 -45 0 -45 4 0 3 -40 6 -90 6 -49 1 -88
-2 -86 -5z m-694 -285 c0 -2 -8 -10 -17 -17 -16 -13 -17 -12 -4 4 13 16 21 21
21 13z m1730 -1730 c0 -2 -8 -10 -17 -17 -16 -13 -17 -12 -4 4 13 16 21 21 21
13z"/>
</g>
</svg>
