<?xml version="1.0" standalone="no"?>
<!DOCTYPE svg PUBLIC "-//W3C//DTD SVG 1.1//EN" "http://www.w3.org/Graphics/SVG/1.1/DTD/svg11.dtd" >
<svg xmlns="http://www.w3.org/2000/svg" xmlns:xlink="http://www.w3.org/1999/xlink" version="1.1">
<metadata>
Created by FontForge 20150715 at Tue Nov  3 09:14:15 2015
 By Jimmy Wärting
(c) 2000-2012 Typodermic Fonts Inc. See attached license agreement. If agreement is missing visit typodermicfonts.com for more info.
</metadata>
<defs>
<font id="DreamOrphans-BoldItalic" horiz-adv-x="466" >
  <font-face 
    font-family="Dream Orphans"
    font-weight="700"
    font-style="italic"
    font-stretch="normal"
    units-per-em="1000"
    panose-1="2 0 4 0 0 0 0 0 0 0"
    ascent="818"
    descent="-182"
    x-height="682"
    cap-height="846"
    bbox="-141 -182 1159 1018"
    underline-thickness="20"
    underline-position="-143"
    slope="-10"
    unicode-range="U+0020-2212"
  />
<missing-glyph horiz-adv-x="452" 
d="M129 0q-97 0 -97 84v488q0 85 97 85h193q98 0 98 -85v-488q0 -84 -98 -84h-193zM368 572q0 39 -46 39h-193q-46 0 -46 -39v-488q0 -39 46 -39h193q46 0 46 39v488z" />
    <glyph glyph-name=".notdef" horiz-adv-x="452" 
d="M129 0q-97 0 -97 84v488q0 85 97 85h193q98 0 98 -85v-488q0 -84 -98 -84h-193zM368 572q0 39 -46 39h-193q-46 0 -46 -39v-488q0 -39 46 -39h193q46 0 46 39v488z" />
    <glyph glyph-name="space" unicode=" " horiz-adv-x="283" 
 />
    <glyph glyph-name="exclam" unicode="!" horiz-adv-x="214" 
d="M127 157q26 0 43 -19.5t17 -48.5q0 -20 -7 -38t-19 -31.5t-27.5 -21.5t-32.5 -8q-28 0 -45 19.5t-17 48.5q0 20 7.5 38t19.5 31.5t28 21.5t33 8zM110 253q2 22 5.5 59t7.5 82t8 93.5t7 94.5t5.5 85t3.5 64q0 21 -2.5 42.5t-2.5 35.5q0 36 31.5 60t77.5 24q32 0 54 -17
t22 -43q0 -12 -4.5 -24.5t-11 -27t-12.5 -29.5t-9 -31q-5 -20 -14.5 -56.5t-20.5 -80.5t-23.5 -93t-23.5 -94t-20 -83t-14 -61h-64z" />
    <glyph glyph-name="quotedbl" unicode="&#x22;" horiz-adv-x="277" 
d="M300 661q2 22 3.5 43.5t1.5 44.5t-5 46.5t-5 46.5q0 28 18 46t44 18q40 0 40 -36q0 -22 -15 -49q-25 -45 -32.5 -83.5t-15.5 -76.5h-34zM150 661q2 23 3.5 45t1.5 45q0 22 -5.5 45.5t-5.5 44.5q0 29 17.5 47t44.5 18q41 0 41 -36q0 -13 -4 -24t-12 -25q-24 -45 -32 -83.5
t-17 -76.5h-32z" />
    <glyph glyph-name="numbersign" unicode="#" horiz-adv-x="359" 
d="M196 322h38l50 215h-38zM325 877l-58 -239h37l58 239h67l-59 -239h68l-23 -101h-65l-50 -215h68l-23 -103h-66l-52 -219h-66l53 219h-40l-50 -219h-67l53 219h-65l23 103h61l51 215h-65l23 101h58l62 239h67z" />
    <glyph glyph-name="dollar" unicode="$" horiz-adv-x="392" 
d="M300 843l-11 -74q11 1 28.5 1.5t28.5 0.5l11 72h22l-11 -76q29 -7 51.5 -28t39.5 -54l-41 -34q-21 54 -58 67l-41 -268q54 -38 76.5 -73.5t22.5 -84.5q0 -85 -38 -137t-119 -72l-12 -83h-22l11 79q-10 -2 -20 -3t-19 -1h-18l-11 -75h-22l11 79q-78 16 -110 107l48 31
q15 -71 70 -88l45 286q-30 20 -51 37.5t-33.5 34.5t-18 35.5t-5.5 40.5q0 83 42 133.5t120 68.5l12 78h22zM248 506q8 -11 21 -21.5t29 -21.5l41 258h-6q-27 0 -53 -10zM256 699q-17 -15 -29.5 -43.5t-12.5 -64.5q0 -32 16 -61zM272 152q17 18 27.5 48t10.5 69q0 33 -11 56z
M189 126h5q30 0 53 10l35 217q-19 26 -51 48z" />
    <glyph glyph-name="percent" unicode="%" horiz-adv-x="702" 
d="M319 847q55 -1 84 -41.5t29 -109.5q0 -62 -19 -112t-50 -85t-70.5 -54t-81.5 -19q-57 0 -85.5 38.5t-28.5 106.5q0 58 16.5 108.5t46.5 88t70.5 58.5t88.5 21zM658 845l-427 -845h-76l424 845h79zM377 190q7 46 26.5 85.5t48.5 68.5t65.5 45t77.5 16q55 0 84 -41.5
t29 -110.5q0 -60 -18.5 -109.5t-49.5 -85t-70.5 -55t-81.5 -19.5q-57 0 -86.5 39t-29.5 107q0 14 1 29t4 31zM282 784q-21 0 -39.5 -19t-33 -49t-23 -66.5t-8.5 -70.5q0 -91 67 -91q18 0 36.5 15t33 40.5t24 59t9.5 70.5q0 49 -17.5 80t-48.5 31zM558 343q-21 0 -39.5 -19.5
t-32.5 -49.5t-22.5 -66t-8.5 -70q0 -92 66 -92q18 0 36.5 15.5t33 41.5t24 60t9.5 71q0 48 -18 78.5t-48 30.5z" />
    <glyph glyph-name="ampersand" unicode="&#x26;" horiz-adv-x="583" 
d="M334 386q-28 0 -53 -19t-44 -49.5t-30 -68.5t-11 -76q0 -46 18 -77t52 -31q30 0 65 20q-3 9 -4 18.5t-1 20.5q0 10 1 21t3 25l34 216h-30zM484 751q-42 31 -72 31q-31 0 -57.5 -19.5t-46 -50t-30.5 -68.5t-11 -74q0 -45 17.5 -77.5t51.5 -39.5q114 3 152 141l39 -3
l-22 -138h73l-10 -67h-73l-38 -239q-1 -6 -1.5 -12t-0.5 -13q0 -13 2 -25.5t7.5 -22t14 -15.5t21.5 -6q8 0 24 5t41 16l13 -64q-42 -14 -70 -21t-42 -7q-36 0 -66 12t-43 40q-76 -52 -147 -52q-36 0 -65 16.5t-49.5 44t-31 64t-10.5 75.5q0 36 9.5 75t26.5 75t41.5 65
t53.5 45q-20 18 -30 51t-10 72q0 59 20.5 113t56 95t82 65t98.5 24q78 0 131 -62z" />
    <glyph glyph-name="quotesingle" unicode="'" horiz-adv-x="143" 
d="M236 752q-17 -20 -52 -42t-84 -46q41 54 58.5 85.5t17.5 43.5q0 29 -56 29q56 95 101 95q27 0 42 -19.5t15 -48.5q0 -24 -10 -48.5t-33 -49.5z" />
    <glyph glyph-name="parenleft" unicode="(" horiz-adv-x="263" 
d="M385 891q-35 -5 -67.5 -26.5t-59.5 -52.5t-45.5 -68t-24.5 -73l-96 -615q-3 -17 -4 -33t-1 -30q0 -82 38 -121.5t111 -39.5l-3 -7q-13 -2 -25 -4t-22 -2q-35 0 -65.5 15.5t-53 41.5t-35.5 61t-13 73v15.5t2 15.5l95 615q8 50 32 93.5t60 76t81 52.5t95 25z" />
    <glyph glyph-name="parenright" unicode=")" horiz-adv-x="263" 
d="M175 903q43 -4 78.5 -20.5t60.5 -43.5t38.5 -62.5t13.5 -77.5q0 -21 -3 -43l-95 -615q-7 -43 -29.5 -83t-55 -71t-71 -49.5t-76.5 -18.5q-10 0 -21.5 2t-22.5 4l-3 7q86 0 140 54.5t72 169.5l96 615q1 8 1.5 15.5t0.5 15.5q0 33 -9.5 65t-26.5 58t-41 43.5t-53 22.5z" />
    <glyph glyph-name="asterisk" unicode="*" horiz-adv-x="326" 
d="M299 862l5 -119l91 74l57 -98l-110 -40l99 -64l-76 -84l-73 91l-31 -113l-103 46l65 99l-118 -7l12 111l113 -31l-43 111z" />
    <glyph glyph-name="plus" unicode="+" horiz-adv-x="312" 
d="M253 589v-130h130v-65h-130v-138h-70v138h-127v65h127v130h70z" />
    <glyph glyph-name="comma" unicode="," horiz-adv-x="182" 
d="M136 -7q-17 -20 -51.5 -42t-84.5 -46q38 50 57.5 82.5t19.5 44.5q0 30 -57 30q54 95 101 95q27 0 42.5 -18.5t15.5 -47.5q0 -49 -44 -99z" />
    <glyph glyph-name="hyphen" unicode="-" horiz-adv-x="340" 
d="M373 422l-16 -100h-277l16 100h277z" />
    <glyph glyph-name="period" unicode="." horiz-adv-x="190" 
d="M118 157q26 0 43.5 -19.5t17.5 -48.5q0 -21 -7.5 -39t-19.5 -31.5t-27.5 -21t-32.5 -7.5q-27 0 -44 19.5t-17 48.5q0 20 7.5 38t19.5 31.5t27.5 21.5t32.5 8z" />
    <glyph glyph-name="slash" unicode="/" horiz-adv-x="385" 
d="M513 847l-449 -940h-76l445 940h80z" />
    <glyph glyph-name="zero" unicode="0" horiz-adv-x="608" 
d="M382 614q-36 0 -64 -24.5t-48.5 -62.5t-34.5 -83.5t-22.5 -87t-12 -73t-3.5 -42.5q0 -81 30 -132t92 -51q48 0 84.5 36.5t62 90.5t38.5 115t13 110q0 41 -7 78t-23 65t-42 44.5t-63 16.5zM444 695q54 0 92.5 -18.5t63 -51.5t35.5 -79t11 -101q0 -28 -2.5 -57t-7.5 -61
q-11 -73 -46.5 -136t-85.5 -109.5t-111.5 -73t-124.5 -26.5q-99 0 -151.5 66.5t-52.5 183.5q0 82 23 165t70.5 149t119 107.5t167.5 41.5z" />
    <glyph glyph-name="one" unicode="1" horiz-adv-x="216" 
d="M294 718l-111 -718h-131l88 571q0 3 0.5 5.5t0.5 5.5q0 32 -37 32v40z" />
    <glyph glyph-name="two" unicode="2" horiz-adv-x="473" 
d="M180 583q45 62 97 87t106 25q43 0 71 -13t44.5 -34.5t23 -49t6.5 -56.5q0 -54 -16 -102.5t-53.5 -100.5t-100 -112t-155.5 -138h274l-13 -89h-449q102 94 161.5 150t79.5 77q41 45 67.5 83.5t41.5 73.5t21 66.5t6 63.5q0 53 -19 74t-47 21q-46 0 -109 -60z" />
    <glyph glyph-name="three" unicode="3" horiz-adv-x="394" 
d="M97 583q46 62 97.5 87t105.5 25q33 0 60 -10t46.5 -29t30.5 -45t11 -58q0 -62 -32 -117t-81 -90q36 -23 53.5 -56t17.5 -75q0 -37 -16 -78t-43.5 -81.5t-64 -78t-78 -68.5t-85.5 -52.5t-86 -29.5l-19 54q65 22 116 54.5t86 71.5t53 81t18 83q0 24 -6 45t-16.5 36.5
t-25 25t-32.5 9.5q-6 0 -17.5 -3t-31.5 -11l10 72q79 23 116.5 65t37.5 102q0 40 -20.5 67.5t-54.5 27.5q-45 0 -113 -57z" />
    <glyph glyph-name="four" unicode="4" horiz-adv-x="493" 
d="M153 65h145l43 277zM429 65h54l-10 -65h-53l-28 -173h-131l28 173h-288l533 739z" />
    <glyph glyph-name="five" unicode="5" horiz-adv-x="386" 
d="M486 682l-14 -89h-224q132 -176 132 -327q0 -72 -24 -138t-68 -122.5t-107 -102t-142 -76.5l14 88q48 19 84.5 52t61 74.5t37.5 89t13 96.5q0 88 -38.5 166t-116.5 130l99 159h293z" />
    <glyph glyph-name="six" unicode="6" horiz-adv-x="439" 
d="M262 378q-35 0 -53.5 -18t-27 -45t-10 -58.5t-1.5 -58.5q0 -66 18 -105.5t55 -39.5q31 0 51 23.5t32 55.5t16.5 66.5t4.5 55.5q0 24 -4 46t-14 39.5t-26 28t-41 10.5zM441 755q-90 -34 -150 -111t-83 -197q47 40 111 40q37 0 64.5 -14.5t45.5 -40t27 -59.5t9 -73
q0 -57 -17 -114t-48.5 -102.5t-76.5 -73.5t-101 -28q-168 0 -168 216q0 92 22.5 188.5t70 182.5t120 154t173.5 103z" />
    <glyph glyph-name="seven" unicode="7" horiz-adv-x="445" 
d="M544 683l-408 -856h-86l341 725h-294l20 131h427z" />
    <glyph glyph-name="eight" unicode="8" horiz-adv-x="486" 
d="M349 526q42 29 70 71t28 93q0 42 -24 69.5t-65 27.5q-28 0 -49.5 -8t-36.5 -22t-22.5 -32.5t-7.5 -38.5q0 -22 8.5 -44.5t22.5 -43.5t33.5 -39.5t42.5 -32.5zM276 409q-28 -17 -50 -43t-37.5 -57t-23.5 -65.5t-8 -68.5q0 -55 24 -87.5t69 -32.5q30 0 57 16t47.5 42t32 58
t11.5 65q0 57 -33.5 100.5t-88.5 72.5zM217 449q-83 69 -83 165q0 46 18.5 88t50 73.5t73 50.5t88.5 19q38 0 71 -10.5t57 -29.5t38 -46t14 -61q0 -60 -35.5 -114t-101.5 -96q42 -39 68 -96.5t26 -123.5q0 -65 -21 -117.5t-57 -90t-83 -58t-99 -20.5q-51 0 -87 13t-59 37
t-33.5 57t-10.5 73q0 94 43.5 165.5t122.5 121.5z" />
    <glyph glyph-name="nine" unicode="9" horiz-adv-x="441" 
d="M297 623q-32 0 -51.5 -24.5t-31 -57.5t-15.5 -66.5t-4 -50.5q0 -26 4.5 -51t15.5 -45t29 -32.5t46 -12.5q45 0 62.5 48t17.5 141q0 69 -18.5 110t-54.5 41zM59 -99q47 14 90 46.5t78.5 75.5t61.5 91t39 93q-20 -17 -44.5 -24.5t-50.5 -7.5q-39 0 -68.5 15t-49.5 41.5
t-30 63t-10 78.5q0 72 19.5 131.5t53 101.5t78 65.5t94.5 23.5q168 0 168 -213q0 -59 -11.5 -123t-34.5 -129t-58 -126.5t-83 -115t-108.5 -95.5t-134.5 -66z" />
    <glyph glyph-name="colon" unicode=":" horiz-adv-x="196" 
d="M121 157q27 0 43.5 -19t16.5 -48q0 -21 -7 -39t-19 -31.5t-27.5 -21.5t-31.5 -8q-28 0 -45.5 19.5t-17.5 49.5q0 20 7.5 37.5t20 31t28 21.5t32.5 8zM172 482q26 0 43 -19.5t17 -48.5q0 -20 -7 -38.5t-19 -32t-27.5 -21.5t-32.5 -8q-28 0 -45 20t-17 50q0 20 7 37.5
t19 31t28 21.5t34 8z" />
    <glyph glyph-name="semicolon" unicode=";" horiz-adv-x="186" 
d="M170 482q27 0 44 -20t17 -49q0 -20 -7.5 -38t-19.5 -31.5t-27.5 -21.5t-32.5 -8q-28 0 -44.5 20t-16.5 50q0 19 7.5 37t19.5 31.5t27.5 21.5t32.5 8zM137 -7q-17 -20 -51.5 -42t-84.5 -46q39 52 57.5 83.5t18.5 44.5q0 29 -56 29q54 95 101 95q27 0 42.5 -18.5
t15.5 -47.5q0 -49 -44 -99z" />
    <glyph glyph-name="less" unicode="&#x3c;" horiz-adv-x="304" 
d="M229 566l149 42l-191 -185l109 -150l-110 -31l-119 165z" />
    <glyph glyph-name="equal" unicode="=" horiz-adv-x="297" 
d="M368 513l-12 -76h-257l11 76h258zM352 410l-12 -76h-258l12 76h258z" />
    <glyph glyph-name="greater" unicode="&#x3e;" horiz-adv-x="304" 
d="M245 589l118 -166l-162 -158l-146 -39l189 181l-108 150z" />
    <glyph glyph-name="question" unicode="?" horiz-adv-x="397" 
d="M125 757q42 59 93.5 82t125.5 23q36 0 64.5 -11t47.5 -30.5t29 -46t10 -57.5q0 -17 -4.5 -40.5t-14.5 -50t-26 -55.5t-40 -56q-26 -30 -56.5 -62t-57 -62t-44 -56t-17.5 -43q0 -7 4 -23t9 -28l-68 -28l-32 99q-5 14 -5 34t14 45t37 54t52.5 61.5t61.5 67.5q18 19 29 39
t18 37t9.5 31t2.5 23q0 22 -7.5 37t-19 24.5t-25.5 13.5t-27 4q-55 0 -125 -85zM224 155q22 -4 35 -22t13 -44q0 -20 -7 -38t-18.5 -31.5t-27 -21.5t-32.5 -8q-29 0 -45.5 19t-16.5 49q0 18 6 34.5t16.5 29.5t24 21.5t28.5 11.5h24z" />
    <glyph glyph-name="at" unicode="@" horiz-adv-x="694" 
d="M563 619l-46 -300q-2 -6 -2 -11.5v-10.5q0 -32 24 -32q14 0 35.5 13t42 45t35 87.5t14.5 140.5q0 70 -17.5 118.5t-46.5 79t-66 44t-76 13.5q-56 0 -105.5 -39t-86.5 -104.5t-59 -151.5t-22 -179q0 -67 13.5 -123t38.5 -96t60.5 -62t79.5 -22q20 0 38 3.5t38 9.5l-5 -34
q-26 -14 -54.5 -19.5t-59.5 -5.5q-58 0 -106.5 22.5t-83 64.5t-53.5 100.5t-19 130.5q0 75 17 145.5t46 133t69.5 114.5t86.5 89t97 58t102 21q50 0 97 -14.5t84 -47.5t59 -86.5t22 -130.5q0 -38 -6.5 -81t-19.5 -84.5t-32 -79.5t-44.5 -67.5t-57 -46.5t-68.5 -17
q-29 0 -47 16t-27 52q-12 -29 -36.5 -48.5t-59.5 -19.5q-38 0 -57 43t-19 112q0 49 9 98.5t26.5 89.5t43.5 65t59 25t58 -17t32 -52l18 54zM484 498q0 2 0.5 5t0.5 7q0 12 -3 25t-8.5 24t-14 18.5t-19.5 7.5q-35 0 -56 -49t-21 -137q0 -25 2.5 -47t8 -38.5t14 -26.5
t19.5 -10q7 0 16 8t17 19.5t14 24t7 22.5z" />
    <glyph glyph-name="A" unicode="A" horiz-adv-x="437" 
d="M174 250h116v389zM422 846v-846h-134v184h-138l-61 -184h-75l272 846h136z" />
    <glyph glyph-name="B" unicode="B" horiz-adv-x="458" 
d="M232 455h57q18 0 34.5 17.5t29 47t20.5 67t8 77.5q0 52 -18.5 83.5t-54.5 31.5h-26zM172 65h23q33 0 60 18.5t46.5 49.5t30.5 72t11 87q0 98 -74 98h-47zM377 846q60 0 94.5 -45t34.5 -123q0 -73 -26 -135t-69 -97q15 -10 27.5 -28t20.5 -40.5t12.5 -48.5t4.5 -51
q0 -66 -22.5 -117.5t-62 -87.5t-93 -54.5t-116.5 -18.5h-151l131 846h215z" />
    <glyph glyph-name="C" unicode="C" horiz-adv-x="514" 
d="M524 671q-5 23 -16 44.5t-26 38t-32.5 26.5t-35.5 10q-38 0 -75 -43t-66 -115.5t-47 -168.5t-18 -201q0 -45 5 -83t15.5 -65.5t26.5 -43t37 -15.5q16 0 34 5t37 17.5t38 33.5t37 52h78q-30 -50 -60.5 -84.5t-63.5 -56t-68.5 -31t-74.5 -9.5q-90 0 -134 56.5t-44 186.5
q0 44 5 95t14 112q15 101 43 181t70.5 135.5t101 84.5t135.5 29q59 0 99 -46t63 -123z" />
    <glyph glyph-name="D" unicode="D" horiz-adv-x="529" 
d="M171 65h69q35 0 66 24.5t56.5 71t45.5 114.5t33 154q9 60 9 113t-9.5 97t-27.5 75t-44.5 48t-60.5 17h-26zM405 846q51 0 85 -25t54.5 -65.5t29 -92.5t8.5 -106q0 -33 -2.5 -65.5t-7.5 -62.5q-19 -123 -49.5 -205.5t-77 -132t-110 -70.5t-148.5 -21h-156l131 846h243z
" />
    <glyph glyph-name="E" unicode="E" horiz-adv-x="423" 
d="M554 846l-10 -67h-262l-50 -322h151l-11 -66h-150l-50 -326h261l-10 -65h-392l131 846h392z" />
    <glyph glyph-name="F" unicode="F" horiz-adv-x="437" 
d="M554 846l-11 -67h-261l-52 -333h184l-11 -67h-184l-58 -379h-130l131 846h392z" />
    <glyph glyph-name="G" unicode="G" horiz-adv-x="519" 
d="M515 671q-3 28 -12.5 50t-23 37.5t-30.5 23.5t-34 8q-40 0 -77.5 -46.5t-67 -124t-47 -178t-17.5 -208.5q0 -84 17.5 -130.5t52.5 -46.5q19 0 41 14.5t41 41t31.5 63.5t12.5 82q0 29 -13.5 38.5t-39.5 11.5l12 42h164l-28 -182q-4 -23 -4 -50q0 -43 13 -82l-68 -38
q-7 16 -11 31.5t-5 29.5q-35 -31 -84 -53.5t-103 -22.5q-42 0 -73 12.5t-51.5 39.5t-30.5 70.5t-10 105.5q0 88 21 222q15 101 43 180.5t70.5 135t100.5 85t135 29.5q69 0 106.5 -44.5t46.5 -124.5z" />
    <glyph glyph-name="H" unicode="H" horiz-adv-x="500" 
d="M293 846l-59 -379h175l59 379h130l-131 -846h-130l62 401h-175l-62 -401h-131l131 846h131z" />
    <glyph glyph-name="I" unicode="I" horiz-adv-x="193" 
d="M292 846l-131 -846h-131l131 846h131z" />
    <glyph glyph-name="J" unicode="J" horiz-adv-x="429" 
d="M532 846l-100 -640q-8 -52 -31.5 -93.5t-58 -70.5t-78 -44.5t-92.5 -15.5q-66 0 -107.5 38.5t-41.5 104.5q0 16 3 34l13 80h69l-13 -85q-1 -5 -1 -15q0 -20 8 -35.5t21 -27t30.5 -17.5t35.5 -6q43 0 70 28.5t35 77.5l106 687h132z" />
    <glyph glyph-name="K" unicode="K" horiz-adv-x="502" 
d="M292 846l-49 -316l289 316h88l-292 -308l149 -538h-135l-113 437l-68 -437h-131l131 846h131z" />
    <glyph glyph-name="L" unicode="L" horiz-adv-x="353" 
d="M291 846l-121 -781h191l-10 -65h-321l131 846h130z" />
    <glyph glyph-name="M" unicode="M" horiz-adv-x="580" 
d="M268 846l76 -550l244 550h93l-131 -846h-129l84 546l-232 -525l-82 534l-85 -555h-76l131 846h107z" />
    <glyph glyph-name="N" unicode="N" horiz-adv-x="459" 
d="M273 846l137 -469l73 469h77l-135 -864h-33l-190 632l-95 -614h-77l131 846h112z" />
    <glyph glyph-name="O" unicode="O" horiz-adv-x="580" 
d="M412 787q-36 0 -72 -41.5t-65 -113.5t-47 -168.5t-18 -206.5q0 -45 5 -82.5t15 -64t25.5 -41.5t35.5 -15q38 0 75 42.5t66 115t47 169t18 204.5q0 93 -21.5 147.5t-63.5 54.5zM455 862q93 0 138 -67t45 -196q0 -127 -24.5 -239.5t-73 -196.5t-121.5 -132.5t-170 -48.5
q-89 0 -133 56.5t-44 185.5q0 59 6 129t22 141t43 137.5t70 117.5t102.5 82t139.5 31z" />
    <glyph glyph-name="P" unicode="P" horiz-adv-x="435" 
d="M224 413h45q15 0 33 12t34.5 30t28 38.5t14.5 37.5l19 118q1 5 1 9v9q0 21 -6.5 41t-18 36t-27.5 25.5t-35 9.5h-31zM408 846q27 0 50 -13t39.5 -35t26 -50t9.5 -58q0 -7 -0.5 -13.5t-1.5 -13.5l-18 -118q-7 -43 -30 -79.5t-59 -63t-81.5 -41.5t-97.5 -15h-31l-54 -346
h-130l131 846h247z" />
    <glyph glyph-name="Q" unicode="Q" horiz-adv-x="575" 
d="M408 787q-35 0 -71.5 -41.5t-65.5 -113t-47.5 -167.5t-18.5 -206q0 -45 5 -83t15.5 -65t26 -42t36.5 -15q37 0 73.5 42.5t65.5 115t47 169.5t18 205q0 93 -21 147t-63 54zM535 -71q-20 -8 -38.5 -11.5t-37.5 -3.5q-40 0 -67 22t-49 69q-21 -14 -49.5 -18.5t-48.5 -4.5
q-89 0 -133 56.5t-44 185.5q0 59 6 129t22 141t43 137.5t70 117.5t102.5 82t139.5 31q92 0 137 -67t45 -195q0 -50 -6 -108t-18 -117t-29.5 -114.5t-40 -100.5t-49.5 -75.5t-58 -38.5q25 -27 50 -48.5t55 -26.5z" />
    <glyph glyph-name="R" unicode="R" horiz-adv-x="481" 
d="M231 455h88q18 0 33 21t25.5 51t16 63t5.5 57q0 60 -22.5 96t-64.5 36h-30zM410 846q32 0 54.5 -14.5t37 -39t21 -56t6.5 -65.5q0 -37 -7.5 -73t-23 -68t-39 -58t-54.5 -41q33 -11 50 -45t17 -81q0 -11 -1 -22.5t-3 -23.5l-24 -152q-1 -6 -1.5 -11.5t-0.5 -10.5
q0 -41 27 -51l-6 -42q-14 -3 -33 -3q-53 0 -85.5 22.5t-32.5 72.5q0 5 0.5 11t1.5 12l30 192q1 5 1 15q0 29 -14 52.5t-33 23.5h-77l-60 -390h-131l131 846h249z" />
    <glyph glyph-name="S" unicode="S" horiz-adv-x="422" 
d="M445 688q-10 49 -30 71.5t-40 22.5q-24 0 -44.5 -8.5t-36 -24t-24 -36.5t-8.5 -46q0 -40 12.5 -72.5t31.5 -62t41.5 -59t41.5 -64.5t31.5 -77.5t12.5 -97.5q0 -68 -20 -115.5t-54.5 -78t-80 -44.5t-96.5 -14q-69 0 -102 37t-44 109l76 49q3 -22 8 -43t14 -37t23 -25.5
t37 -9.5q21 0 40 9t34 27t23.5 44t8.5 60q0 41 -11.5 75.5t-28.5 66.5t-37 64t-37 67.5t-28.5 77t-11.5 93.5q0 40 16.5 79t46.5 69.5t73 49t97 18.5q57 0 90 -28t45 -91z" />
    <glyph glyph-name="T" unicode="T" horiz-adv-x="400" 
d="M524 846l-21 -137h-10q-8 70 -43 70h-62l-120 -779h-132l120 779h-70q-34 0 -60 -69h-10l21 136h387z" />
    <glyph glyph-name="U" unicode="U" horiz-adv-x="457" 
d="M291 846l-104 -673q-1 -5 -1.5 -9t-0.5 -9q0 -42 27.5 -70t68.5 -28q32 0 59.5 28t35.5 74l106 687h77l-102 -657q-11 -70 -38 -111t-62.5 -62.5t-76.5 -27.5t-80 -6q-150 0 -150 131q0 23 4 46l106 687h131z" />
    <glyph glyph-name="V" unicode="V" horiz-adv-x="410" 
d="M257 846v-688l209 688h75l-273 -847h-135v847h124z" />
    <glyph glyph-name="W" unicode="W" horiz-adv-x="575" 
d="M253 846l-19 -688l103 296l-14 392h95v-196l62 196h55l-101 -287l12 -401l199 688h63l-250 -847h-99l-9 346l-113 -346h-107v847h123z" />
    <glyph glyph-name="X" unicode="X" horiz-adv-x="469" 
d="M306 846l46 -315l152 315h78l-206 -399l80 -447h-139l-48 345l-170 -346h-84l230 419l-78 428h139z" />
    <glyph glyph-name="Y" unicode="Y" horiz-adv-x="430" 
d="M274 846l40 -309l159 309h85l-208 -361l-75 -485h-130l64 419l-73 427h138z" />
    <glyph glyph-name="Z" unicode="Z" horiz-adv-x="451" 
d="M569 846l-391 -781h276l-10 -65h-428l391 779h-271l10 67h423z" />
    <glyph glyph-name="bracketleft" unicode="[" horiz-adv-x="246" 
d="M344 903l-4 -29h-110l-160 -1025h110l-4 -30h-166l168 1084h166z" />
    <glyph glyph-name="backslash" unicode="\" horiz-adv-x="315" 
d="M227 846l67 -937h-88l-70 937h91z" />
    <glyph glyph-name="bracketright" unicode="]" horiz-adv-x="246" 
d="M344 903l-168 -1084h-166l4 30h110l159 1025h-110l5 29h166z" />
    <glyph glyph-name="asciicircum" unicode="^" horiz-adv-x="437" 
d="M304 832h87l148 -205h-161l-81 108l-113 -108h-92z" />
    <glyph glyph-name="underscore" unicode="_" horiz-adv-x="556" 
d="M557 -66l-10 -59h-578l10 59h578z" />
    <glyph glyph-name="grave" unicode="`" horiz-adv-x="199" 
d="M297 770l-23 -31l-133 44q-14 5 -22 12.5t-8 19.5q0 19 12 29t32 10q9 -1 19.5 -4t22.5 -11z" />
    <glyph glyph-name="a" unicode="a" 
d="M384 510q1 4 1 8v9q0 16 -3.5 33t-11 31.5t-18.5 24t-26 9.5q-20 0 -39 -19.5t-35 -52.5t-29 -77t-22.5 -91.5t-14.5 -96.5t-5 -93q0 -68 16 -95.5t44 -27.5q16 0 31.5 14t29 35.5t23.5 48t14 51.5zM538 651l-102 -651h-92l-10 66q-20 -35 -57 -58.5t-88 -23.5
q-69 0 -103 54.5t-34 158.5q0 100 21 190t58.5 158.5t90 109t115.5 40.5q36 0 61 -23.5t41 -56.5l48 80z" />
    <glyph glyph-name="b" unicode="b" 
d="M186 170q-1 -5 -1 -14q0 -18 5 -36.5t14.5 -33.5t22 -25t27.5 -10q17 0 34 20.5t32 55t28 79t22.5 92.5t15 96t5.5 89q0 56 -14 87.5t-47 31.5q-18 0 -34 -12t-29 -32t-22.5 -45t-13.5 -51zM294 864l-34 -223q23 24 53 39t66 15q69 0 105 -56.5t36 -163.5q0 -40 -5 -92
t-17 -106.5t-32 -107.5t-51 -94.5t-73 -67t-98 -25.5q-78 0 -96 77l-22 -59h-97l127 818z" />
    <glyph glyph-name="c" unicode="c" horiz-adv-x="442" 
d="M428 541q-8 36 -23.5 58.5t-41.5 22.5q-30 0 -60 -25t-54.5 -74t-40 -122t-15.5 -168q0 -78 22.5 -125t70.5 -47q29 0 53.5 25t51.5 71l51 -31q-44 -72 -94 -108t-115 -36q-42 0 -74.5 18t-54.5 50.5t-33.5 78.5t-11.5 103q0 114 25 200.5t67.5 145t98 88t116.5 29.5
q60 0 91 -32.5t39 -94.5z" />
    <glyph glyph-name="d" unicode="d" horiz-adv-x="457" 
d="M368 467q1 5 1 10v10q0 19 -3.5 41t-11 41.5t-19 32.5t-26.5 13q-26 0 -47.5 -26t-37.5 -73t-24.5 -113t-8.5 -146q0 -38 3 -73t10 -62t18.5 -43t28.5 -16q10 0 22 13t22.5 31.5t18.5 39t10 35.5zM561 864l-134 -864h-97l-4 57q-24 -35 -57.5 -55t-88.5 -20
q-60 0 -92 67.5t-32 182.5q0 31 4 77t14.5 97.5t27.5 103t43.5 92.5t63 67t84.5 26q25 0 41 -3.5t27.5 -9.5t19 -15t15.5 -20l26 171z" />
    <glyph glyph-name="e" unicode="e" horiz-adv-x="477" 
d="M234 442q91 5 141.5 30.5t50.5 71.5q0 13 -2.5 26t-9 23.5t-18 17.5t-29.5 7q-26 0 -47 -14.5t-38 -39t-29 -56.5t-19 -66zM213 359q-7 -43 -10 -72t-3 -57q0 -30 4 -60.5t14 -54.5t27 -39t44 -15t52 24t51 72l52 -31q-42 -69 -91 -106.5t-118 -37.5q-41 0 -73 18t-54 51
t-33.5 78.5t-11.5 99.5q0 87 25.5 170.5t68.5 149.5t100 106t121 40q77 0 111.5 -42t34.5 -118q0 -39 -18 -71.5t-56 -56t-97 -36t-140 -12.5z" />
    <glyph glyph-name="f" unicode="f" horiz-adv-x="325" 
d="M164 681q8 45 27.5 79t46.5 57t58 35t63 12q31 0 57.5 -7t45.5 -23l-35 -64q-12 10 -26.5 16t-31.5 6q-13 0 -25 -10.5t-21.5 -27t-16.5 -36t-10 -37.5h73l-11 -66h-73l-123 -796h-132l123 796h-44l11 66h44z" />
    <glyph glyph-name="g" unicode="g" horiz-adv-x="527" 
d="M334 614q-22 0 -42 -14.5t-35 -42.5t-23.5 -68.5t-8.5 -92.5q0 -29 4.5 -57t15 -51t29 -37t45.5 -14q22 0 41.5 11t33 35.5t21.5 63.5t8 95q0 31 -4.5 62t-14.5 55.5t-27.5 39.5t-42.5 15zM627 640q-14 -51 -32 -76t-47 -31q2 -12 3 -24t1 -24q0 -85 -21.5 -146
t-59 -100.5t-89 -58.5t-110.5 -19q-14 0 -37.5 6t-37.5 12q-3 -4 -4 -9t-1 -8q0 -14 9.5 -27t25.5 -23.5t35 -17t39 -6.5l-2 -24q-80 -16 -128 -37t-48 -58q0 -31 26 -51.5t65 -20.5q23 0 55 4.5t64 11.5t59.5 15.5t41.5 17.5l15 -59q-78 -38 -150.5 -53t-137.5 -15
q-75 0 -121 30t-46 86q0 30 12.5 55t34.5 44.5t52 33.5t66 22q-36 10 -51.5 28t-15.5 32q0 17 18 33.5t47 27.5q-32 29 -45.5 71.5t-13.5 88.5q0 61 21.5 119t59.5 103.5t91.5 73.5t116.5 28q44 0 76 -19t55 -54q9 -4 21 -4q28 0 56 37z" />
    <glyph glyph-name="h" unicode="h" horiz-adv-x="444" 
d="M294 864l-35 -224q12 18 28 28.5t32.5 16.5t32.5 8t28 2q34 0 58.5 -11t40.5 -30t23.5 -45t7.5 -55q0 -21 -3 -40l-79 -514h-131l77 498q1 5 1 9v8q0 17 -5 32.5t-13 27.5t-19.5 19t-24.5 7q-18 0 -31 -11.5t-23 -29.5t-16 -39t-9 -40l-74 -481h-131l127 818z" />
    <glyph glyph-name="i" unicode="i" horiz-adv-x="191" 
d="M268 689l-106 -689h-131l99 643zM232 875q26 0 43 -19.5t17 -48.5q0 -20 -7 -38t-19 -31.5t-27.5 -21t-31.5 -7.5q-29 0 -46 19.5t-17 48.5q0 20 7.5 38t19.5 31.5t28 21t33 7.5z" />
    <glyph glyph-name="j" unicode="j" horiz-adv-x="203" 
d="M277 689l-97 -625q-8 -53 -25 -91.5t-51 -67t-88.5 -49t-138.5 -37.5l-18 68h35q60 0 98.5 30t48.5 90l99 636zM243 875q27 0 44 -19.5t17 -49.5q0 -20 -7.5 -37.5t-19.5 -31t-27.5 -21t-32.5 -7.5q-28 0 -44.5 19t-16.5 49q0 20 7.5 38t19.5 31.5t27.5 21t32.5 7.5z" />
    <glyph glyph-name="k" unicode="k" 
d="M293 864l-70 -454l253 272h87l-229 -248l126 -434h-142l-94 318l-19 -21l-46 -297h-130l127 818z" />
    <glyph glyph-name="l" unicode="l" horiz-adv-x="191" 
d="M294 864l-134 -864h-131l127 818z" />
    <glyph glyph-name="m" unicode="m" horiz-adv-x="647" 
d="M256 689l-7 -44q25 28 56 39t54 11q62 0 88 -54q58 57 133 57q59 0 89.5 -39.5t30.5 -102.5q0 -20 -3 -41l-79 -515h-130l76 499q2 11 3 21.5t1 19.5q0 37 -7.5 57.5t-21.5 20.5q-18 0 -30.5 -10t-20.5 -25.5t-12.5 -33.5t-6.5 -34l-79 -515h-130l76 499q2 10 3 22t1 25
q0 23 -6.5 41.5t-26.5 18.5q-25 0 -43.5 -31.5t-26.5 -79.5l-77 -495h-131l99 643z" />
    <glyph glyph-name="n" unicode="n" horiz-adv-x="456" 
d="M255 689l-7 -48q26 31 58 42.5t63 11.5q64 0 102.5 -39t38.5 -105v-16.5t-2 -17.5l-80 -517h-131l77 501q2 8 2 15.5v14.5q0 37 -14 59.5t-40 22.5q-13 0 -26.5 -8.5t-25.5 -22.5t-20.5 -34t-11.5 -42l-79 -506h-130l99 643z" />
    <glyph glyph-name="o" unicode="o" horiz-adv-x="495" 
d="M325 616q-19 0 -36 -20t-31.5 -52.5t-25.5 -75t-19 -87.5t-12.5 -89t-4.5 -80q0 -75 18.5 -114.5t56.5 -39.5q31 0 56 35.5t42 91t26.5 122t9.5 128.5q0 37 -5 70t-14.5 58t-24.5 39t-36 14zM384 695q77 0 115 -55.5t38 -161.5q0 -48 -6 -103t-20 -110.5t-38 -106.5
t-59 -90t-83.5 -62.5t-111.5 -23.5q-80 0 -117.5 53.5t-37.5 162.5q0 99 17 189.5t55 158.5t99 108.5t149 40.5z" />
    <glyph glyph-name="p" unicode="p" horiz-adv-x="457" 
d="M193 213q-2 -7 -2 -14.5v-15.5q0 -20 3.5 -41t11.5 -39t21 -29.5t33 -11.5q21 0 41 28t35.5 79.5t25 123.5t9.5 160q0 31 -3 60t-10 51.5t-19 36t-30 13.5q-12 0 -24.5 -13t-22 -32t-16.5 -39t-9 -33zM245 689l2 -57q23 29 59.5 46t71.5 17q31 0 54.5 -17.5t39.5 -49.5
t24 -77.5t8 -100.5q0 -53 -7.5 -108.5t-22 -107.5t-36 -97.5t-49 -80t-61.5 -54.5t-73 -20q-30 0 -53 15t-35 51l-35 -229h-131l127 824z" />
    <glyph glyph-name="q" unicode="q" 
d="M384 510q1 4 1 8v9q0 16 -3.5 33t-11 31.5t-18.5 24t-26 9.5q-20 0 -39 -19.5t-35 -52.5t-29 -77t-22.5 -91.5t-14.5 -96.5t-5 -93q0 -68 16 -95.5t44 -27.5q16 0 31.5 14t29 35.5t23.5 48t14 51.5zM538 651l-129 -832h-132l35 226q-22 -34 -54.5 -47.5t-68.5 -13.5
q-69 0 -103 54.5t-34 158.5q0 100 21 190t58.5 158.5t90 109t115.5 40.5q36 0 61 -23.5t41 -56.5l48 80z" />
    <glyph glyph-name="r" unicode="r" horiz-adv-x="343" 
d="M266 689l-13 -84q14 29 28 46.5t28.5 27.5t28 13t25.5 3q38 0 68 -42l-76 -93q-8 5 -16.5 8t-23.5 3q-12 0 -25.5 -10t-26 -29t-23 -46t-15.5 -60l-66 -426h-130l99 643z" />
    <glyph glyph-name="s" unicode="s" horiz-adv-x="417" 
d="M405 535q-16 35 -33.5 56.5t-39.5 21.5q-19 0 -36.5 -4t-31 -14.5t-21.5 -29t-8 -46.5q0 -30 14.5 -53.5t36.5 -44t47.5 -40.5t47.5 -45t36.5 -57t14.5 -76q0 -62 -18.5 -104.5t-51 -68.5t-77 -37t-96.5 -11q-56 0 -96 34.5t-54 111.5l73 49q5 -21 13 -41.5t18.5 -36
t23.5 -25.5t27 -10q16 0 34 9.5t32.5 25.5t24 36t9.5 40q0 25 -14.5 48.5t-35.5 37.5q-26 16 -51 37.5t-44.5 48.5t-31 60t-11.5 71q0 61 19.5 102.5t51 67t72.5 36.5t85 11q51 0 85 -25t51 -81z" />
    <glyph glyph-name="t" unicode="t" horiz-adv-x="316" 
d="M312 818l-21 -136h74l-10 -67h-74l-72 -464q-1 -5 -1.5 -10t-0.5 -10q0 -27 12 -49.5t38 -22.5q15 0 29 7.5t31 28.5l13 -65q-62 -47 -113 -47q-69 0 -104 38.5t-35 104.5q0 20 3 41l69 448h-44l11 66q118 0 158 141z" />
    <glyph glyph-name="u" unicode="u" horiz-adv-x="456" 
d="M264 693l-80 -515q-3 -18 -3 -34q0 -37 15 -59t42 -22q16 0 30 9.5t24.5 24.5t17.5 33t10 35l75 482l137 46l-107 -693h-106l-5 48q-26 -36 -58.5 -51t-67.5 -15q-65 0 -101.5 41t-36.5 111q0 14 3 31l75 482z" />
    <glyph glyph-name="v" unicode="v" horiz-adv-x="410" 
d="M238 682l32 -434l179 434h70l-296 -700h-39l-86 700h140z" />
    <glyph glyph-name="w" unicode="w" horiz-adv-x="629" 
d="M231 682l38 -436l87 202l-25 234h118l41 -436l170 436h70l-286 -700h-39l-30 369l-151 -369h-39l-77 700h123z" />
    <glyph glyph-name="x" unicode="x" horiz-adv-x="477" 
d="M275 682l61 -247l154 247h71l-203 -325l100 -357h-142l-65 246l-147 -247h-82l206 327l-94 356h141z" />
    <glyph glyph-name="y" unicode="y" horiz-adv-x="431" 
d="M251 682l32 -424l179 424h69l-305 -709q-31 -72 -92.5 -113t-137.5 -41l12 79q45 0 83 21t55 58l44 98l-78 607h139z" />
    <glyph glyph-name="z" unicode="z" horiz-adv-x="441" 
d="M538 682l-363 -609h247l-11 -73h-403l362 609h-242l11 73h399z" />
    <glyph glyph-name="braceleft" unicode="{" horiz-adv-x="356" 
d="M440 882q-59 -17 -85 -49.5t-35 -75t-10 -93t-9 -102.5q-23 -140 -166 -200q106 -53 106 -162q0 -19 -3 -40q-3 -18 -10.5 -45.5t-15.5 -57t-14 -57.5t-6 -49q0 -83 86 -112l-3 -21q-74 13 -108 50t-34 106q0 27 6.5 65t14.5 76.5t14.5 72.5t6.5 52q0 95 -81 109l4 24
q45 8 79 45.5t45 103.5q3 18 5 41t4.5 46t4.5 44.5t4 37.5q7 49 22.5 85t40 61.5t59.5 41.5t82 24z" />
    <glyph glyph-name="bar" unicode="|" horiz-adv-x="131" 
d="M224 903l-157 -1016h-47l158 1016h46z" />
    <glyph glyph-name="braceright" unicode="}" horiz-adv-x="356" 
d="M180 903q74 -14 108 -49.5t34 -104.5q0 -18 -6.5 -52t-15 -73.5t-15 -78t-6.5 -64.5q0 -94 82 -108l-4 -24q-57 -8 -85.5 -45.5t-38.5 -103.5q-3 -16 -5 -37t-4 -43.5l-4 -45t-5 -41.5q-16 -99 -63.5 -149t-140.5 -66l4 21q40 12 64.5 33t38.5 47t19.5 56.5t7.5 62t3 63
t6 59.5q23 141 166 202q-107 51 -107 162q0 20 7.5 52.5t17 68.5t17 70.5t7.5 57.5q0 81 -85 109z" />
    <glyph glyph-name="asciitilde" unicode="~" horiz-adv-x="564" 
d="M101 409q17 79 62.5 122.5t109.5 43.5q36 0 61.5 -20t45 -44t36.5 -44t37 -20q12 0 25.5 4.5t26.5 16.5t24.5 32.5t19.5 53.5h50q-6 -39 -23 -70t-40.5 -52.5t-52 -33t-59.5 -11.5q-24 0 -43 9.5t-34.5 24t-28.5 31.5t-25 31.5t-24.5 24t-26.5 9.5q-23 0 -45 -22.5
t-44 -85.5h-52z" />
    <glyph glyph-name="exclamdown" unicode="&#xa1;" horiz-adv-x="214" 
d="M224 722q28 0 44 -19t16 -48q0 -20 -7 -38.5t-19 -32t-27.5 -21.5t-32.5 -8q-28 0 -44 19.5t-16 48.5q0 21 7 39t19 31.5t27.5 21t32.5 7.5zM214 459q-2 -23 -5.5 -62t-7.5 -86t-8 -98t-7.5 -97.5t-5.5 -85t-2 -60.5q0 -20 2 -38t2 -31q0 -18 -8.5 -33t-23 -26t-34 -17
t-41.5 -6q-33 0 -55 17t-22 44q0 11 4.5 24t10.5 27t12 29.5t10 30.5q5 20 14 56.5t20 80.5t23.5 93t23.5 94t20 83t14 61h64z" />
    <glyph glyph-name="sterling" unicode="&#xa3;" horiz-adv-x="522" 
d="M147 345q-1 23 -4.5 42.5t-7.5 38.5t-7 39t-3 46q0 81 24 146t66 110.5t99.5 70t123.5 24.5q58 0 106.5 -42.5t65.5 -124.5l-78 -24q-6 24 -15.5 45.5t-23.5 38t-31.5 26t-39.5 9.5q-29 0 -61 -17.5t-58.5 -51.5t-44 -82.5t-17.5 -110.5q0 -44 7.5 -90t9.5 -93h187
l-9 -66h-181q-6 -41 -13.5 -71t-18.5 -54t-27.5 -43t-41.5 -37q16 7 39 9t39 2q18 0 32 -3.5t28 -8t30 -8t37 -3.5q30 0 63.5 8.5t71.5 33.5l-11 -69q-45 -24 -78.5 -32.5t-62.5 -8.5q-21 0 -40 3t-38.5 7t-40 7t-43.5 3q-27 0 -58 -5.5t-69 -19.5l-20 21q15 32 33 61.5
t34 60.5t28.5 66.5t17.5 80.5h-58l10 66h49z" />
    <glyph glyph-name="yen" unicode="&#xa5;" horiz-adv-x="442" 
d="M281 846l34 -351l165 351h85l-215 -404l-14 -93h119l-12 -77h-119l-12 -81h118l-11 -77h-119l-18 -114h-130l18 114h-113l12 77h112l13 81h-113l12 77h113l4 28l-67 469h138z" />
    <glyph glyph-name="dieresis" unicode="&#xa8;" horiz-adv-x="296" 
d="M355 854q17 0 29 -13t12 -33q0 -27 -18.5 -46.5t-40.5 -19.5q-19 0 -31 13t-12 33q0 26 18.5 46t42.5 20zM202 854q19 0 30.5 -13t11.5 -33q0 -13 -5 -25t-13.5 -21t-19 -14.5t-21.5 -5.5q-20 0 -31.5 13.5t-11.5 33.5q0 13 5.5 25t14 21t19 14t21.5 5z" />
    <glyph glyph-name="copyright" unicode="&#xa9;" horiz-adv-x="789" 
d="M58 418q0 87 33 163.5t90 133.5t133.5 90t163.5 33t163 -33t133 -90t90 -133.5t33 -163.5t-33 -163t-90 -133t-133 -90t-163 -33t-163.5 33t-133.5 90t-90 133t-33 163zM479 791q-77 0 -145 -29.5t-118.5 -80.5t-79.5 -119.5t-29 -145.5t29 -144.5t79.5 -117.5t118.5 -79
t145 -29q76 0 144 29t118.5 79t80 117.5t29.5 144.5t-29.5 145.5t-80 119.5t-118.5 80.5t-144 29.5zM591 560q-23 41 -84 45q-72 -5 -101 -51.5t-29 -135.5q0 -84 36 -132.5t105 -48.5q45 0 90 48l21 -8q-58 -62 -150 -62q-94 0 -142 56.5t-50 153.5q13 198 215 198
q45 0 73.5 -12.5t42.5 -43.5z" />
    <glyph glyph-name="ordfeminine" unicode="&#xaa;" horiz-adv-x="326" 
d="M157 783q29 43 63.5 61t72.5 18q46 0 71.5 -26.5t25.5 -64.5v-9t-1 -9l-41 -267q-1 -5 -1 -14q0 -24 13 -51h-62q-7 8 -10 20t-3 25v11q-15 -29 -37.5 -48.5t-57.5 -19.5q-48 0 -68.5 26t-20.5 68q0 59 34.5 105.5t110.5 61.5q20 4 32.5 13.5t20.5 29.5l5 31q1 5 1 8.5
v7.5q0 23 -12.5 36.5t-33.5 13.5q-15 0 -31.5 -13.5t-33.5 -35.5zM287 634q-29 -16 -49 -26.5t-32.5 -23.5t-18.5 -32.5t-6 -53.5q0 -23 8.5 -33t28.5 -10q14 0 27.5 15.5t22.5 38.5z" />
    <glyph glyph-name="guillemotleft" unicode="&#xab;" horiz-adv-x="361" 
d="M264 478l-11 -68l-105 -51l90 -52l-11 -65l-135 84l9 64zM406 478l-11 -68l-105 -51l89 -52l-10 -65l-136 84l10 64z" />
    <glyph glyph-name="registered" unicode="&#xae;" horiz-adv-x="543" 
d="M162 614q0 -36 14.5 -71.5t41 -63.5t65 -45t86.5 -17q45 0 85 15t70 41.5t47.5 62.5t17.5 78q0 36 -16.5 71t-45.5 62.5t-69.5 44.5t-88.5 17t-86.5 -17t-65 -44.5t-41 -62.5t-14.5 -71zM114 614q0 49 19 93t53 77t81 52.5t103 19.5q57 0 104.5 -18.5t82 -51.5t54 -77
t19.5 -95q0 -48 -20 -91.5t-55 -76.5t-82.5 -53t-102.5 -20q-56 0 -103 20t-81 53t-53 76.5t-19 91.5zM395 746q31 0 51 -20t20 -48q0 -23 -12 -39.5t-39 -22.5q52 -4 52 -53v-50q0 -9 9 -13t17 -6v-11q-3 -1 -13 -1h-13q-30 0 -45 8.5t-15 22.5v64q0 24 -40 24h-37v-114
h-48v259h113zM330 632h36q40 0 40 39q0 30 -16.5 43.5t-38.5 13.5h-21v-96z" />
    <glyph glyph-name="degree" unicode="&#xb0;" horiz-adv-x="307" 
d="M109 705q0 33 13 61t34 48.5t49 32t58 11.5q29 0 57 -11.5t49.5 -32t34.5 -48.5t13 -61q0 -32 -13 -60.5t-34.5 -49.5t-49.5 -33.5t-57 -12.5t-57 11.5t-49.5 32.5t-34.5 49.5t-13 62.5zM164 705q0 -22 8.5 -40t22 -31t31.5 -20t37 -7t36 7t30.5 20t21.5 31t8 40t-8 40
t-21.5 31t-30.5 19.5t-36 6.5t-37 -6.5t-31.5 -19.5t-22 -31t-8.5 -40z" />
    <glyph glyph-name="acute" unicode="&#xb4;" horiz-adv-x="199" 
d="M264 839q14 8 25.5 11.5t21.5 3.5q34 0 34 -26q0 -32 -41 -45l-146 -44l-16 31z" />
    <glyph glyph-name="periodcentered" unicode="&#xb7;" horiz-adv-x="190" 
d="M171 498q27 0 44 -19.5t17 -49.5q0 -20 -7.5 -37.5t-19.5 -31t-27.5 -21.5t-32.5 -8q-27 0 -44 19.5t-17 48.5q0 20 7 38t19 31.5t28 21.5t33 8z" />
    <glyph glyph-name="cedilla" unicode="&#xb8;" horiz-adv-x="166" 
d="M152 23l-25 -52q26 -3 41.5 -14.5t15.5 -37.5q0 -48 -37.5 -70.5t-127.5 -22.5l5 29q21 0 37.5 2t28.5 8t18 17.5t6 30.5q0 20 -12 25t-29 5l28 74z" />
    <glyph glyph-name="ordmasculine" unicode="&#xba;" horiz-adv-x="345" 
d="M319 627q2 17 4 34.5t2 34.5q0 48 -12.5 81.5t-38.5 33.5q-13 0 -23.5 -8t-19.5 -26.5t-17 -50t-15 -78.5q-5 -27 -6.5 -51t-1.5 -44q0 -48 12 -73.5t36 -25.5q36 0 51 42t29 131zM310 862q50 0 74.5 -35.5t24.5 -104.5q0 -86 -16.5 -146.5t-45 -98.5t-65.5 -55t-77 -17
q-99 0 -99 140q0 64 11 121.5t35.5 101t63.5 69t94 25.5z" />
    <glyph glyph-name="guillemotright" unicode="&#xbb;" horiz-adv-x="373" 
d="M404 394l-10 -64l-163 -88l11 68l105 51l-89 52l10 65zM263 394l-10 -64l-164 -88l10 68l106 51l-90 52l11 65z" />
    <glyph glyph-name="questiondown" unicode="&#xbf;" horiz-adv-x="397" 
d="M317 469l31 -100l4 -16t2 -17q0 -20 -14.5 -45.5t-38 -55t-53.5 -62t-61 -66.5q-18 -20 -29 -40t-17.5 -37.5t-9 -31t-2.5 -20.5q0 -23 7.5 -38.5t19.5 -24.5t26 -13t27 -4q52 0 125 85l36 -58q-42 -59 -93 -82.5t-125 -23.5t-112 42t-38 106q0 16 4.5 39t14.5 49.5
t26 55t39 55.5q26 30 55.5 61.5t55.5 60.5t44 54.5t21 43.5q0 5 -4.5 22.5t-9.5 31.5zM272 526q-23 5 -36 22.5t-13 43.5q0 20 7 38t19 31.5t28 21.5t33 8q27 0 44 -19.5t17 -48.5q0 -37 -22.5 -64t-51.5 -33h-25z" />
    <glyph glyph-name="Agrave" unicode="&#xc0;" horiz-adv-x="445" 
d="M14 0zM174 250h116v389zM422 846v-846h-134v184h-138l-61 -184h-75l272 846h136zM442 933l-23 -31l-133 44q-14 5 -22 12.5t-8 19.5q0 19 12 29t32 10q9 -1 19.5 -4t22.5 -11z" />
    <glyph glyph-name="Aacute" unicode="&#xc1;" horiz-adv-x="445" 
d="M14 0zM174 250h116v389zM422 846v-846h-134v184h-138l-61 -184h-75l272 846h136zM411 1002q14 8 25.5 11.5t21.5 3.5q34 0 34 -26q0 -32 -41 -45l-146 -44l-16 31z" />
    <glyph glyph-name="Acircumflex" unicode="&#xc2;" horiz-adv-x="445" 
d="M14 0zM174 250h116v389zM422 846v-846h-134v184h-138l-61 -184h-75l272 846h136zM378 1018l74 -42q12 -8 19.5 -21t7.5 -22q0 -14 -9 -21.5t-20 -7.5q-16 0 -37.5 18t-41.5 41q-30 -23 -56 -41t-42 -18q-22 0 -22 18q0 7 8 24t34 30z" />
    <glyph glyph-name="Atilde" unicode="&#xc3;" horiz-adv-x="445" 
d="M14 0zM174 250h116v389zM422 846v-846h-134v184h-138l-61 -184h-75l272 846h136zM229 915q10 48 36.5 75t63.5 27q21 0 35.5 -11t25.5 -24t19.5 -24t18.5 -11q11 0 24.5 11.5t22.5 46.5h37q-8 -48 -37 -74.5t-65 -26.5q-21 0 -35.5 11t-25 23.5t-20 23.5t-19.5 11
q-11 0 -21 -11.5t-23 -46.5h-37z" />
    <glyph glyph-name="Adieresis" unicode="&#xc4;" horiz-adv-x="445" 
d="M14 0zM174 250h116v389zM422 846v-846h-134v184h-138l-61 -184h-75l272 846h136zM456 1017q17 0 29 -13t12 -33q0 -27 -18.5 -46.5t-40.5 -19.5q-19 0 -31 13t-12 33q0 26 18.5 46t42.5 20zM303 1017q19 0 30.5 -13t11.5 -33q0 -13 -5 -25t-13.5 -21t-19 -14.5
t-21.5 -5.5q-20 0 -31.5 13.5t-11.5 33.5q0 13 5.5 25t14 21t19 14t21.5 5z" />
    <glyph glyph-name="Aring" unicode="&#xc5;" horiz-adv-x="437" 
d="M266 929q0 19 7.5 35.5t19.5 28.5t28 18.5t34 6.5t34 -6.5t29 -18.5t20.5 -28.5t7.5 -35.5q0 -28 -15 -50t-38 -33h29v-846h-134v184h-138l-61 -184h-75l272 846h31q-22 11 -36.5 32.5t-14.5 50.5zM174 250h116v389zM307 929q0 -22 15 -35t33 -13t32.5 13t14.5 35
q0 21 -14.5 33.5t-32.5 12.5t-33 -12.5t-15 -33.5z" />
    <glyph glyph-name="AE" unicode="&#xc6;" horiz-adv-x="459" 
d="M138 250h64l68 445zM574 846l-11 -67h-166l-82 -529h94l-10 -66h-95l-18 -119h166l-9 -65h-280l28 184h-77l-55 -184h-53l267 846h301z" />
    <glyph glyph-name="Ccedilla" unicode="&#xc7;" horiz-adv-x="522" 
d="M532 671q-5 23 -15.5 44.5t-25.5 38t-32.5 26.5t-36.5 10q-38 0 -75 -43t-66 -115.5t-47 -168.5t-18 -201q0 -45 5.5 -83t16 -65.5t26.5 -43t37 -15.5q30 0 69.5 23t75.5 85h78q-52 -86 -106.5 -127.5t-118.5 -50.5l-7 -14q26 -3 42 -14.5t16 -37.5q0 -48 -37.5 -70.5
t-127.5 -22.5l4 29q22 0 39 2t28.5 8t17.5 17.5t6 30.5q0 20 -12 25t-30 5l16 39q-88 1 -131.5 58t-43.5 187q0 43 5 94t14 111q15 101 43 181t70.5 135.5t101 84.5t135.5 29q59 0 99 -46t63 -123z" />
    <glyph glyph-name="Egrave" unicode="&#xc8;" horiz-adv-x="438" 
d="M31 0zM554 846l-10 -67h-262l-50 -322h151l-11 -66h-150l-50 -326h261l-10 -65h-392l131 846h392zM439 933l-23 -31l-133 44q-14 5 -22 12.5t-8 19.5q0 19 12 29t32 10q9 -1 19.5 -4t22.5 -11z" />
    <glyph glyph-name="Eacute" unicode="&#xc9;" horiz-adv-x="438" 
d="M31 0zM554 846l-10 -67h-262l-50 -322h151l-11 -66h-150l-50 -326h261l-10 -65h-392l131 846h392zM407 1002q14 8 25.5 11.5t21.5 3.5q34 0 34 -26q0 -32 -41 -45l-146 -44l-16 31z" />
    <glyph glyph-name="Ecircumflex" unicode="&#xca;" horiz-adv-x="438" 
d="M31 0zM554 846l-10 -67h-262l-50 -322h151l-11 -66h-150l-50 -326h261l-10 -65h-392l131 846h392zM375 1018l74 -42q12 -8 19.5 -21t7.5 -22q0 -14 -9 -21.5t-20 -7.5q-16 0 -37.5 18t-41.5 41q-30 -23 -56 -41t-42 -18q-22 0 -22 18q0 7 8 24t34 30z" />
    <glyph glyph-name="Edieresis" unicode="&#xcb;" horiz-adv-x="438" 
d="M31 0zM554 846l-10 -67h-262l-50 -322h151l-11 -66h-150l-50 -326h261l-10 -65h-392l131 846h392zM453 1017q17 0 29 -13t12 -33q0 -27 -18.5 -46.5t-40.5 -19.5q-19 0 -31 13t-12 33q0 26 18.5 46t42.5 20zM300 1017q19 0 30.5 -13t11.5 -33q0 -13 -5 -25t-13.5 -21
t-19 -14.5t-21.5 -5.5q-20 0 -31.5 13.5t-11.5 33.5q0 13 5.5 25t14 21t19 14t21.5 5z" />
    <glyph glyph-name="Igrave" unicode="&#xcc;" horiz-adv-x="209" 
d="M30 0zM292 846l-131 -846h-131l131 846h131zM323 933l-23 -31l-133 44q-14 5 -22 12.5t-8 19.5q0 19 12 29t32 10q9 -1 19.5 -4t22.5 -11z" />
    <glyph glyph-name="Iacute" unicode="&#xcd;" horiz-adv-x="209" 
d="M30 0zM292 846l-131 -846h-131l131 846h131zM293 1002q14 8 25.5 11.5t21.5 3.5q34 0 34 -26q0 -32 -41 -45l-146 -44l-16 31z" />
    <glyph glyph-name="Icircumflex" unicode="&#xce;" horiz-adv-x="209" 
d="M30 0zM292 846l-131 -846h-131l131 846h131zM261 1018l74 -42q12 -8 19.5 -21t7.5 -22q0 -14 -9 -21.5t-20 -7.5q-16 0 -37.5 18t-41.5 41q-30 -23 -56 -41t-42 -18q-22 0 -22 18q0 7 8 24t34 30z" />
    <glyph glyph-name="Idieresis" unicode="&#xcf;" horiz-adv-x="209" 
d="M30 0zM292 846l-131 -846h-131l131 846h131zM340 1017q17 0 29 -13t12 -33q0 -27 -18.5 -46.5t-40.5 -19.5q-19 0 -31 13t-12 33q0 26 18.5 46t42.5 20zM187 1017q19 0 30.5 -13t11.5 -33q0 -13 -5 -25t-13.5 -21t-19 -14.5t-21.5 -5.5q-20 0 -31.5 13.5t-11.5 33.5
q0 13 5.5 25t14 21t19 14t21.5 5z" />
    <glyph glyph-name="Ntilde" unicode="&#xd1;" horiz-adv-x="476" 
d="M30 0zM273 846l137 -469l73 469h77l-135 -864h-33l-190 632l-95 -614h-77l131 846h112zM245 915q10 48 36.5 75t63.5 27q21 0 35.5 -11t25.5 -24t19.5 -24t18.5 -11q11 0 24.5 11.5t22.5 46.5h37q-8 -48 -37 -74.5t-65 -26.5q-21 0 -35.5 11t-25 23.5t-20 23.5t-19.5 11
q-11 0 -21 -11.5t-23 -46.5h-37z" />
    <glyph glyph-name="Ograve" unicode="&#xd2;" horiz-adv-x="598" 
d="M72 0zM412 787q-36 0 -72 -41.5t-65 -113.5t-47 -168.5t-18 -206.5q0 -45 5 -82.5t15 -64t25.5 -41.5t35.5 -15q38 0 75 42.5t66 115t47 169t18 204.5q0 93 -21.5 147.5t-63.5 54.5zM455 862q93 0 138 -67t45 -196q0 -127 -24.5 -239.5t-73 -196.5t-121.5 -132.5
t-170 -48.5q-89 0 -133 56.5t-44 185.5q0 59 6 129t22 141t43 137.5t70 117.5t102.5 82t139.5 31zM518 933l-23 -31l-133 44q-14 5 -22 12.5t-8 19.5q0 19 12 29t32 10q9 -1 19.5 -4t22.5 -11z" />
    <glyph glyph-name="Oacute" unicode="&#xd3;" horiz-adv-x="598" 
d="M72 0zM412 787q-36 0 -72 -41.5t-65 -113.5t-47 -168.5t-18 -206.5q0 -45 5 -82.5t15 -64t25.5 -41.5t35.5 -15q38 0 75 42.5t66 115t47 169t18 204.5q0 93 -21.5 147.5t-63.5 54.5zM455 862q93 0 138 -67t45 -196q0 -127 -24.5 -239.5t-73 -196.5t-121.5 -132.5
t-170 -48.5q-89 0 -133 56.5t-44 185.5q0 59 6 129t22 141t43 137.5t70 117.5t102.5 82t139.5 31zM487 1002q14 8 25.5 11.5t21.5 3.5q34 0 34 -26q0 -32 -41 -45l-146 -44l-16 31z" />
    <glyph glyph-name="Ocircumflex" unicode="&#xd4;" horiz-adv-x="598" 
d="M72 0zM412 787q-36 0 -72 -41.5t-65 -113.5t-47 -168.5t-18 -206.5q0 -45 5 -82.5t15 -64t25.5 -41.5t35.5 -15q38 0 75 42.5t66 115t47 169t18 204.5q0 93 -21.5 147.5t-63.5 54.5zM455 862q93 0 138 -67t45 -196q0 -127 -24.5 -239.5t-73 -196.5t-121.5 -132.5
t-170 -48.5q-89 0 -133 56.5t-44 185.5q0 59 6 129t22 141t43 137.5t70 117.5t102.5 82t139.5 31zM455 1018l74 -42q12 -8 19.5 -21t7.5 -22q0 -14 -9 -21.5t-20 -7.5q-16 0 -37.5 18t-41.5 41q-30 -23 -56 -41t-42 -18q-22 0 -22 18q0 7 8 24t34 30z" />
    <glyph glyph-name="Otilde" unicode="&#xd5;" horiz-adv-x="598" 
d="M72 0zM412 787q-36 0 -72 -41.5t-65 -113.5t-47 -168.5t-18 -206.5q0 -45 5 -82.5t15 -64t25.5 -41.5t35.5 -15q38 0 75 42.5t66 115t47 169t18 204.5q0 93 -21.5 147.5t-63.5 54.5zM455 862q93 0 138 -67t45 -196q0 -127 -24.5 -239.5t-73 -196.5t-121.5 -132.5
t-170 -48.5q-89 0 -133 56.5t-44 185.5q0 59 6 129t22 141t43 137.5t70 117.5t102.5 82t139.5 31zM304 915q10 48 36.5 75t63.5 27q21 0 35.5 -11t25.5 -24t19.5 -24t18.5 -11q11 0 24.5 11.5t22.5 46.5h37q-8 -48 -37 -74.5t-65 -26.5q-21 0 -35.5 11t-25 23.5t-20 23.5
t-19.5 11q-11 0 -21 -11.5t-23 -46.5h-37z" />
    <glyph glyph-name="Odieresis" unicode="&#xd6;" horiz-adv-x="598" 
d="M72 0zM412 787q-36 0 -72 -41.5t-65 -113.5t-47 -168.5t-18 -206.5q0 -45 5 -82.5t15 -64t25.5 -41.5t35.5 -15q38 0 75 42.5t66 115t47 169t18 204.5q0 93 -21.5 147.5t-63.5 54.5zM455 862q93 0 138 -67t45 -196q0 -127 -24.5 -239.5t-73 -196.5t-121.5 -132.5
t-170 -48.5q-89 0 -133 56.5t-44 185.5q0 59 6 129t22 141t43 137.5t70 117.5t102.5 82t139.5 31zM533 1017q17 0 29 -13t12 -33q0 -27 -18.5 -46.5t-40.5 -19.5q-19 0 -31 13t-12 33q0 26 18.5 46t42.5 20zM380 1017q19 0 30.5 -13t11.5 -33q0 -13 -5 -25t-13.5 -21
t-19 -14.5t-21.5 -5.5q-20 0 -31.5 13.5t-11.5 33.5q0 13 5.5 25t14 21t19 14t21.5 5z" />
    <glyph glyph-name="multiply" unicode="&#xd7;" horiz-adv-x="315" 
d="M377 515l-90 -91l90 -91l-46 -46l-91 91l-97 -98l-51 50l98 99l-90 89l46 45l90 -89l92 92z" />
    <glyph glyph-name="Oslash" unicode="&#xd8;" horiz-adv-x="580" 
d="M623 874l-36 -72q51 -66 51 -202q0 -35 -3 -74t-10 -83q-19 -120 -49.5 -207.5t-76 -143.5t-107.5 -83t-143 -27q-43 0 -76 12l-30 -59l-59 31l34 69q-47 59 -47 189q0 44 5 95.5t15 112.5q16 103 44 183t72 135t105 83.5t143 28.5q43 0 76 -15l29 58zM231 107
q20 -53 60 -53q43 0 80 46.5t65 125.5t44 182.5t16 216.5zM473 736q-22 51 -61 51q-37 0 -73 -43t-65 -116.5t-47 -172t-18 -210.5q0 -7 0.5 -13.5t0.5 -13.5z" />
    <glyph glyph-name="Ugrave" unicode="&#xd9;" horiz-adv-x="473" 
d="M50 0zM291 846l-104 -673q-1 -5 -1.5 -9t-0.5 -9q0 -42 27.5 -70t68.5 -28q32 0 59.5 28t35.5 74l106 687h77l-102 -657q-11 -70 -38 -111t-62.5 -62.5t-76.5 -27.5t-80 -6q-150 0 -150 131q0 23 4 46l106 687h131zM455 933l-23 -31l-133 44q-14 5 -22 12.5t-8 19.5
q0 19 12 29t32 10q9 -1 19.5 -4t22.5 -11z" />
    <glyph glyph-name="Uacute" unicode="&#xda;" horiz-adv-x="473" 
d="M50 0zM291 846l-104 -673q-1 -5 -1.5 -9t-0.5 -9q0 -42 27.5 -70t68.5 -28q32 0 59.5 28t35.5 74l106 687h77l-102 -657q-11 -70 -38 -111t-62.5 -62.5t-76.5 -27.5t-80 -6q-150 0 -150 131q0 23 4 46l106 687h131zM424 1002q14 8 25.5 11.5t21.5 3.5q34 0 34 -26
q0 -32 -41 -45l-146 -44l-16 31z" />
    <glyph glyph-name="Ucircumflex" unicode="&#xdb;" horiz-adv-x="473" 
d="M50 0zM291 846l-104 -673q-1 -5 -1.5 -9t-0.5 -9q0 -42 27.5 -70t68.5 -28q32 0 59.5 28t35.5 74l106 687h77l-102 -657q-11 -70 -38 -111t-62.5 -62.5t-76.5 -27.5t-80 -6q-150 0 -150 131q0 23 4 46l106 687h131zM392 1018l74 -42q12 -8 19.5 -21t7.5 -22
q0 -14 -9 -21.5t-20 -7.5q-16 0 -37.5 18t-41.5 41q-30 -23 -56 -41t-42 -18q-22 0 -22 18q0 7 8 24t34 30z" />
    <glyph glyph-name="Udieresis" unicode="&#xdc;" horiz-adv-x="473" 
d="M50 0zM291 846l-104 -673q-1 -5 -1.5 -9t-0.5 -9q0 -42 27.5 -70t68.5 -28q32 0 59.5 28t35.5 74l106 687h77l-102 -657q-11 -70 -38 -111t-62.5 -62.5t-76.5 -27.5t-80 -6q-150 0 -150 131q0 23 4 46l106 687h131zM470 1017q17 0 29 -13t12 -33q0 -27 -18.5 -46.5
t-40.5 -19.5q-19 0 -31 13t-12 33q0 26 18.5 46t42.5 20zM317 1017q19 0 30.5 -13t11.5 -33q0 -13 -5 -25t-13.5 -21t-19 -14.5t-21.5 -5.5q-20 0 -31.5 13.5t-11.5 33.5q0 13 5.5 25t14 21t19 14t21.5 5z" />
    <glyph glyph-name="Yacute" unicode="&#xdd;" horiz-adv-x="442" 
d="M136 0zM274 846l40 -309l159 309h85l-208 -361l-75 -485h-130l64 419l-73 427h138zM409 1002q14 8 25.5 11.5t21.5 3.5q34 0 34 -26q0 -32 -41 -45l-146 -44l-16 31z" />
    <glyph glyph-name="Thorn" unicode="&#xde;" horiz-adv-x="451" 
d="M209 263h45q15 0 33 12t34.5 30t28 39t14.5 38l18 117q1 5 1 10v10q0 21 -6.5 41t-18 35.5t-27 25t-34.5 9.5h-31zM299 846l-24 -150h118q27 0 49.5 -13t39.5 -35t26.5 -50t9.5 -58q0 -7 -0.5 -13.5t-1.5 -13.5l-19 -118q-7 -43 -31.5 -79.5t-60.5 -62.5t-81.5 -41
t-94.5 -15h-31l-30 -197h-130l131 846h130z" />
    <glyph glyph-name="germandbls" unicode="&#xdf;" horiz-adv-x="452" 
d="M159 0h-131l104 672q15 97 76.5 144.5t156.5 47.5q72 0 108 -45t36 -123q0 -20 -3.5 -54t-14 -71.5t-30 -72.5t-50.5 -56q12 -8 23.5 -23.5t20.5 -35t14.5 -42t5.5 -45.5q0 -6 -0.5 -11.5t-1.5 -11.5q-11 -64 -31 -116t-52 -88.5t-78 -56t-109 -19.5l10 62q31 0 54 21
t38.5 55t23.5 78t8 90q0 42 -19.5 67t-64.5 25l3 41q37 11 64 34t45 55.5t26.5 72t8.5 83.5q0 54 -17 84t-49 30q-22 0 -42 -29.5t-27 -75.5z" />
    <glyph glyph-name="agrave" unicode="&#xe0;" 
d="M52 0zM384 510q1 4 1 8v9q0 16 -3.5 33t-11 31.5t-18.5 24t-26 9.5q-20 0 -39 -19.5t-35 -52.5t-29 -77t-22.5 -91.5t-14.5 -96.5t-5 -93q0 -68 16 -95.5t44 -27.5q16 0 31.5 14t29 35.5t23.5 48t14 51.5zM538 651l-102 -651h-92l-10 66q-20 -35 -57 -58.5t-88 -23.5
q-69 0 -103 54.5t-34 158.5q0 100 21 190t58.5 158.5t90 109t115.5 40.5q36 0 61 -23.5t41 -56.5l48 80zM425 770l-23 -31l-133 44q-14 5 -22 12.5t-8 19.5q0 19 12 29t32 10q9 -1 19.5 -4t22.5 -11z" />
    <glyph glyph-name="aacute" unicode="&#xe1;" 
d="M52 0zM384 510q1 4 1 8v9q0 16 -3.5 33t-11 31.5t-18.5 24t-26 9.5q-20 0 -39 -19.5t-35 -52.5t-29 -77t-22.5 -91.5t-14.5 -96.5t-5 -93q0 -68 16 -95.5t44 -27.5q16 0 31.5 14t29 35.5t23.5 48t14 51.5zM538 651l-102 -651h-92l-10 66q-20 -35 -57 -58.5t-88 -23.5
q-69 0 -103 54.5t-34 158.5q0 100 21 190t58.5 158.5t90 109t115.5 40.5q36 0 61 -23.5t41 -56.5l48 80zM393 839q14 8 25.5 11.5t21.5 3.5q34 0 34 -26q0 -32 -41 -45l-146 -44l-16 31z" />
    <glyph glyph-name="acircumflex" unicode="&#xe2;" 
d="M52 0zM384 510q1 4 1 8v9q0 16 -3.5 33t-11 31.5t-18.5 24t-26 9.5q-20 0 -39 -19.5t-35 -52.5t-29 -77t-22.5 -91.5t-14.5 -96.5t-5 -93q0 -68 16 -95.5t44 -27.5q16 0 31.5 14t29 35.5t23.5 48t14 51.5zM538 651l-102 -651h-92l-10 66q-20 -35 -57 -58.5t-88 -23.5
q-69 0 -103 54.5t-34 158.5q0 100 21 190t58.5 158.5t90 109t115.5 40.5q36 0 61 -23.5t41 -56.5l48 80zM361 855l74 -42q12 -8 19.5 -21t7.5 -22q0 -14 -9 -21.5t-20 -7.5q-16 0 -37.5 18t-41.5 41q-30 -23 -56 -41t-42 -18q-22 0 -22 18q0 7 8 24t34 30z" />
    <glyph glyph-name="atilde" unicode="&#xe3;" 
d="M52 0zM384 510q1 4 1 8v9q0 16 -3.5 33t-11 31.5t-18.5 24t-26 9.5q-20 0 -39 -19.5t-35 -52.5t-29 -77t-22.5 -91.5t-14.5 -96.5t-5 -93q0 -68 16 -95.5t44 -27.5q16 0 31.5 14t29 35.5t23.5 48t14 51.5zM538 651l-102 -651h-92l-10 66q-20 -35 -57 -58.5t-88 -23.5
q-69 0 -103 54.5t-34 158.5q0 100 21 190t58.5 158.5t90 109t115.5 40.5q36 0 61 -23.5t41 -56.5l48 80zM211 752q10 48 36.5 75t63.5 27q21 0 35.5 -11t25.5 -24t19.5 -24t18.5 -11q11 0 24.5 11.5t22.5 46.5h37q-8 -48 -37 -74.5t-65 -26.5q-21 0 -35.5 11t-25 23.5
t-20 23.5t-19.5 11q-11 0 -21 -11.5t-23 -46.5h-37z" />
    <glyph glyph-name="adieresis" unicode="&#xe4;" 
d="M52 0zM384 510q1 4 1 8v9q0 16 -3.5 33t-11 31.5t-18.5 24t-26 9.5q-20 0 -39 -19.5t-35 -52.5t-29 -77t-22.5 -91.5t-14.5 -96.5t-5 -93q0 -68 16 -95.5t44 -27.5q16 0 31.5 14t29 35.5t23.5 48t14 51.5zM538 651l-102 -651h-92l-10 66q-20 -35 -57 -58.5t-88 -23.5
q-69 0 -103 54.5t-34 158.5q0 100 21 190t58.5 158.5t90 109t115.5 40.5q36 0 61 -23.5t41 -56.5l48 80zM439 854q17 0 29 -13t12 -33q0 -27 -18.5 -46.5t-40.5 -19.5q-19 0 -31 13t-12 33q0 26 18.5 46t42.5 20zM286 854q19 0 30.5 -13t11.5 -33q0 -13 -5 -25t-13.5 -21
t-19 -14.5t-21.5 -5.5q-20 0 -31.5 13.5t-11.5 33.5q0 13 5.5 25t14 21t19 14t21.5 5z" />
    <glyph glyph-name="aring" unicode="&#xe5;" 
d="M52 0zM384 510q1 4 1 8v9q0 16 -3.5 33t-11 31.5t-18.5 24t-26 9.5q-20 0 -39 -19.5t-35 -52.5t-29 -77t-22.5 -91.5t-14.5 -96.5t-5 -93q0 -68 16 -95.5t44 -27.5q16 0 31.5 14t29 35.5t23.5 48t14 51.5zM538 651l-102 -651h-92l-10 66q-20 -35 -57 -58.5t-88 -23.5
q-69 0 -103 54.5t-34 158.5q0 100 21 190t58.5 158.5t90 109t115.5 40.5q36 0 61 -23.5t41 -56.5l48 80zM323 821q0 19 7.5 35.5t19.5 28.5t28 18.5t34 6.5t34 -6.5t29 -18.5t20.5 -28.5t7.5 -35.5t-7.5 -36t-20.5 -29.5t-29 -19.5t-34 -7q-17 0 -33 7t-28.5 19t-20 29
t-7.5 37zM364 821q0 -22 15 -35t33 -13t32.5 13t14.5 35q0 21 -14.5 33.5t-32.5 12.5t-33 -12.5t-15 -33.5z" />
    <glyph glyph-name="ae" unicode="&#xe6;" horiz-adv-x="751" 
d="M495 426q48 6 85 19.5t62 30.5t38 36t13 37q0 40 -11.5 54.5t-48.5 14.5q-23 0 -45 -17t-41 -44.5t-33 -62t-19 -68.5zM341 330q-10 -15 -19 -16t-21 -5q-32 -11 -55 -26t-38 -36t-22.5 -49.5t-7.5 -65.5q0 -35 11 -52t37 -17q17 0 33.5 18t30 46.5t24 64t16.5 71.5z
M134 561q48 72 102.5 103t115.5 31q49 0 81 -25.5t50 -59.5q13 22 32 38t40 26.5t43 15.5t42 5q72 0 112.5 -35t40.5 -96q0 -53 -20.5 -89.5t-60 -60.5t-97.5 -37t-133 -18q-5 -23 -8 -57t-3 -71q0 -32 3.5 -63.5t13.5 -56.5t26.5 -40t42.5 -15q10 0 24 6.5t28.5 19.5
t28.5 32t24 44l49 -32q-20 -34 -42.5 -61t-45.5 -45.5t-45.5 -28t-41.5 -9.5q-42 0 -70.5 11.5t-48 32.5t-30 49.5t-16.5 63.5q-30 -71 -75 -114t-112 -43q-36 0 -62 12.5t-42.5 33.5t-24.5 49t-8 59q0 66 18.5 108t49 68.5t71.5 41.5t86 27q63 16 84 48q3 22 5 35t3 20.5
t1 11v6.5q0 18 -4.5 38t-12.5 36.5t-21 27t-29 10.5q-23 0 -49.5 -25.5t-54.5 -59.5z" />
    <glyph glyph-name="ccedilla" unicode="&#xe7;" horiz-adv-x="450" 
d="M436 541q-7 36 -22.5 58.5t-41.5 22.5q-30 0 -60 -25t-54.5 -74.5t-39.5 -122.5t-15 -168q0 -78 22.5 -124.5t70.5 -46.5q29 0 53 25t51 71l51 -31q-38 -63 -80.5 -97.5t-94.5 -43.5l-7 -14q26 -3 42 -14.5t16 -37.5q0 -48 -38 -70.5t-127 -22.5l4 29q22 0 39 2t28.5 8
t17.5 17.5t6 30.5q0 20 -12 25t-29 5l15 39q-80 5 -121.5 73t-41.5 179q0 113 25 199t67.5 144.5t98 88t116.5 29.5q60 0 91 -32.5t39 -94.5z" />
    <glyph glyph-name="egrave" unicode="&#xe8;" horiz-adv-x="495" 
d="M63 0zM234 442q91 5 141.5 30.5t50.5 71.5q0 13 -2.5 26t-9 23.5t-18 17.5t-29.5 7q-26 0 -47 -14.5t-38 -39t-29 -56.5t-19 -66zM213 359q-7 -43 -10 -72t-3 -57q0 -30 4 -60.5t14 -54.5t27 -39t44 -15t52 24t51 72l52 -31q-42 -69 -91 -106.5t-118 -37.5q-41 0 -73 18
t-54 51t-33.5 78.5t-11.5 99.5q0 87 25.5 170.5t68.5 149.5t100 106t121 40q77 0 111.5 -42t34.5 -118q0 -39 -18 -71.5t-56 -56t-97 -36t-140 -12.5zM442 770l-23 -31l-133 44q-14 5 -22 12.5t-8 19.5q0 19 12 29t32 10q9 -1 19.5 -4t22.5 -11z" />
    <glyph glyph-name="eacute" unicode="&#xe9;" horiz-adv-x="495" 
d="M63 0zM234 442q91 5 141.5 30.5t50.5 71.5q0 13 -2.5 26t-9 23.5t-18 17.5t-29.5 7q-26 0 -47 -14.5t-38 -39t-29 -56.5t-19 -66zM213 359q-7 -43 -10 -72t-3 -57q0 -30 4 -60.5t14 -54.5t27 -39t44 -15t52 24t51 72l52 -31q-42 -69 -91 -106.5t-118 -37.5q-41 0 -73 18
t-54 51t-33.5 78.5t-11.5 99.5q0 87 25.5 170.5t68.5 149.5t100 106t121 40q77 0 111.5 -42t34.5 -118q0 -39 -18 -71.5t-56 -56t-97 -36t-140 -12.5zM411 839q14 8 25.5 11.5t21.5 3.5q34 0 34 -26q0 -32 -41 -45l-146 -44l-16 31z" />
    <glyph glyph-name="ecircumflex" unicode="&#xea;" horiz-adv-x="495" 
d="M63 0zM234 442q91 5 141.5 30.5t50.5 71.5q0 13 -2.5 26t-9 23.5t-18 17.5t-29.5 7q-26 0 -47 -14.5t-38 -39t-29 -56.5t-19 -66zM213 359q-7 -43 -10 -72t-3 -57q0 -30 4 -60.5t14 -54.5t27 -39t44 -15t52 24t51 72l52 -31q-42 -69 -91 -106.5t-118 -37.5q-41 0 -73 18
t-54 51t-33.5 78.5t-11.5 99.5q0 87 25.5 170.5t68.5 149.5t100 106t121 40q77 0 111.5 -42t34.5 -118q0 -39 -18 -71.5t-56 -56t-97 -36t-140 -12.5zM379 855l74 -42q12 -8 19.5 -21t7.5 -22q0 -14 -9 -21.5t-20 -7.5q-16 0 -37.5 18t-41.5 41q-30 -23 -56 -41t-42 -18
q-22 0 -22 18q0 7 8 24t34 30z" />
    <glyph glyph-name="edieresis" unicode="&#xeb;" horiz-adv-x="495" 
d="M63 0zM234 442q91 5 141.5 30.5t50.5 71.5q0 13 -2.5 26t-9 23.5t-18 17.5t-29.5 7q-26 0 -47 -14.5t-38 -39t-29 -56.5t-19 -66zM213 359q-7 -43 -10 -72t-3 -57q0 -30 4 -60.5t14 -54.5t27 -39t44 -15t52 24t51 72l52 -31q-42 -69 -91 -106.5t-118 -37.5q-41 0 -73 18
t-54 51t-33.5 78.5t-11.5 99.5q0 87 25.5 170.5t68.5 149.5t100 106t121 40q77 0 111.5 -42t34.5 -118q0 -39 -18 -71.5t-56 -56t-97 -36t-140 -12.5zM456 854q17 0 29 -13t12 -33q0 -27 -18.5 -46.5t-40.5 -19.5q-19 0 -31 13t-12 33q0 26 18.5 46t42.5 20zM303 854
q19 0 30.5 -13t11.5 -33q0 -13 -5 -25t-13.5 -21t-19 -14.5t-21.5 -5.5q-20 0 -31.5 13.5t-11.5 33.5q0 13 5.5 25t14 21t19 14t21.5 5z" />
    <glyph glyph-name="igrave" unicode="&#xec;" horiz-adv-x="207" 
d="M29 0zM267 689l-107 -689h-131l99 643zM298 770l-23 -31l-133 44q-14 5 -22 12.5t-8 19.5q0 19 12 29t32 10q9 -1 19.5 -4t22.5 -11z" />
    <glyph glyph-name="iacute" unicode="&#xed;" horiz-adv-x="207" 
d="M29 0zM267 689l-107 -689h-131l99 643zM264 839q14 8 25.5 11.5t21.5 3.5q34 0 34 -26q0 -32 -41 -45l-146 -44l-16 31z" />
    <glyph glyph-name="icircumflex" unicode="&#xee;" horiz-adv-x="207" 
d="M29 0zM267 689l-107 -689h-131l99 643zM236 855l74 -42q12 -8 19.5 -21t7.5 -22q0 -14 -9 -21.5t-20 -7.5q-16 0 -37.5 18t-41.5 41q-30 -23 -56 -41t-42 -18q-22 0 -22 18q0 7 8 24t34 30z" />
    <glyph glyph-name="idieresis" unicode="&#xef;" horiz-adv-x="207" 
d="M29 0zM267 689l-107 -689h-131l99 643zM314 854q17 0 29 -13t12 -33q0 -27 -18.5 -46.5t-40.5 -19.5q-19 0 -31 13t-12 33q0 26 18.5 46t42.5 20zM161 854q19 0 30.5 -13t11.5 -33q0 -13 -5 -25t-13.5 -21t-19 -14.5t-21.5 -5.5q-20 0 -31.5 13.5t-11.5 33.5q0 13 5.5 25
t14 21t19 14t21.5 5z" />
    <glyph glyph-name="ntilde" unicode="&#xf1;" horiz-adv-x="472" 
d="M29 0zM255 689l-7 -48q26 31 58 42.5t63 11.5q64 0 102.5 -39t38.5 -105v-16.5t-2 -17.5l-80 -517h-131l77 501q2 8 2 15.5v14.5q0 37 -14 59.5t-40 22.5q-13 0 -26.5 -8.5t-25.5 -22.5t-20.5 -34t-11.5 -42l-79 -506h-130l99 643zM217 752q10 48 36.5 75t63.5 27
q21 0 35.5 -11t25.5 -24t19.5 -24t18.5 -11q11 0 24.5 11.5t22.5 46.5h37q-8 -48 -37 -74.5t-65 -26.5q-21 0 -35.5 11t-25 23.5t-20 23.5t-19.5 11q-11 0 -21 -11.5t-23 -46.5h-37z" />
    <glyph glyph-name="ograve" unicode="&#xf2;" horiz-adv-x="512" 
d="M64 0zM325 616q-19 0 -36 -20t-31.5 -52.5t-25.5 -75t-19 -87.5t-12.5 -89t-4.5 -80q0 -75 18.5 -114.5t56.5 -39.5q31 0 56 35.5t42 91t26.5 122t9.5 128.5q0 37 -5 70t-14.5 58t-24.5 39t-36 14zM384 695q77 0 115 -55.5t38 -161.5q0 -48 -6 -103t-20 -110.5
t-38 -106.5t-59 -90t-83.5 -62.5t-111.5 -23.5q-80 0 -117.5 53.5t-37.5 162.5q0 99 17 189.5t55 158.5t99 108.5t149 40.5zM451 770l-23 -31l-133 44q-14 5 -22 12.5t-8 19.5q0 19 12 29t32 10q9 -1 19.5 -4t22.5 -11z" />
    <glyph glyph-name="oacute" unicode="&#xf3;" horiz-adv-x="512" 
d="M64 0zM325 616q-19 0 -36 -20t-31.5 -52.5t-25.5 -75t-19 -87.5t-12.5 -89t-4.5 -80q0 -75 18.5 -114.5t56.5 -39.5q31 0 56 35.5t42 91t26.5 122t9.5 128.5q0 37 -5 70t-14.5 58t-24.5 39t-36 14zM384 695q77 0 115 -55.5t38 -161.5q0 -48 -6 -103t-20 -110.5
t-38 -106.5t-59 -90t-83.5 -62.5t-111.5 -23.5q-80 0 -117.5 53.5t-37.5 162.5q0 99 17 189.5t55 158.5t99 108.5t149 40.5zM420 839q14 8 25.5 11.5t21.5 3.5q34 0 34 -26q0 -32 -41 -45l-146 -44l-16 31z" />
    <glyph glyph-name="ocircumflex" unicode="&#xf4;" horiz-adv-x="512" 
d="M64 0zM325 616q-19 0 -36 -20t-31.5 -52.5t-25.5 -75t-19 -87.5t-12.5 -89t-4.5 -80q0 -75 18.5 -114.5t56.5 -39.5q31 0 56 35.5t42 91t26.5 122t9.5 128.5q0 37 -5 70t-14.5 58t-24.5 39t-36 14zM384 695q77 0 115 -55.5t38 -161.5q0 -48 -6 -103t-20 -110.5
t-38 -106.5t-59 -90t-83.5 -62.5t-111.5 -23.5q-80 0 -117.5 53.5t-37.5 162.5q0 99 17 189.5t55 158.5t99 108.5t149 40.5zM387 855l74 -42q12 -8 19.5 -21t7.5 -22q0 -14 -9 -21.5t-20 -7.5q-16 0 -37.5 18t-41.5 41q-30 -23 -56 -41t-42 -18q-22 0 -22 18q0 7 8 24t34 30
z" />
    <glyph glyph-name="otilde" unicode="&#xf5;" horiz-adv-x="512" 
d="M64 0zM325 616q-19 0 -36 -20t-31.5 -52.5t-25.5 -75t-19 -87.5t-12.5 -89t-4.5 -80q0 -75 18.5 -114.5t56.5 -39.5q31 0 56 35.5t42 91t26.5 122t9.5 128.5q0 37 -5 70t-14.5 58t-24.5 39t-36 14zM384 695q77 0 115 -55.5t38 -161.5q0 -48 -6 -103t-20 -110.5
t-38 -106.5t-59 -90t-83.5 -62.5t-111.5 -23.5q-80 0 -117.5 53.5t-37.5 162.5q0 99 17 189.5t55 158.5t99 108.5t149 40.5zM237 752q10 48 36.5 75t63.5 27q21 0 35.5 -11t25.5 -24t19.5 -24t18.5 -11q11 0 24.5 11.5t22.5 46.5h37q-8 -48 -37 -74.5t-65 -26.5
q-21 0 -35.5 11t-25 23.5t-20 23.5t-19.5 11q-11 0 -21 -11.5t-23 -46.5h-37z" />
    <glyph glyph-name="odieresis" unicode="&#xf6;" horiz-adv-x="512" 
d="M64 0zM325 616q-19 0 -36 -20t-31.5 -52.5t-25.5 -75t-19 -87.5t-12.5 -89t-4.5 -80q0 -75 18.5 -114.5t56.5 -39.5q31 0 56 35.5t42 91t26.5 122t9.5 128.5q0 37 -5 70t-14.5 58t-24.5 39t-36 14zM384 695q77 0 115 -55.5t38 -161.5q0 -48 -6 -103t-20 -110.5
t-38 -106.5t-59 -90t-83.5 -62.5t-111.5 -23.5q-80 0 -117.5 53.5t-37.5 162.5q0 99 17 189.5t55 158.5t99 108.5t149 40.5zM465 854q17 0 29 -13t12 -33q0 -27 -18.5 -46.5t-40.5 -19.5q-19 0 -31 13t-12 33q0 26 18.5 46t42.5 20zM312 854q19 0 30.5 -13t11.5 -33
q0 -13 -5 -25t-13.5 -21t-19 -14.5t-21.5 -5.5q-20 0 -31.5 13.5t-11.5 33.5q0 13 5.5 25t14 21t19 14t21.5 5z" />
    <glyph glyph-name="divide" unicode="&#xf7;" horiz-adv-x="312" 
d="M387 459v-65h-327v65h327zM225 349q17 0 32 -6.5t26.5 -18t18 -26.5t6.5 -33q0 -35 -24 -59t-59 -24t-59 24t-24 59q0 18 6.5 33t17.5 26.5t26.5 18t32.5 6.5zM225 674q35 0 59 -24t24 -59q0 -18 -6.5 -33.5t-18 -27t-26.5 -18t-32 -6.5t-32.5 6.5t-26.5 18t-17.5 27
t-6.5 33.5q0 35 24 59t59 24z" />
    <glyph glyph-name="oslash" unicode="&#xf8;" horiz-adv-x="495" 
d="M540 737l-47 -91q44 -55 44 -168q0 -59 -12 -134q-15 -97 -42.5 -166t-66 -112.5t-88 -63.5t-109.5 -20q-35 0 -63 11l-36 -72l-57 24l44 85q-44 55 -44 169q0 99 17.5 189t55.5 158.5t99.5 108.5t148.5 40q17 0 31 -2.5t28 -7.5l39 76zM212 102q18 -44 59 -44
q49 0 76.5 66t49.5 206q4 27 6 54.5t2 53.5v18t-1 17zM383 568q-10 23 -24.5 35.5t-33.5 12.5q-21 0 -38 -12.5t-30.5 -42.5t-25 -79t-22.5 -121q-8 -47 -11 -86t-3 -72z" />
    <glyph glyph-name="ugrave" unicode="&#xf9;" horiz-adv-x="472" 
d="M50 0zM264 693l-80 -515q-3 -18 -3 -34q0 -37 15 -59t42 -22q16 0 30 9.5t24.5 24.5t17.5 33t10 35l75 482l137 46l-107 -693h-106l-5 48q-26 -36 -58.5 -51t-67.5 -15q-65 0 -101.5 41t-36.5 111q0 14 3 31l75 482zM431 770l-23 -31l-133 44q-14 5 -22 12.5t-8 19.5
q0 19 12 29t32 10q9 -1 19.5 -4t22.5 -11z" />
    <glyph glyph-name="uacute" unicode="&#xfa;" horiz-adv-x="472" 
d="M50 0zM264 693l-80 -515q-3 -18 -3 -34q0 -37 15 -59t42 -22q16 0 30 9.5t24.5 24.5t17.5 33t10 35l75 482l137 46l-107 -693h-106l-5 48q-26 -36 -58.5 -51t-67.5 -15q-65 0 -101.5 41t-36.5 111q0 14 3 31l75 482zM400 839q14 8 25.5 11.5t21.5 3.5q34 0 34 -26
q0 -32 -41 -45l-146 -44l-16 31z" />
    <glyph glyph-name="ucircumflex" unicode="&#xfb;" horiz-adv-x="472" 
d="M50 0zM264 693l-80 -515q-3 -18 -3 -34q0 -37 15 -59t42 -22q16 0 30 9.5t24.5 24.5t17.5 33t10 35l75 482l137 46l-107 -693h-106l-5 48q-26 -36 -58.5 -51t-67.5 -15q-65 0 -101.5 41t-36.5 111q0 14 3 31l75 482zM367 855l74 -42q12 -8 19.5 -21t7.5 -22
q0 -14 -9 -21.5t-20 -7.5q-16 0 -37.5 18t-41.5 41q-30 -23 -56 -41t-42 -18q-22 0 -22 18q0 7 8 24t34 30z" />
    <glyph glyph-name="udieresis" unicode="&#xfc;" horiz-adv-x="472" 
d="M50 0zM264 693l-80 -515q-3 -18 -3 -34q0 -37 15 -59t42 -22q16 0 30 9.5t24.5 24.5t17.5 33t10 35l75 482l137 46l-107 -693h-106l-5 48q-26 -36 -58.5 -51t-67.5 -15q-65 0 -101.5 41t-36.5 111q0 14 3 31l75 482zM445 854q17 0 29 -13t12 -33q0 -27 -18.5 -46.5
t-40.5 -19.5q-19 0 -31 13t-12 33q0 26 18.5 46t42.5 20zM292 854q19 0 30.5 -13t11.5 -33q0 -13 -5 -25t-13.5 -21t-19 -14.5t-21.5 -5.5q-20 0 -31.5 13.5t-11.5 33.5q0 13 5.5 25t14 21t19 14t21.5 5z" />
    <glyph glyph-name="yacute" unicode="&#xfd;" horiz-adv-x="449" 
d="M0 0zM251 682l32 -424l179 424h69l-305 -709q-31 -72 -92.5 -113t-137.5 -41l12 79q45 0 83 21t55 58l44 98l-78 607h139zM388 839q14 8 25.5 11.5t21.5 3.5q34 0 34 -26q0 -32 -41 -45l-146 -44l-16 31z" />
    <glyph glyph-name="thorn" unicode="&#xfe;" horiz-adv-x="476" 
d="M185 170q-1 -5 -1 -14q0 -18 5 -36.5t14.5 -33.5t22 -25t27.5 -10q19 0 36 16t32.5 50.5t29.5 90t26 134.5q6 40 9.5 75.5t3.5 64.5q0 57 -14.5 88.5t-47.5 31.5q-18 0 -33.5 -12t-28.5 -32t-22 -45t-13 -51zM293 864l-34 -223q23 24 53 39t66 15q69 0 104.5 -56.5
t35.5 -162.5q0 -29 -3 -61.5t-8 -68.5q-14 -87 -35 -154.5t-53 -114t-75.5 -71t-100.5 -24.5q-28 0 -48.5 17t-28.5 49l-35 -229h-131l155 999z" />
    <glyph glyph-name="ydieresis" unicode="&#xff;" horiz-adv-x="449" 
d="M0 0zM251 682l32 -424l179 424h69l-305 -709q-31 -72 -92.5 -113t-137.5 -41l12 79q45 0 83 21t55 58l44 98l-78 607h139zM433 854q17 0 29 -13t12 -33q0 -27 -18.5 -46.5t-40.5 -19.5q-19 0 -31 13t-12 33q0 26 18.5 46t42.5 20zM280 854q19 0 30.5 -13t11.5 -33
q0 -13 -5 -25t-13.5 -21t-19 -14.5t-21.5 -5.5q-20 0 -31.5 13.5t-11.5 33.5q0 13 5.5 25t14 21t19 14t21.5 5z" />
    <glyph glyph-name="dotlessi" unicode="&#x131;" horiz-adv-x="191" 
d="M267 689l-107 -689h-131l99 643z" />
    <glyph glyph-name="Lslash" unicode="&#x141;" horiz-adv-x="369" 
d="M299 846l-48 -308l171 75l-16 -100l-170 -74l-58 -374h191l-10 -65h-321l131 846h130z" />
    <glyph glyph-name="lslash" unicode="&#x142;" horiz-adv-x="207" 
d="M302 864l-49 -319l41 20l-12 -77l-42 -19l-72 -469h-131l62 402l-40 -18l12 77l40 18l53 339z" />
    <glyph glyph-name="OE" unicode="&#x152;" horiz-adv-x="840" 
d="M422 776q-36 0 -72 -39t-65 -107.5t-47 -161.5t-18 -202q0 -90 21 -144.5t63 -54.5q36 0 72.5 39t65 107.5t46.5 162.5t18 205q0 91 -21 143t-63 52zM955 846l-11 -67h-261l-50 -322h150l-10 -66h-151l-50 -326h261l-9 -65h-394l6 39q-37 -22 -83.5 -33t-91.5 -11
t-79 12.5t-56.5 40.5t-33.5 73t-11 110q0 75 8.5 150.5t27 144t48 128t72 103t98.5 68.5t128 25q56 0 95 -24l3 20h394z" />
    <glyph glyph-name="oe" unicode="&#x153;" horiz-adv-x="825" 
d="M696 599q-24 0 -43.5 -16.5t-35.5 -40.5t-27.5 -51t-19.5 -49q49 3 84.5 12.5t58.5 22.5t34.5 27.5t11.5 27.5q0 34 -15 50.5t-48 16.5zM283 70q28 0 49 21.5t36 56t24 76t14 81t7 73t2 50.5q0 38 -5 70.5t-15.5 56t-26 37t-35.5 13.5q-19 0 -35.5 -18.5t-31 -49.5
t-26 -71t-19 -83.5t-12 -86.5t-4.5 -79q0 -147 78 -147zM548 359q-6 -31 -8.5 -60t-2.5 -50t2.5 -50.5t11.5 -57t27 -47t48 -19.5q38 0 102 82l51 -31q-99 -129 -207 -129q-47 0 -80.5 19.5t-57.5 58.5q-23 -24 -49.5 -40t-54 -25.5t-53 -13t-46.5 -3.5q-80 0 -118.5 50.5
t-38.5 158.5q0 60 6 119.5t20 113t37 99t58.5 78.5t84 52t112.5 19q102 0 136 -90q32 48 78.5 66t95.5 18q72 0 114 -35t42 -89q0 -99 -79.5 -145t-230.5 -49z" />
    <glyph glyph-name="Scaron" unicode="&#x160;" horiz-adv-x="431" 
d="M36 0zM445 688q-10 49 -30 71.5t-40 22.5q-24 0 -44.5 -8.5t-36 -24t-24 -36.5t-8.5 -46q0 -40 12.5 -72.5t31.5 -62t41.5 -59t41.5 -64.5t31.5 -77.5t12.5 -97.5q0 -68 -20 -115.5t-54.5 -78t-80 -44.5t-96.5 -14q-69 0 -102 37t-44 109l76 49q3 -22 8 -43t14 -37
t23 -25.5t37 -9.5q21 0 40 9t34 27t23.5 44t8.5 60q0 41 -11.5 75.5t-28.5 66.5t-37 64t-37 67.5t-28.5 77t-11.5 93.5q0 40 16.5 79t46.5 69.5t73 49t97 18.5q57 0 90 -28t45 -91zM281 945q-28 16 -28 39q0 33 30 33q16 0 37.5 -18.5t42.5 -41.5q29 23 55 41.5t42 18.5
q21 0 21 -21q0 -14 -11 -28t-30 -23l-86 -43z" />
    <glyph glyph-name="scaron" unicode="&#x161;" horiz-adv-x="429" 
d="M39 0zM405 535q-16 35 -33.5 56.5t-39.5 21.5q-19 0 -36.5 -4t-31 -14.5t-21.5 -29t-8 -46.5q0 -30 14.5 -53.5t36.5 -44t47.5 -40.5t47.5 -45t36.5 -57t14.5 -76q0 -62 -18.5 -104.5t-51 -68.5t-77 -37t-96.5 -11q-56 0 -96 34.5t-54 111.5l73 49q5 -21 13 -41.5
t18.5 -36t23.5 -25.5t27 -10q16 0 34 9.5t32.5 25.5t24 36t9.5 40q0 25 -14.5 48.5t-35.5 37.5q-26 16 -51 37.5t-44.5 48.5t-31 60t-11.5 71q0 61 19.5 102.5t51 67t72.5 36.5t85 11q51 0 85 -25t51 -81zM255 782q-28 16 -28 39q0 33 30 33q16 0 37.5 -18.5t42.5 -41.5
q29 23 55 41.5t42 18.5q21 0 21 -21q0 -14 -11 -28t-30 -23l-86 -43z" />
    <glyph glyph-name="Ydieresis" unicode="&#x178;" horiz-adv-x="442" 
d="M136 0zM274 846l40 -309l159 309h85l-208 -361l-75 -485h-130l64 419l-73 427h138zM454 1017q17 0 29 -13t12 -33q0 -27 -18.5 -46.5t-40.5 -19.5q-19 0 -31 13t-12 33q0 26 18.5 46t42.5 20zM301 1017q19 0 30.5 -13t11.5 -33q0 -13 -5 -25t-13.5 -21t-19 -14.5
t-21.5 -5.5q-20 0 -31.5 13.5t-11.5 33.5q0 13 5.5 25t14 21t19 14t21.5 5z" />
    <glyph glyph-name="Zcaron" unicode="&#x17d;" horiz-adv-x="469" 
d="M16 0zM569 846l-391 -781h276l-10 -65h-428l391 779h-271l10 67h423zM300 945q-28 16 -28 39q0 33 30 33q16 0 37.5 -18.5t42.5 -41.5q29 23 55 41.5t42 18.5q21 0 21 -21q0 -14 -11 -28t-30 -23l-86 -43z" />
    <glyph glyph-name="zcaron" unicode="&#x17e;" horiz-adv-x="436" 
d="M8 0zM538 682l-363 -609h247l-11 -73h-403l362 609h-242l11 73h399zM260 782q-28 16 -28 39q0 33 30 33q16 0 37.5 -18.5t42.5 -41.5q29 23 55 41.5t42 18.5q21 0 21 -21q0 -14 -11 -28t-30 -23l-86 -43z" />
    <glyph glyph-name="circumflex" unicode="&#x2c6;" horiz-adv-x="244" 
d="M253 855l74 -42q12 -8 19.5 -21t7.5 -22q0 -14 -9 -21.5t-20 -7.5q-16 0 -37.5 18t-41.5 41q-30 -23 -56 -41t-42 -18q-22 0 -22 18q0 7 8 24t34 30z" />
    <glyph glyph-name="caron" unicode="&#x2c7;" horiz-adv-x="244" 
d="M163 782q-28 16 -28 39q0 33 30 33q16 0 37.5 -18.5t42.5 -41.5q29 23 55 41.5t42 18.5q21 0 21 -21q0 -14 -11 -28t-30 -23l-86 -43z" />
    <glyph glyph-name="ring" unicode="&#x2da;" horiz-adv-x="187" 
d="M121 765q0 19 7.5 35.5t19.5 28.5t28 18.5t34 6.5t34 -6.5t29 -18.5t20.5 -28.5t7.5 -35.5t-7.5 -36t-20.5 -29.5t-29 -19.5t-34 -7q-17 0 -33 7t-28.5 19t-20 29t-7.5 37zM162 765q0 -22 15 -35t33 -13t32.5 13t14.5 35q0 21 -14.5 33.5t-32.5 12.5t-33 -12.5t-15 -33.5
z" />
    <glyph glyph-name="tilde" unicode="&#x2dc;" horiz-adv-x="303" 
d="M131 752q10 48 36.5 75t63.5 27q21 0 35.5 -11t25.5 -24t19.5 -24t18.5 -11q11 0 24.5 11.5t22.5 46.5h37q-8 -48 -37 -74.5t-65 -26.5q-21 0 -35.5 11t-25 23.5t-20 23.5t-19.5 11q-11 0 -21 -11.5t-23 -46.5h-37z" />
    <glyph glyph-name="endash" unicode="&#x2013;" horiz-adv-x="566" 
d="M588 422l-16 -100h-486l16 100h486z" />
    <glyph glyph-name="emdash" unicode="&#x2014;" horiz-adv-x="948" 
d="M988 422l-16 -100h-894l16 100h894z" />
    <glyph glyph-name="quoteleft" unicode="&#x2018;" horiz-adv-x="179" 
d="M176 855q33 36 77 57l18 -27q-17 -23 -27 -41.5t-10 -32.5q0 -28 56 -28q-54 -96 -100 -96q-28 0 -43 20t-15 49q0 26 12 51.5t33 47.5h-1z" />
    <glyph glyph-name="quoteright" unicode="&#x2019;" horiz-adv-x="179" 
d="M250 742q-17 -21 -51.5 -43t-84.5 -45q42 54 59 85t17 43q0 29 -54 29q52 94 100 94q26 0 41 -18t15 -47q0 -27 -10 -50.5t-33 -48.5z" />
    <glyph glyph-name="quotesinglbase" unicode="&#x201a;" horiz-adv-x="179" 
d="M135 -3q-17 -21 -51.5 -42.5t-84.5 -45.5q76 101 76 127q0 30 -56 30q54 95 102 95q26 0 41 -19t15 -48q0 -49 -43 -99z" />
    <glyph glyph-name="quotedblleft" unicode="&#x201c;" horiz-adv-x="290" 
d="M278 893q-16 -23 -26 -41.5t-10 -32.5q0 -6 3 -12q6 14 14.5 27.5t21.5 27.5h-1q17 19 36 33t40 25l17 -27q-17 -23 -26 -42t-9 -33q0 -28 56 -28q-53 -95 -101 -95q-31 0 -47 24q-24 -24 -48 -24q-27 0 -42.5 18t-15.5 47q0 21 9 43t25 43.5t38 40.5t49 33z" />
    <glyph glyph-name="quotedblright" unicode="&#x201d;" horiz-adv-x="290" 
d="M165 719q17 20 26.5 39.5t9.5 33.5q0 30 -56 30q54 95 101 95q16 0 27 -7t19 -17q27 24 49 24q28 0 43 -19.5t15 -48.5q0 -49 -44 -100h1q-17 -18 -36.5 -32.5t-42.5 -25.5l-17 28q32 38 37 68q0 4 -0.5 8t-2.5 8q-6 -13 -14.5 -26.5t-20.5 -27.5h1q-17 -18 -36 -32.5
t-42 -25.5z" />
    <glyph glyph-name="quotedblbase" unicode="&#x201e;" horiz-adv-x="290" 
d="M48 -37q16 20 26 39t10 34q0 30 -56 30q53 95 101 95q16 0 27 -6.5t19 -17.5q25 24 49 24q28 0 43 -19.5t15 -48.5q0 -49 -45 -100h1q-17 -19 -36 -32.5t-42 -24.5l-17 27q17 20 25.5 36.5t11.5 32.5q0 4 -0.5 7.5t-2.5 8.5q-6 -13 -14.5 -27t-21.5 -28h1
q-16 -19 -35 -32.5t-42 -24.5z" />
    <glyph glyph-name="bullet" unicode="&#x2022;" horiz-adv-x="354" 
d="M274 624q27 0 49.5 -11t39 -30t26 -44.5t9.5 -55.5q0 -39 -15.5 -74.5t-40 -62.5t-56.5 -43t-65 -16q-27 0 -50 11t-39.5 29.5t-25.5 44t-9 55.5q0 37 14.5 72.5t39 63t56.5 44.5t67 17z" />
    <glyph glyph-name="ellipsis" unicode="&#x2026;" horiz-adv-x="1170" 
d="M118 157q26 0 43.5 -19.5t17.5 -48.5q0 -21 -7.5 -39t-19.5 -31.5t-27.5 -21t-32.5 -7.5q-27 0 -44 19.5t-17 48.5q0 20 7.5 38t19.5 31.5t27.5 21.5t32.5 8zM608 157q27 0 43.5 -19t16.5 -48q0 -21 -7 -39t-18.5 -31.5t-27 -21.5t-32.5 -8q-28 0 -44.5 19t-16.5 48
q0 20 7 38.5t19 32t27.5 21.5t32.5 8zM1098 157q27 0 44 -19.5t17 -48.5q0 -20 -7.5 -38t-19.5 -31.5t-27.5 -21.5t-31.5 -8q-29 0 -45.5 19t-16.5 49q0 20 7.5 38t19.5 31.5t27.5 21.5t32.5 8z" />
    <glyph glyph-name="Euro" unicode="&#x20ac;" horiz-adv-x="545" 
d="M149 544q43 151 129 234.5t217 83.5q39 0 71 -6.5t49 -24.5l-39 -71q-17 17 -44 23.5t-63 6.5q-26 0 -52 -18t-50.5 -50.5t-46 -77.5t-37.5 -100h174l-39 -73h-150q-8 -23 -11.5 -48.5t-3.5 -47.5h112l-39 -73h-80q-1 -10 -1 -19.5v-18.5q0 -46 5 -84.5t15.5 -66
t26.5 -43t37 -15.5q31 0 70 23t75 85h78q-30 -50 -60.5 -84.5t-63.5 -56t-68.5 -31t-74.5 -9.5q-89 0 -133 56.5t-44 186.5q0 35 3 77h-56l26 73h36l15 96h-51l25 73h43z" />
    <glyph glyph-name="trademark" unicode="&#x2122;" horiz-adv-x="564" 
d="M347 846v-62h-79v-255h-68v255h-81v62h228zM452 847l60 -164l60 164h74v-318h-64v175l-69 -176l-75 183v-181h-63v317h77z" />
    <glyph glyph-name="minus" unicode="&#x2212;" horiz-adv-x="312" 
d="M366 459v-65h-327v65h327z" />
    <glyph glyph-name="nonmarkingreturn" horiz-adv-x="535" 
 />
    <glyph glyph-name=".null" horiz-adv-x="57" 
 />
    <glyph glyph-name="Eth" unicode="&#xd0;" horiz-adv-x="545" 
d="M413 846q51 0 85 -25t54.5 -65.5t29 -92.5t8.5 -106q0 -33 -2.5 -65.5t-7.5 -62.5q-19 -123 -49.5 -205.5t-77 -132t-110 -70.5t-148.5 -21h-155l55 360h-40l15 99h40l61 387h242zM239 459h108l-15 -99h-108l-45 -295h69q35 0 66 24.5t56.5 71t45.5 114.5t33 154
q9 60 9 112q0 54 -9.5 97.5t-27.5 75t-44.5 48.5t-60.5 17h-26z" />
    <glyph glyph-name="eth" unicode="&#xf0;" horiz-adv-x="458" 
d="M227 849q53 -20 93.5 -50t71.5 -69l105 79l24 -47l-100 -75q34 -60 50 -130t16 -142q0 -108 -21.5 -189.5t-58 -135.5t-85 -81t-102.5 -27q-81 0 -122.5 52t-41.5 143q0 62 17 120.5t48.5 104t75.5 73t98 27.5q52 0 84 -32q0 24 -1 45t-4 40t-9.5 38t-16.5 40l-106 -78
l-23 47l103 77q-24 35 -53.5 60.5t-64.5 36.5zM317 393q-45 0 -75 -29t-48 -68.5t-25.5 -81t-7.5 -65.5q0 -18 2.5 -35.5t9.5 -30.5t18 -21t28 -8q24 0 46.5 19t41 53t33 81.5t23.5 103.5q3 18 3 32q0 29 -12.5 39.5t-36.5 10.5z" />
    <glyph glyph-name=".ttfautohint" horiz-adv-x="458" 
d="M0 0z" />
    </font>
</defs>
</svg>
